  0
SECTION
  2
HEADER
  9
$ACADVER
  1
AC1009
  9
$EXTMIN
 10
0.0
 20
0.0
 30
0.0
  9
$EXTMAX
 10
1000.0
 20
1000.0
 30
0.0
  9
$FILLMODE
 70
 0
  9
$SPLFRAME
 70
 1
  0
ENDSEC
  0
SECTION
  2
TABLES
  0
TABLE
  2
LAYER
 70
1
  0
LAYER
  2
0
 70
     0
 62
     7
  6
CONTINUOUS
  0
ENDTAB
  0
ENDSEC
  0
SECTION
  2
ENTITIES
  0
POLYLINE
  8
0
 62
     13
 66
     1
 10
0
 20
0
 30
0.0
 40
0.432
 41
0.432
  0
VERTEX
  8
0
 10
1.19173
 20
0.0533854
 30
0.0
 40
0.006
 41
0.006
  0
VERTEX
  8
0
 10
1.19173
 20
1.71994
 30
0.0
 40
0.006
 41
0.006
  0
SEQEND
 8
0
  0
POLYLINE
  8
0
 62
     13
 66
     1
 10
0
 20
0
 30
0.0
 40
0.432
 41
0.432
  0
VERTEX
  8
0
 10
1.19173
 20
1.71994
 30
0.0
 40
0.006
 41
0.006
  0
VERTEX
  8
0
 10
1.19005
 20
1.72163
 30
0.0
 40
0.006
 41
0.006
  0
SEQEND
 8
0
  0
POLYLINE
  8
0
 62
     13
 66
     1
 10
0
 20
0
 30
0.0
 40
0.432
 41
0.432
  0
VERTEX
  8
0
 10
0.0500217
 20
0.0516493
 30
0.0
 40
0.006
 41
0.006
  0
VERTEX
  8
0
 10
0.0500217
 20
1.71664
 30
0.0
 40
0.006
 41
0.006
  0
SEQEND
 8
0
  0
POLYLINE
  8
0
 62
     13
 66
     1
 10
0
 20
0
 30
0.0
 40
0.432
 41
0.432
  0
VERTEX
  8
0
 10
0.0500217
 20
1.71664
 30
0.0
 40
0.006
 41
0.006
  0
VERTEX
  8
0
 10
0.0550131
 20
1.72163
 30
0.0
 40
0.006
 41
0.006
  0
SEQEND
 8
0
  0
POLYLINE
  8
0
 62
     13
 66
     1
 10
0
 20
0
 30
0.0
 40
0.432
 41
0.432
  0
VERTEX
  8
0
 10
1.19005
 20
1.72163
 30
0.0
 40
0.006
 41
0.006
  0
VERTEX
  8
0
 10
0.0550131
 20
1.72163
 30
0.0
 40
0.006
 41
0.006
  0
SEQEND
 8
0
  0
POLYLINE
  8
0
 62
     13
 66
     1
 10
0
 20
0
 30
0.0
 40
0.432
 41
0.432
  0
VERTEX
  8
0
 10
1.19173
 20
0.0533854
 30
0.0
 40
0.006
 41
0.006
  0
VERTEX
  8
0
 10
1.19005
 20
0.0516493
 30
0.0
 40
0.006
 41
0.006
  0
SEQEND
 8
0
  0
POLYLINE
  8
0
 62
     13
 66
     1
 10
0
 20
0
 30
0.0
 40
0.432
 41
0.432
  0
VERTEX
  8
0
 10
0.0500217
 20
0.0516493
 30
0.0
 40
0.006
 41
0.006
  0
VERTEX
  8
0
 10
1.19005
 20
0.0516493
 30
0.0
 40
0.006
 41
0.006
  0
SEQEND
 8
0
  0
POLYLINE
  8
0
 62
     173
 66
     1
 10
0
 20
0
 30
0.0
 70
     1
 40
0
 41
0
  0
VERTEX
  8
0
 10
0.133843
 20
1.62463
 30
0.0
 40
0
 41
0
  0
VERTEX
  8
0
 10
0.129883
 20
1.63406
 30
0.0
 40
0
 41
0
  0
VERTEX
  8
0
 10
0.121311
 20
1.63715
 30
0.0
 40
0
 41
0
  0
VERTEX
  8
0
 10
0.112739
 20
1.63406
 30
0.0
 40
0
 41
0
  0
VERTEX
  8
0
 10
0.108832
 20
1.62463
 30
0.0
 40
0
 41
0
  0
VERTEX
  8
0
 10
0.112739
 20
1.61529
 30
0.0
 40
0
 41
0
  0
VERTEX
  8
0
 10
0.121311
 20
1.61214
 30
0.0
 40
0
 41
0
  0
VERTEX
  8
0
 10
0.129883
 20
1.61529
 30
0.0
 40
0
 41
0
  0
VERTEX
  8
0
 10
0.133843
 20
1.62463
 30
0.0
 40
0
 41
0
  0
SEQEND
 8
0
  0
POLYLINE
  8
0
 62
     173
 66
     1
 10
0
 20
0
 30
0.0
 70
     1
 40
0
 41
0
  0
VERTEX
  8
0
 10
0.133843
 20
1.32964
 30
0.0
 40
0
 41
0
  0
VERTEX
  8
0
 10
0.129883
 20
1.33903
 30
0.0
 40
0
 41
0
  0
VERTEX
  8
0
 10
0.121311
 20
1.34218
 30
0.0
 40
0
 41
0
  0
VERTEX
  8
0
 10
0.112739
 20
1.33903
 30
0.0
 40
0
 41
0
  0
VERTEX
  8
0
 10
0.108832
 20
1.32964
 30
0.0
 40
0
 41
0
  0
VERTEX
  8
0
 10
0.112739
 20
1.32031
 30
0.0
 40
0
 41
0
  0
VERTEX
  8
0
 10
0.121311
 20
1.31717
 30
0.0
 40
0
 41
0
  0
VERTEX
  8
0
 10
0.129883
 20
1.32031
 30
0.0
 40
0
 41
0
  0
VERTEX
  8
0
 10
0.133843
 20
1.32964
 30
0.0
 40
0
 41
0
  0
SEQEND
 8
0
  0
POLYLINE
  8
0
 62
     173
 66
     1
 10
0
 20
0
 30
0.0
 70
     1
 40
0
 41
0
  0
VERTEX
  8
0
 10
0.133843
 20
0.939615
 30
0.0
 40
0
 41
0
  0
VERTEX
  8
0
 10
0.129883
 20
0.949056
 30
0.0
 40
0
 41
0
  0
VERTEX
  8
0
 10
0.121311
 20
0.952149
 30
0.0
 40
0
 41
0
  0
VERTEX
  8
0
 10
0.112739
 20
0.949056
 30
0.0
 40
0
 41
0
  0
VERTEX
  8
0
 10
0.108832
 20
0.939615
 30
0.0
 40
0
 41
0
  0
VERTEX
  8
0
 10
0.112739
 20
0.930285
 30
0.0
 40
0
 41
0
  0
VERTEX
  8
0
 10
0.121311
 20
0.927137
 30
0.0
 40
0
 41
0
  0
VERTEX
  8
0
 10
0.129883
 20
0.930285
 30
0.0
 40
0
 41
0
  0
VERTEX
  8
0
 10
0.133843
 20
0.939615
 30
0.0
 40
0
 41
0
  0
SEQEND
 8
0
  0
POLYLINE
  8
0
 62
     173
 66
     1
 10
0
 20
0
 30
0.0
 70
     1
 40
0
 41
0
  0
VERTEX
  8
0
 10
0.133843
 20
0.529622
 30
0.0
 40
0
 41
0
  0
VERTEX
  8
0
 10
0.129883
 20
0.539063
 30
0.0
 40
0
 41
0
  0
VERTEX
  8
0
 10
0.121311
 20
0.542156
 30
0.0
 40
0
 41
0
  0
VERTEX
  8
0
 10
0.112739
 20
0.539063
 30
0.0
 40
0
 41
0
  0
VERTEX
  8
0
 10
0.108832
 20
0.529622
 30
0.0
 40
0
 41
0
  0
VERTEX
  8
0
 10
0.112739
 20
0.52029
 30
0.0
 40
0
 41
0
  0
VERTEX
  8
0
 10
0.121311
 20
0.517144
 30
0.0
 40
0
 41
0
  0
VERTEX
  8
0
 10
0.129883
 20
0.52029
 30
0.0
 40
0
 41
0
  0
VERTEX
  8
0
 10
0.133843
 20
0.529622
 30
0.0
 40
0
 41
0
  0
SEQEND
 8
0
  0
POLYLINE
  8
0
 62
     173
 66
     1
 10
0
 20
0
 30
0.0
 70
     1
 40
0
 41
0
  0
VERTEX
  8
0
 10
0.133843
 20
0.209636
 30
0.0
 40
0
 41
0
  0
VERTEX
  8
0
 10
0.129883
 20
0.219021
 30
0.0
 40
0
 41
0
  0
VERTEX
  8
0
 10
0.121311
 20
0.222168
 30
0.0
 40
0
 41
0
  0
VERTEX
  8
0
 10
0.112739
 20
0.219021
 30
0.0
 40
0
 41
0
  0
VERTEX
  8
0
 10
0.108832
 20
0.209636
 30
0.0
 40
0
 41
0
  0
VERTEX
  8
0
 10
0.112739
 20
0.200304
 30
0.0
 40
0
 41
0
  0
VERTEX
  8
0
 10
0.121311
 20
0.197157
 30
0.0
 40
0
 41
0
  0
VERTEX
  8
0
 10
0.129883
 20
0.200304
 30
0.0
 40
0
 41
0
  0
VERTEX
  8
0
 10
0.133843
 20
0.209636
 30
0.0
 40
0
 41
0
  0
SEQEND
 8
0
  0
POLYLINE
  8
0
 62
     173
 66
     1
 10
0
 20
0
 30
0.0
 70
     1
 40
0
 41
0
  0
VERTEX
  8
0
 10
0.165147
 20
0.848361
 30
0.0
 40
0
 41
0
  0
VERTEX
  8
0
 10
0.161188
 20
0.857747
 30
0.0
 40
0
 41
0
  0
VERTEX
  8
0
 10
0.152615
 20
0.860894
 30
0.0
 40
0
 41
0
  0
VERTEX
  8
0
 10
0.144043
 20
0.857747
 30
0.0
 40
0
 41
0
  0
VERTEX
  8
0
 10
0.140136
 20
0.848361
 30
0.0
 40
0
 41
0
  0
VERTEX
  8
0
 10
0.144043
 20
0.838976
 30
0.0
 40
0
 41
0
  0
VERTEX
  8
0
 10
0.152615
 20
0.835829
 30
0.0
 40
0
 41
0
  0
VERTEX
  8
0
 10
0.161188
 20
0.838976
 30
0.0
 40
0
 41
0
  0
VERTEX
  8
0
 10
0.165147
 20
0.848361
 30
0.0
 40
0
 41
0
  0
SEQEND
 8
0
  0
POLYLINE
  8
0
 62
     173
 66
     1
 10
0
 20
0
 30
0.0
 70
     1
 40
0
 41
0
  0
VERTEX
  8
0
 10
0.258843
 20
0.879665
 30
0.0
 40
0
 41
0
  0
VERTEX
  8
0
 10
0.254883
 20
0.889051
 30
0.0
 40
0
 41
0
  0
VERTEX
  8
0
 10
0.246311
 20
0.892199
 30
0.0
 40
0
 41
0
  0
VERTEX
  8
0
 10
0.237739
 20
0.889051
 30
0.0
 40
0
 41
0
  0
VERTEX
  8
0
 10
0.233832
 20
0.879665
 30
0.0
 40
0
 41
0
  0
VERTEX
  8
0
 10
0.237739
 20
0.870281
 30
0.0
 40
0
 41
0
  0
VERTEX
  8
0
 10
0.246311
 20
0.867133
 30
0.0
 40
0
 41
0
  0
VERTEX
  8
0
 10
0.254883
 20
0.870281
 30
0.0
 40
0
 41
0
  0
VERTEX
  8
0
 10
0.258843
 20
0.879665
 30
0.0
 40
0
 41
0
  0
SEQEND
 8
0
  0
POLYLINE
  8
0
 62
     173
 66
     1
 10
0
 20
0
 30
0.0
 70
     1
 40
0
 41
0
  0
VERTEX
  8
0
 10
0.273817
 20
1.03467
 30
0.0
 40
0
 41
0
  0
VERTEX
  8
0
 10
0.269857
 20
1.04405
 30
0.0
 40
0
 41
0
  0
VERTEX
  8
0
 10
0.261285
 20
1.0472
 30
0.0
 40
0
 41
0
  0
VERTEX
  8
0
 10
0.252712
 20
1.04405
 30
0.0
 40
0
 41
0
  0
VERTEX
  8
0
 10
0.248807
 20
1.03467
 30
0.0
 40
0
 41
0
  0
VERTEX
  8
0
 10
0.252712
 20
1.02528
 30
0.0
 40
0
 41
0
  0
VERTEX
  8
0
 10
0.261285
 20
1.02214
 30
0.0
 40
0
 41
0
  0
VERTEX
  8
0
 10
0.269857
 20
1.02528
 30
0.0
 40
0
 41
0
  0
VERTEX
  8
0
 10
0.273817
 20
1.03467
 30
0.0
 40
0
 41
0
  0
SEQEND
 8
0
  0
POLYLINE
  8
0
 62
     173
 66
     1
 10
0
 20
0
 30
0.0
 70
     1
 40
0
 41
0
  0
VERTEX
  8
0
 10
0.280111
 20
1.22336
 30
0.0
 40
0
 41
0
  0
VERTEX
  8
0
 10
0.27615
 20
1.23275
 30
0.0
 40
0
 41
0
  0
VERTEX
  8
0
 10
0.267578
 20
1.23589
 30
0.0
 40
0
 41
0
  0
VERTEX
  8
0
 10
0.259006
 20
1.23275
 30
0.0
 40
0
 41
0
  0
VERTEX
  8
0
 10
0.2551
 20
1.22336
 30
0.0
 40
0
 41
0
  0
VERTEX
  8
0
 10
0.259006
 20
1.21398
 30
0.0
 40
0
 41
0
  0
VERTEX
  8
0
 10
0.267578
 20
1.21083
 30
0.0
 40
0
 41
0
  0
VERTEX
  8
0
 10
0.27615
 20
1.21398
 30
0.0
 40
0
 41
0
  0
VERTEX
  8
0
 10
0.280111
 20
1.22336
 30
0.0
 40
0
 41
0
  0
SEQEND
 8
0
  0
POLYLINE
  8
0
 62
     173
 66
     1
 10
0
 20
0
 30
0.0
 70
     1
 40
0
 41
0
  0
VERTEX
  8
0
 10
0.280707
 20
0.614637
 30
0.0
 40
0
 41
0
  0
VERTEX
  8
0
 10
0.276747
 20
0.624024
 30
0.0
 40
0
 41
0
  0
VERTEX
  8
0
 10
0.268175
 20
0.627171
 30
0.0
 40
0
 41
0
  0
VERTEX
  8
0
 10
0.259603
 20
0.624024
 30
0.0
 40
0
 41
0
  0
VERTEX
  8
0
 10
0.255697
 20
0.614637
 30
0.0
 40
0
 41
0
  0
VERTEX
  8
0
 10
0.259603
 20
0.605306
 30
0.0
 40
0
 41
0
  0
VERTEX
  8
0
 10
0.268175
 20
0.60216
 30
0.0
 40
0
 41
0
  0
VERTEX
  8
0
 10
0.276747
 20
0.605306
 30
0.0
 40
0
 41
0
  0
VERTEX
  8
0
 10
0.280707
 20
0.614637
 30
0.0
 40
0
 41
0
  0
SEQEND
 8
0
  0
POLYLINE
  8
0
 62
     173
 66
     1
 10
0
 20
0
 30
0.0
 70
     1
 40
0
 41
0
  0
VERTEX
  8
0
 10
0.308811
 20
1.45464
 30
0.0
 40
0
 41
0
  0
VERTEX
  8
0
 10
0.30485
 20
1.46403
 30
0.0
 40
0
 41
0
  0
VERTEX
  8
0
 10
0.296278
 20
1.46718
 30
0.0
 40
0
 41
0
  0
VERTEX
  8
0
 10
0.287706
 20
1.46403
 30
0.0
 40
0
 41
0
  0
VERTEX
  8
0
 10
0.2838
 20
1.45464
 30
0.0
 40
0
 41
0
  0
VERTEX
  8
0
 10
0.287706
 20
1.44532
 30
0.0
 40
0
 41
0
  0
VERTEX
  8
0
 10
0.296278
 20
1.44217
 30
0.0
 40
0
 41
0
  0
VERTEX
  8
0
 10
0.30485
 20
1.44532
 30
0.0
 40
0
 41
0
  0
VERTEX
  8
0
 10
0.308811
 20
1.45464
 30
0.0
 40
0
 41
0
  0
SEQEND
 8
0
  0
POLYLINE
  8
0
 62
     173
 66
     1
 10
0
 20
0
 30
0.0
 70
     1
 40
0
 41
0
  0
VERTEX
  8
0
 10
0.375706
 20
0.530436
 30
0.0
 40
0
 41
0
  0
VERTEX
  8
0
 10
0.371799
 20
0.539822
 30
0.0
 40
0
 41
0
  0
VERTEX
  8
0
 10
0.363226
 20
0.542969
 30
0.0
 40
0
 41
0
  0
VERTEX
  8
0
 10
0.354601
 20
0.539822
 30
0.0
 40
0
 41
0
  0
VERTEX
  8
0
 10
0.350749
 20
0.530436
 30
0.0
 40
0
 41
0
  0
VERTEX
  8
0
 10
0.354601
 20
0.521104
 30
0.0
 40
0
 41
0
  0
VERTEX
  8
0
 10
0.363226
 20
0.517958
 30
0.0
 40
0
 41
0
  0
VERTEX
  8
0
 10
0.371799
 20
0.521104
 30
0.0
 40
0
 41
0
  0
VERTEX
  8
0
 10
0.375706
 20
0.530436
 30
0.0
 40
0
 41
0
  0
SEQEND
 8
0
  0
POLYLINE
  8
0
 62
     173
 66
     1
 10
0
 20
0
 30
0.0
 70
     1
 40
0
 41
0
  0
VERTEX
  8
0
 10
0.375706
 20
0.370443
 30
0.0
 40
0
 41
0
  0
VERTEX
  8
0
 10
0.371799
 20
0.379829
 30
0.0
 40
0
 41
0
  0
VERTEX
  8
0
 10
0.363226
 20
0.382975
 30
0.0
 40
0
 41
0
  0
VERTEX
  8
0
 10
0.354601
 20
0.379829
 30
0.0
 40
0
 41
0
  0
VERTEX
  8
0
 10
0.350749
 20
0.370443
 30
0.0
 40
0
 41
0
  0
VERTEX
  8
0
 10
0.354601
 20
0.361111
 30
0.0
 40
0
 41
0
  0
VERTEX
  8
0
 10
0.363226
 20
0.357964
 30
0.0
 40
0
 41
0
  0
VERTEX
  8
0
 10
0.371799
 20
0.361111
 30
0.0
 40
0
 41
0
  0
VERTEX
  8
0
 10
0.375706
 20
0.370443
 30
0.0
 40
0
 41
0
  0
SEQEND
 8
0
  0
POLYLINE
  8
0
 62
     173
 66
     1
 10
0
 20
0
 30
0.0
 70
     1
 40
0
 41
0
  0
VERTEX
  8
0
 10
0.375706
 20
0.195421
 30
0.0
 40
0
 41
0
  0
VERTEX
  8
0
 10
0.371799
 20
0.204861
 30
0.0
 40
0
 41
0
  0
VERTEX
  8
0
 10
0.363226
 20
0.207954
 30
0.0
 40
0
 41
0
  0
VERTEX
  8
0
 10
0.354601
 20
0.204861
 30
0.0
 40
0
 41
0
  0
VERTEX
  8
0
 10
0.350749
 20
0.195421
 30
0.0
 40
0
 41
0
  0
VERTEX
  8
0
 10
0.354601
 20
0.186089
 30
0.0
 40
0
 41
0
  0
VERTEX
  8
0
 10
0.363226
 20
0.182943
 30
0.0
 40
0
 41
0
  0
VERTEX
  8
0
 10
0.371799
 20
0.186089
 30
0.0
 40
0
 41
0
  0
VERTEX
  8
0
 10
0.375706
 20
0.195421
 30
0.0
 40
0
 41
0
  0
SEQEND
 8
0
  0
POLYLINE
  8
0
 62
     173
 66
     1
 10
0
 20
0
 30
0.0
 70
     1
 40
0
 41
0
  0
VERTEX
  8
0
 10
0.393826
 20
1.23866
 30
0.0
 40
0
 41
0
  0
VERTEX
  8
0
 10
0.389865
 20
1.24805
 30
0.0
 40
0
 41
0
  0
VERTEX
  8
0
 10
0.381293
 20
1.25119
 30
0.0
 40
0
 41
0
  0
VERTEX
  8
0
 10
0.372721
 20
1.24805
 30
0.0
 40
0
 41
0
  0
VERTEX
  8
0
 10
0.368815
 20
1.23866
 30
0.0
 40
0
 41
0
  0
VERTEX
  8
0
 10
0.372721
 20
1.22927
 30
0.0
 40
0
 41
0
  0
VERTEX
  8
0
 10
0.381293
 20
1.22613
 30
0.0
 40
0
 41
0
  0
VERTEX
  8
0
 10
0.389865
 20
1.22927
 30
0.0
 40
0
 41
0
  0
VERTEX
  8
0
 10
0.393826
 20
1.23866
 30
0.0
 40
0
 41
0
  0
SEQEND
 8
0
  0
POLYLINE
  8
0
 62
     173
 66
     1
 10
0
 20
0
 30
0.0
 70
     1
 40
0
 41
0
  0
VERTEX
  8
0
 10
0.404731
 20
1.35965
 30
0.0
 40
0
 41
0
  0
VERTEX
  8
0
 10
0.400771
 20
1.36903
 30
0.0
 40
0
 41
0
  0
VERTEX
  8
0
 10
0.392199
 20
1.37218
 30
0.0
 40
0
 41
0
  0
VERTEX
  8
0
 10
0.383626
 20
1.36903
 30
0.0
 40
0
 41
0
  0
VERTEX
  8
0
 10
0.379719
 20
1.35965
 30
0.0
 40
0
 41
0
  0
VERTEX
  8
0
 10
0.383626
 20
1.35032
 30
0.0
 40
0
 41
0
  0
VERTEX
  8
0
 10
0.392199
 20
1.34717
 30
0.0
 40
0
 41
0
  0
VERTEX
  8
0
 10
0.400771
 20
1.35032
 30
0.0
 40
0
 41
0
  0
VERTEX
  8
0
 10
0.404731
 20
1.35965
 30
0.0
 40
0
 41
0
  0
SEQEND
 8
0
  0
POLYLINE
  8
0
 62
     173
 66
     1
 10
0
 20
0
 30
0.0
 70
     1
 40
0
 41
0
  0
VERTEX
  8
0
 10
0.407497
 20
0.829644
 30
0.0
 40
0
 41
0
  0
VERTEX
  8
0
 10
0.403592
 20
0.839031
 30
0.0
 40
0
 41
0
  0
VERTEX
  8
0
 10
0.395019
 20
0.842176
 30
0.0
 40
0
 41
0
  0
VERTEX
  8
0
 10
0.386393
 20
0.839031
 30
0.0
 40
0
 41
0
  0
VERTEX
  8
0
 10
0.382542
 20
0.829644
 30
0.0
 40
0
 41
0
  0
VERTEX
  8
0
 10
0.386393
 20
0.820313
 30
0.0
 40
0
 41
0
  0
VERTEX
  8
0
 10
0.395019
 20
0.817165
 30
0.0
 40
0
 41
0
  0
VERTEX
  8
0
 10
0.403592
 20
0.820313
 30
0.0
 40
0
 41
0
  0
VERTEX
  8
0
 10
0.407497
 20
0.829644
 30
0.0
 40
0
 41
0
  0
SEQEND
 8
0
  0
POLYLINE
  8
0
 62
     173
 66
     1
 10
0
 20
0
 30
0.0
 70
     1
 40
0
 41
0
  0
VERTEX
  8
0
 10
0.443847
 20
1.09966
 30
0.0
 40
0
 41
0
  0
VERTEX
  8
0
 10
0.439888
 20
1.10905
 30
0.0
 40
0
 41
0
  0
VERTEX
  8
0
 10
0.431315
 20
1.1122
 30
0.0
 40
0
 41
0
  0
VERTEX
  8
0
 10
0.422743
 20
1.10905
 30
0.0
 40
0
 41
0
  0
VERTEX
  8
0
 10
0.418837
 20
1.09966
 30
0.0
 40
0
 41
0
  0
VERTEX
  8
0
 10
0.422743
 20
1.09028
 30
0.0
 40
0
 41
0
  0
VERTEX
  8
0
 10
0.431315
 20
1.08713
 30
0.0
 40
0
 41
0
  0
VERTEX
  8
0
 10
0.439888
 20
1.09028
 30
0.0
 40
0
 41
0
  0
VERTEX
  8
0
 10
0.443847
 20
1.09966
 30
0.0
 40
0
 41
0
  0
SEQEND
 8
0
  0
POLYLINE
  8
0
 62
     173
 66
     1
 10
0
 20
0
 30
0.0
 70
     1
 40
0
 41
0
  0
VERTEX
  8
0
 10
0.468804
 20
0.999621
 30
0.0
 40
0
 41
0
  0
VERTEX
  8
0
 10
0.464899
 20
1.00906
 30
0.0
 40
0
 41
0
  0
VERTEX
  8
0
 10
0.456326
 20
1.01215
 30
0.0
 40
0
 41
0
  0
VERTEX
  8
0
 10
0.4477
 20
1.00906
 30
0.0
 40
0
 41
0
  0
VERTEX
  8
0
 10
0.443847
 20
0.999621
 30
0.0
 40
0
 41
0
  0
VERTEX
  8
0
 10
0.4477
 20
0.990289
 30
0.0
 40
0
 41
0
  0
VERTEX
  8
0
 10
0.456326
 20
0.987142
 30
0.0
 40
0
 41
0
  0
VERTEX
  8
0
 10
0.464899
 20
0.990289
 30
0.0
 40
0
 41
0
  0
VERTEX
  8
0
 10
0.468804
 20
0.999621
 30
0.0
 40
0
 41
0
  0
SEQEND
 8
0
  0
POLYLINE
  8
0
 62
     173
 66
     1
 10
0
 20
0
 30
0.0
 70
     1
 40
0
 41
0
  0
VERTEX
  8
0
 10
0.483832
 20
1.38466
 30
0.0
 40
0
 41
0
  0
VERTEX
  8
0
 10
0.479872
 20
1.39404
 30
0.0
 40
0
 41
0
  0
VERTEX
  8
0
 10
0.4713
 20
1.39719
 30
0.0
 40
0
 41
0
  0
VERTEX
  8
0
 10
0.462728
 20
1.39404
 30
0.0
 40
0
 41
0
  0
VERTEX
  8
0
 10
0.458822
 20
1.38466
 30
0.0
 40
0
 41
0
  0
VERTEX
  8
0
 10
0.462728
 20
1.37533
 30
0.0
 40
0
 41
0
  0
VERTEX
  8
0
 10
0.4713
 20
1.37218
 30
0.0
 40
0
 41
0
  0
VERTEX
  8
0
 10
0.479872
 20
1.37533
 30
0.0
 40
0
 41
0
  0
VERTEX
  8
0
 10
0.483832
 20
1.38466
 30
0.0
 40
0
 41
0
  0
SEQEND
 8
0
  0
POLYLINE
  8
0
 62
     173
 66
     1
 10
0
 20
0
 30
0.0
 70
     1
 40
0
 41
0
  0
VERTEX
  8
0
 10
0.558811
 20
1.02962
 30
0.0
 40
0
 41
0
  0
VERTEX
  8
0
 10
0.55485
 20
1.03906
 30
0.0
 40
0
 41
0
  0
VERTEX
  8
0
 10
0.546278
 20
1.04216
 30
0.0
 40
0
 41
0
  0
VERTEX
  8
0
 10
0.537706
 20
1.03906
 30
0.0
 40
0
 41
0
  0
VERTEX
  8
0
 10
0.5338
 20
1.02962
 30
0.0
 40
0
 41
0
  0
VERTEX
  8
0
 10
0.537706
 20
1.02029
 30
0.0
 40
0
 41
0
  0
VERTEX
  8
0
 10
0.546278
 20
1.01714
 30
0.0
 40
0
 41
0
  0
VERTEX
  8
0
 10
0.55485
 20
1.02029
 30
0.0
 40
0
 41
0
  0
VERTEX
  8
0
 10
0.558811
 20
1.02962
 30
0.0
 40
0
 41
0
  0
SEQEND
 8
0
  0
POLYLINE
  8
0
 62
     173
 66
     1
 10
0
 20
0
 30
0.0
 70
     1
 40
0
 41
0
  0
VERTEX
  8
0
 10
0.573839
 20
1.24962
 30
0.0
 40
0
 41
0
  0
VERTEX
  8
0
 10
0.569879
 20
1.25906
 30
0.0
 40
0
 41
0
  0
VERTEX
  8
0
 10
0.561307
 20
1.26215
 30
0.0
 40
0
 41
0
  0
VERTEX
  8
0
 10
0.552735
 20
1.25906
 30
0.0
 40
0
 41
0
  0
VERTEX
  8
0
 10
0.548828
 20
1.24962
 30
0.0
 40
0
 41
0
  0
VERTEX
  8
0
 10
0.552735
 20
1.24029
 30
0.0
 40
0
 41
0
  0
VERTEX
  8
0
 10
0.561307
 20
1.23714
 30
0.0
 40
0
 41
0
  0
VERTEX
  8
0
 10
0.569879
 20
1.24029
 30
0.0
 40
0
 41
0
  0
VERTEX
  8
0
 10
0.573839
 20
1.24962
 30
0.0
 40
0
 41
0
  0
SEQEND
 8
0
  0
POLYLINE
  8
0
 62
     173
 66
     1
 10
0
 20
0
 30
0.0
 70
     1
 40
0
 41
0
  0
VERTEX
  8
0
 10
0.608832
 20
1.09966
 30
0.0
 40
0
 41
0
  0
VERTEX
  8
0
 10
0.604872
 20
1.10905
 30
0.0
 40
0
 41
0
  0
VERTEX
  8
0
 10
0.5963
 20
1.1122
 30
0.0
 40
0
 41
0
  0
VERTEX
  8
0
 10
0.587728
 20
1.10905
 30
0.0
 40
0
 41
0
  0
VERTEX
  8
0
 10
0.583822
 20
1.09966
 30
0.0
 40
0
 41
0
  0
VERTEX
  8
0
 10
0.587728
 20
1.09028
 30
0.0
 40
0
 41
0
  0
VERTEX
  8
0
 10
0.5963
 20
1.08713
 30
0.0
 40
0
 41
0
  0
VERTEX
  8
0
 10
0.604872
 20
1.09028
 30
0.0
 40
0
 41
0
  0
VERTEX
  8
0
 10
0.608832
 20
1.09966
 30
0.0
 40
0
 41
0
  0
SEQEND
 8
0
  0
POLYLINE
  8
0
 62
     173
 66
     1
 10
0
 20
0
 30
0.0
 70
     1
 40
0
 41
0
  0
VERTEX
  8
0
 10
0.613824
 20
0.149631
 30
0.0
 40
0
 41
0
  0
VERTEX
  8
0
 10
0.609864
 20
0.159017
 30
0.0
 40
0
 41
0
  0
VERTEX
  8
0
 10
0.601292
 20
0.162164
 30
0.0
 40
0
 41
0
  0
VERTEX
  8
0
 10
0.592719
 20
0.159017
 30
0.0
 40
0
 41
0
  0
VERTEX
  8
0
 10
0.588813
 20
0.149631
 30
0.0
 40
0
 41
0
  0
VERTEX
  8
0
 10
0.592719
 20
0.1403
 30
0.0
 40
0
 41
0
  0
VERTEX
  8
0
 10
0.601292
 20
0.137153
 30
0.0
 40
0
 41
0
  0
VERTEX
  8
0
 10
0.609864
 20
0.1403
 30
0.0
 40
0
 41
0
  0
VERTEX
  8
0
 10
0.613824
 20
0.149631
 30
0.0
 40
0
 41
0
  0
SEQEND
 8
0
  0
POLYLINE
  8
0
 62
     173
 66
     1
 10
0
 20
0
 30
0.0
 70
     1
 40
0
 41
0
  0
VERTEX
  8
0
 10
0.643826
 20
1.02962
 30
0.0
 40
0
 41
0
  0
VERTEX
  8
0
 10
0.639865
 20
1.03906
 30
0.0
 40
0
 41
0
  0
VERTEX
  8
0
 10
0.631293
 20
1.04216
 30
0.0
 40
0
 41
0
  0
VERTEX
  8
0
 10
0.622721
 20
1.03906
 30
0.0
 40
0
 41
0
  0
VERTEX
  8
0
 10
0.618815
 20
1.02962
 30
0.0
 40
0
 41
0
  0
VERTEX
  8
0
 10
0.622721
 20
1.02029
 30
0.0
 40
0
 41
0
  0
VERTEX
  8
0
 10
0.631293
 20
1.01714
 30
0.0
 40
0
 41
0
  0
VERTEX
  8
0
 10
0.639865
 20
1.02029
 30
0.0
 40
0
 41
0
  0
VERTEX
  8
0
 10
0.643826
 20
1.02962
 30
0.0
 40
0
 41
0
  0
SEQEND
 8
0
  0
POLYLINE
  8
0
 62
     173
 66
     1
 10
0
 20
0
 30
0.0
 70
     1
 40
0
 41
0
  0
VERTEX
  8
0
 10
0.673828
 20
1.15462
 30
0.0
 40
0
 41
0
  0
VERTEX
  8
0
 10
0.669868
 20
1.16406
 30
0.0
 40
0
 41
0
  0
VERTEX
  8
0
 10
0.661296
 20
1.16716
 30
0.0
 40
0
 41
0
  0
VERTEX
  8
0
 10
0.652724
 20
1.16406
 30
0.0
 40
0
 41
0
  0
VERTEX
  8
0
 10
0.648817
 20
1.15462
 30
0.0
 40
0
 41
0
  0
VERTEX
  8
0
 10
0.652724
 20
1.14529
 30
0.0
 40
0
 41
0
  0
VERTEX
  8
0
 10
0.661296
 20
1.14214
 30
0.0
 40
0
 41
0
  0
VERTEX
  8
0
 10
0.669868
 20
1.14529
 30
0.0
 40
0
 41
0
  0
VERTEX
  8
0
 10
0.673828
 20
1.15462
 30
0.0
 40
0
 41
0
  0
SEQEND
 8
0
  0
POLYLINE
  8
0
 62
     173
 66
     1
 10
0
 20
0
 30
0.0
 70
     1
 40
0
 41
0
  0
VERTEX
  8
0
 10
0.674425
 20
0.599664
 30
0.0
 40
0
 41
0
  0
VERTEX
  8
0
 10
0.670464
 20
0.60905
 30
0.0
 40
0
 41
0
  0
VERTEX
  8
0
 10
0.661893
 20
0.612196
 30
0.0
 40
0
 41
0
  0
VERTEX
  8
0
 10
0.653321
 20
0.60905
 30
0.0
 40
0
 41
0
  0
VERTEX
  8
0
 10
0.649414
 20
0.599664
 30
0.0
 40
0
 41
0
  0
VERTEX
  8
0
 10
0.653321
 20
0.590278
 30
0.0
 40
0
 41
0
  0
VERTEX
  8
0
 10
0.661893
 20
0.587131
 30
0.0
 40
0
 41
0
  0
VERTEX
  8
0
 10
0.670464
 20
0.590278
 30
0.0
 40
0
 41
0
  0
VERTEX
  8
0
 10
0.674425
 20
0.599664
 30
0.0
 40
0
 41
0
  0
SEQEND
 8
0
  0
POLYLINE
  8
0
 62
     173
 66
     1
 10
0
 20
0
 30
0.0
 70
     1
 40
0
 41
0
  0
VERTEX
  8
0
 10
0.678819
 20
1.52963
 30
0.0
 40
0
 41
0
  0
VERTEX
  8
0
 10
0.674858
 20
1.53907
 30
0.0
 40
0
 41
0
  0
VERTEX
  8
0
 10
0.666287
 20
1.54215
 30
0.0
 40
0
 41
0
  0
VERTEX
  8
0
 10
0.657715
 20
1.53907
 30
0.0
 40
0
 41
0
  0
VERTEX
  8
0
 10
0.653808
 20
1.52963
 30
0.0
 40
0
 41
0
  0
VERTEX
  8
0
 10
0.657715
 20
1.52029
 30
0.0
 40
0
 41
0
  0
VERTEX
  8
0
 10
0.666287
 20
1.51714
 30
0.0
 40
0
 41
0
  0
VERTEX
  8
0
 10
0.674858
 20
1.52029
 30
0.0
 40
0
 41
0
  0
VERTEX
  8
0
 10
0.678819
 20
1.52963
 30
0.0
 40
0
 41
0
  0
SEQEND
 8
0
  0
POLYLINE
  8
0
 62
     173
 66
     1
 10
0
 20
0
 30
0.0
 70
     1
 40
0
 41
0
  0
VERTEX
  8
0
 10
0.688803
 20
1.28467
 30
0.0
 40
0
 41
0
  0
VERTEX
  8
0
 10
0.684896
 20
1.29405
 30
0.0
 40
0
 41
0
  0
VERTEX
  8
0
 10
0.676324
 20
1.2972
 30
0.0
 40
0
 41
0
  0
VERTEX
  8
0
 10
0.667697
 20
1.29405
 30
0.0
 40
0
 41
0
  0
VERTEX
  8
0
 10
0.663846
 20
1.28467
 30
0.0
 40
0
 41
0
  0
VERTEX
  8
0
 10
0.667697
 20
1.27528
 30
0.0
 40
0
 41
0
  0
VERTEX
  8
0
 10
0.676324
 20
1.27214
 30
0.0
 40
0
 41
0
  0
VERTEX
  8
0
 10
0.684896
 20
1.27528
 30
0.0
 40
0
 41
0
  0
VERTEX
  8
0
 10
0.688803
 20
1.28467
 30
0.0
 40
0
 41
0
  0
SEQEND
 8
0
  0
POLYLINE
  8
0
 62
     173
 66
     1
 10
0
 20
0
 30
0.0
 70
     1
 40
0
 41
0
  0
VERTEX
  8
0
 10
0.698839
 20
0.799642
 30
0.0
 40
0
 41
0
  0
VERTEX
  8
0
 10
0.694879
 20
0.809028
 30
0.0
 40
0
 41
0
  0
VERTEX
  8
0
 10
0.686307
 20
0.812175
 30
0.0
 40
0
 41
0
  0
VERTEX
  8
0
 10
0.677735
 20
0.809028
 30
0.0
 40
0
 41
0
  0
VERTEX
  8
0
 10
0.673828
 20
0.799642
 30
0.0
 40
0
 41
0
  0
VERTEX
  8
0
 10
0.677735
 20
0.79031
 30
0.0
 40
0
 41
0
  0
VERTEX
  8
0
 10
0.686307
 20
0.787164
 30
0.0
 40
0
 41
0
  0
VERTEX
  8
0
 10
0.694879
 20
0.79031
 30
0.0
 40
0
 41
0
  0
VERTEX
  8
0
 10
0.698839
 20
0.799642
 30
0.0
 40
0
 41
0
  0
SEQEND
 8
0
  0
POLYLINE
  8
0
 62
     173
 66
     1
 10
0
 20
0
 30
0.0
 70
     1
 40
0
 41
0
  0
VERTEX
  8
0
 10
0.760146
 20
1.33832
 30
0.0
 40
0
 41
0
  0
VERTEX
  8
0
 10
0.756185
 20
1.34777
 30
0.0
 40
0
 41
0
  0
VERTEX
  8
0
 10
0.747612
 20
1.35086
 30
0.0
 40
0
 41
0
  0
VERTEX
  8
0
 10
0.73904
 20
1.34777
 30
0.0
 40
0
 41
0
  0
VERTEX
  8
0
 10
0.735135
 20
1.33832
 30
0.0
 40
0
 41
0
  0
VERTEX
  8
0
 10
0.73904
 20
1.32899
 30
0.0
 40
0
 41
0
  0
VERTEX
  8
0
 10
0.747612
 20
1.32585
 30
0.0
 40
0
 41
0
  0
VERTEX
  8
0
 10
0.756185
 20
1.32899
 30
0.0
 40
0
 41
0
  0
VERTEX
  8
0
 10
0.760146
 20
1.33832
 30
0.0
 40
0
 41
0
  0
SEQEND
 8
0
  0
POLYLINE
  8
0
 62
     173
 66
     1
 10
0
 20
0
 30
0.0
 70
     1
 40
0
 41
0
  0
VERTEX
  8
0
 10
0.800131
 20
1.56338
 30
0.0
 40
0
 41
0
  0
VERTEX
  8
0
 10
0.796169
 20
1.57275
 30
0.0
 40
0
 41
0
  0
VERTEX
  8
0
 10
0.787597
 20
1.5759
 30
0.0
 40
0
 41
0
  0
VERTEX
  8
0
 10
0.779025
 20
1.57275
 30
0.0
 40
0
 41
0
  0
VERTEX
  8
0
 10
0.775119
 20
1.56338
 30
0.0
 40
0
 41
0
  0
VERTEX
  8
0
 10
0.779025
 20
1.55399
 30
0.0
 40
0
 41
0
  0
VERTEX
  8
0
 10
0.787597
 20
1.55083
 30
0.0
 40
0
 41
0
  0
VERTEX
  8
0
 10
0.796169
 20
1.55399
 30
0.0
 40
0
 41
0
  0
VERTEX
  8
0
 10
0.800131
 20
1.56338
 30
0.0
 40
0
 41
0
  0
SEQEND
 8
0
  0
POLYLINE
  8
0
 62
     173
 66
     1
 10
0
 20
0
 30
0.0
 70
     1
 40
0
 41
0
  0
VERTEX
  8
0
 10
0.868815
 20
1.05463
 30
0.0
 40
0
 41
0
  0
VERTEX
  8
0
 10
0.864854
 20
1.06402
 30
0.0
 40
0
 41
0
  0
VERTEX
  8
0
 10
0.856282
 20
1.06717
 30
0.0
 40
0
 41
0
  0
VERTEX
  8
0
 10
0.847711
 20
1.06402
 30
0.0
 40
0
 41
0
  0
VERTEX
  8
0
 10
0.843804
 20
1.05463
 30
0.0
 40
0
 41
0
  0
VERTEX
  8
0
 10
0.847711
 20
1.0453
 30
0.0
 40
0
 41
0
  0
VERTEX
  8
0
 10
0.856282
 20
1.04216
 30
0.0
 40
0
 41
0
  0
VERTEX
  8
0
 10
0.864854
 20
1.0453
 30
0.0
 40
0
 41
0
  0
VERTEX
  8
0
 10
0.868815
 20
1.05463
 30
0.0
 40
0
 41
0
  0
SEQEND
 8
0
  0
POLYLINE
  8
0
 62
     173
 66
     1
 10
0
 20
0
 30
0.0
 70
     1
 40
0
 41
0
  0
VERTEX
  8
0
 10
0.873807
 20
0.53966
 30
0.0
 40
0
 41
0
  0
VERTEX
  8
0
 10
0.8699
 20
0.549046
 30
0.0
 40
0
 41
0
  0
VERTEX
  8
0
 10
0.861328
 20
0.552192
 30
0.0
 40
0
 41
0
  0
VERTEX
  8
0
 10
0.852701
 20
0.549046
 30
0.0
 40
0
 41
0
  0
VERTEX
  8
0
 10
0.84885
 20
0.53966
 30
0.0
 40
0
 41
0
  0
VERTEX
  8
0
 10
0.852701
 20
0.530274
 30
0.0
 40
0
 41
0
  0
VERTEX
  8
0
 10
0.861328
 20
0.527126
 30
0.0
 40
0
 41
0
  0
VERTEX
  8
0
 10
0.8699
 20
0.530274
 30
0.0
 40
0
 41
0
  0
VERTEX
  8
0
 10
0.873807
 20
0.53966
 30
0.0
 40
0
 41
0
  0
SEQEND
 8
0
  0
POLYLINE
  8
0
 62
     173
 66
     1
 10
0
 20
0
 30
0.0
 70
     1
 40
0
 41
0
  0
VERTEX
  8
0
 10
0.905111
 20
0.738336
 30
0.0
 40
0
 41
0
  0
VERTEX
  8
0
 10
0.90115
 20
0.747721
 30
0.0
 40
0
 41
0
  0
VERTEX
  8
0
 10
0.892578
 20
0.750868
 30
0.0
 40
0
 41
0
  0
VERTEX
  8
0
 10
0.884006
 20
0.747721
 30
0.0
 40
0
 41
0
  0
VERTEX
  8
0
 10
0.8801
 20
0.738336
 30
0.0
 40
0
 41
0
  0
VERTEX
  8
0
 10
0.884006
 20
0.729004
 30
0.0
 40
0
 41
0
  0
VERTEX
  8
0
 10
0.892578
 20
0.725857
 30
0.0
 40
0
 41
0
  0
VERTEX
  8
0
 10
0.90115
 20
0.729004
 30
0.0
 40
0
 41
0
  0
VERTEX
  8
0
 10
0.905111
 20
0.738336
 30
0.0
 40
0
 41
0
  0
SEQEND
 8
0
  0
POLYLINE
  8
0
 62
     173
 66
     1
 10
0
 20
0
 30
0.0
 70
     1
 40
0
 41
0
  0
VERTEX
  8
0
 10
0.918838
 20
1.52963
 30
0.0
 40
0
 41
0
  0
VERTEX
  8
0
 10
0.914876
 20
1.53907
 30
0.0
 40
0
 41
0
  0
VERTEX
  8
0
 10
0.906304
 20
1.54215
 30
0.0
 40
0
 41
0
  0
VERTEX
  8
0
 10
0.897732
 20
1.53907
 30
0.0
 40
0
 41
0
  0
VERTEX
  8
0
 10
0.893826
 20
1.52963
 30
0.0
 40
0
 41
0
  0
VERTEX
  8
0
 10
0.897732
 20
1.52029
 30
0.0
 40
0
 41
0
  0
VERTEX
  8
0
 10
0.906304
 20
1.51714
 30
0.0
 40
0
 41
0
  0
VERTEX
  8
0
 10
0.914876
 20
1.52029
 30
0.0
 40
0
 41
0
  0
VERTEX
  8
0
 10
0.918838
 20
1.52963
 30
0.0
 40
0
 41
0
  0
SEQEND
 8
0
  0
POLYLINE
  8
0
 62
     173
 66
     1
 10
0
 20
0
 30
0.0
 70
     1
 40
0
 41
0
  0
VERTEX
  8
0
 10
0.953831
 20
1.05463
 30
0.0
 40
0
 41
0
  0
VERTEX
  8
0
 10
0.949869
 20
1.06402
 30
0.0
 40
0
 41
0
  0
VERTEX
  8
0
 10
0.941297
 20
1.06717
 30
0.0
 40
0
 41
0
  0
VERTEX
  8
0
 10
0.932726
 20
1.06402
 30
0.0
 40
0
 41
0
  0
VERTEX
  8
0
 10
0.928819
 20
1.05463
 30
0.0
 40
0
 41
0
  0
VERTEX
  8
0
 10
0.932726
 20
1.0453
 30
0.0
 40
0
 41
0
  0
VERTEX
  8
0
 10
0.941297
 20
1.04216
 30
0.0
 40
0
 41
0
  0
VERTEX
  8
0
 10
0.949869
 20
1.0453
 30
0.0
 40
0
 41
0
  0
VERTEX
  8
0
 10
0.953831
 20
1.05463
 30
0.0
 40
0
 41
0
  0
SEQEND
 8
0
  0
POLYLINE
  8
0
 62
     173
 66
     1
 10
0
 20
0
 30
0.0
 70
     1
 40
0
 41
0
  0
VERTEX
  8
0
 10
0.958822
 20
1.39963
 30
0.0
 40
0
 41
0
  0
VERTEX
  8
0
 10
0.954861
 20
1.40901
 30
0.0
 40
0
 41
0
  0
VERTEX
  8
0
 10
0.946289
 20
1.41217
 30
0.0
 40
0
 41
0
  0
VERTEX
  8
0
 10
0.937717
 20
1.40901
 30
0.0
 40
0
 41
0
  0
VERTEX
  8
0
 10
0.933811
 20
1.39963
 30
0.0
 40
0
 41
0
  0
VERTEX
  8
0
 10
0.937717
 20
1.39031
 30
0.0
 40
0
 41
0
  0
VERTEX
  8
0
 10
0.946289
 20
1.38715
 30
0.0
 40
0
 41
0
  0
VERTEX
  8
0
 10
0.954861
 20
1.39031
 30
0.0
 40
0
 41
0
  0
VERTEX
  8
0
 10
0.958822
 20
1.39963
 30
0.0
 40
0
 41
0
  0
SEQEND
 8
0
  0
POLYLINE
  8
0
 62
     173
 66
     1
 10
0
 20
0
 30
0.0
 70
     1
 40
0
 41
0
  0
VERTEX
  8
0
 10
0.970703
 20
0.645942
 30
0.0
 40
0
 41
0
  0
VERTEX
  8
0
 10
0.966797
 20
0.655328
 30
0.0
 40
0
 41
0
  0
VERTEX
  8
0
 10
0.958225
 20
0.658475
 30
0.0
 40
0
 41
0
  0
VERTEX
  8
0
 10
0.949599
 20
0.655328
 30
0.0
 40
0
 41
0
  0
VERTEX
  8
0
 10
0.945747
 20
0.645942
 30
0.0
 40
0
 41
0
  0
VERTEX
  8
0
 10
0.949599
 20
0.63661
 30
0.0
 40
0
 41
0
  0
VERTEX
  8
0
 10
0.958225
 20
0.633464
 30
0.0
 40
0
 41
0
  0
VERTEX
  8
0
 10
0.966797
 20
0.63661
 30
0.0
 40
0
 41
0
  0
VERTEX
  8
0
 10
0.970703
 20
0.645942
 30
0.0
 40
0
 41
0
  0
SEQEND
 8
0
  0
POLYLINE
  8
0
 62
     173
 66
     1
 10
0
 20
0
 30
0.0
 70
     1
 40
0
 41
0
  0
VERTEX
  8
0
 10
0.985135
 20
0.718317
 30
0.0
 40
0
 41
0
  0
VERTEX
  8
0
 10
0.981174
 20
0.727756
 30
0.0
 40
0
 41
0
  0
VERTEX
  8
0
 10
0.972601
 20
0.730849
 30
0.0
 40
0
 41
0
  0
VERTEX
  8
0
 10
0.964031
 20
0.727756
 30
0.0
 40
0
 41
0
  0
VERTEX
  8
0
 10
0.960124
 20
0.718317
 30
0.0
 40
0
 41
0
  0
VERTEX
  8
0
 10
0.964031
 20
0.708985
 30
0.0
 40
0
 41
0
  0
VERTEX
  8
0
 10
0.972601
 20
0.705838
 30
0.0
 40
0
 41
0
  0
VERTEX
  8
0
 10
0.981174
 20
0.708985
 30
0.0
 40
0
 41
0
  0
VERTEX
  8
0
 10
0.985135
 20
0.718317
 30
0.0
 40
0
 41
0
  0
SEQEND
 8
0
  0
POLYLINE
  8
0
 62
     173
 66
     1
 10
0
 20
0
 30
0.0
 70
     1
 40
0
 41
0
  0
VERTEX
  8
0
 10
0.993815
 20
1.28592
 30
0.0
 40
0
 41
0
  0
VERTEX
  8
0
 10
0.989854
 20
1.29536
 30
0.0
 40
0
 41
0
  0
VERTEX
  8
0
 10
0.981282
 20
1.29845
 30
0.0
 40
0
 41
0
  0
VERTEX
  8
0
 10
0.972711
 20
1.29536
 30
0.0
 40
0
 41
0
  0
VERTEX
  8
0
 10
0.968804
 20
1.28592
 30
0.0
 40
0
 41
0
  0
VERTEX
  8
0
 10
0.972711
 20
1.27658
 30
0.0
 40
0
 41
0
  0
VERTEX
  8
0
 10
0.981282
 20
1.27344
 30
0.0
 40
0
 41
0
  0
VERTEX
  8
0
 10
0.989854
 20
1.27658
 30
0.0
 40
0
 41
0
  0
VERTEX
  8
0
 10
0.993815
 20
1.28592
 30
0.0
 40
0
 41
0
  0
SEQEND
 8
0
  0
POLYLINE
  8
0
 62
     173
 66
     1
 10
0
 20
0
 30
0.0
 70
     1
 40
0
 41
0
  0
VERTEX
  8
0
 10
0.993815
 20
0.779622
 30
0.0
 40
0
 41
0
  0
VERTEX
  8
0
 10
0.989854
 20
0.789063
 30
0.0
 40
0
 41
0
  0
VERTEX
  8
0
 10
0.981282
 20
0.792156
 30
0.0
 40
0
 41
0
  0
VERTEX
  8
0
 10
0.972711
 20
0.789063
 30
0.0
 40
0
 41
0
  0
VERTEX
  8
0
 10
0.968804
 20
0.779622
 30
0.0
 40
0
 41
0
  0
VERTEX
  8
0
 10
0.972711
 20
0.77029
 30
0.0
 40
0
 41
0
  0
VERTEX
  8
0
 10
0.981282
 20
0.767144
 30
0.0
 40
0
 41
0
  0
VERTEX
  8
0
 10
0.989854
 20
0.77029
 30
0.0
 40
0
 41
0
  0
VERTEX
  8
0
 10
0.993815
 20
0.779622
 30
0.0
 40
0
 41
0
  0
SEQEND
 8
0
  0
POLYLINE
  8
0
 62
     173
 66
     1
 10
0
 20
0
 30
0.0
 70
     1
 40
0
 41
0
  0
VERTEX
  8
0
 10
1.03011
 20
1.37332
 30
0.0
 40
0
 41
0
  0
VERTEX
  8
0
 10
1.02615
 20
1.38276
 30
0.0
 40
0
 41
0
  0
VERTEX
  8
0
 10
1.01758
 20
1.38585
 30
0.0
 40
0
 41
0
  0
VERTEX
  8
0
 10
1.00901
 20
1.38276
 30
0.0
 40
0
 41
0
  0
VERTEX
  8
0
 10
1.0051
 20
1.37332
 30
0.0
 40
0
 41
0
  0
VERTEX
  8
0
 10
1.00901
 20
1.36399
 30
0.0
 40
0
 41
0
  0
VERTEX
  8
0
 10
1.01758
 20
1.36084
 30
0.0
 40
0
 41
0
  0
VERTEX
  8
0
 10
1.02615
 20
1.36399
 30
0.0
 40
0
 41
0
  0
VERTEX
  8
0
 10
1.03011
 20
1.37332
 30
0.0
 40
0
 41
0
  0
SEQEND
 8
0
  0
POLYLINE
  8
0
 62
     173
 66
     1
 10
0
 20
0
 30
0.0
 70
     1
 40
0
 41
0
  0
VERTEX
  8
0
 10
1.07514
 20
0.583333
 30
0.0
 40
0
 41
0
  0
VERTEX
  8
0
 10
1.07118
 20
0.592719
 30
0.0
 40
0
 41
0
  0
VERTEX
  8
0
 10
1.06261
 20
0.595865
 30
0.0
 40
0
 41
0
  0
VERTEX
  8
0
 10
1.05404
 20
0.592719
 30
0.0
 40
0
 41
0
  0
VERTEX
  8
0
 10
1.05013
 20
0.583333
 30
0.0
 40
0
 41
0
  0
VERTEX
  8
0
 10
1.05404
 20
0.574001
 30
0.0
 40
0
 41
0
  0
VERTEX
  8
0
 10
1.06261
 20
0.570856
 30
0.0
 40
0
 41
0
  0
VERTEX
  8
0
 10
1.07118
 20
0.574001
 30
0.0
 40
0
 41
0
  0
VERTEX
  8
0
 10
1.07514
 20
0.583333
 30
0.0
 40
0
 41
0
  0
SEQEND
 8
0
  0
POLYLINE
  8
0
 62
     173
 66
     1
 10
0
 20
0
 30
0.0
 70
     1
 40
0
 41
0
  0
VERTEX
  8
0
 10
1.08013
 20
0.823351
 30
0.0
 40
0
 41
0
  0
VERTEX
  8
0
 10
1.07617
 20
0.832736
 30
0.0
 40
0
 41
0
  0
VERTEX
  8
0
 10
1.0676
 20
0.835883
 30
0.0
 40
0
 41
0
  0
VERTEX
  8
0
 10
1.05903
 20
0.832736
 30
0.0
 40
0
 41
0
  0
VERTEX
  8
0
 10
1.05512
 20
0.823351
 30
0.0
 40
0
 41
0
  0
VERTEX
  8
0
 10
1.05903
 20
0.814019
 30
0.0
 40
0
 41
0
  0
VERTEX
  8
0
 10
1.0676
 20
0.810872
 30
0.0
 40
0
 41
0
  0
VERTEX
  8
0
 10
1.07617
 20
0.814019
 30
0.0
 40
0
 41
0
  0
VERTEX
  8
0
 10
1.08013
 20
0.823351
 30
0.0
 40
0
 41
0
  0
SEQEND
 8
0
  0
POLYLINE
  8
0
 62
     173
 66
     1
 10
0
 20
0
 30
0.0
 70
     1
 40
0
 41
0
  0
VERTEX
  8
0
 10
1.08013
 20
0.718317
 30
0.0
 40
0
 41
0
  0
VERTEX
  8
0
 10
1.07617
 20
0.727756
 30
0.0
 40
0
 41
0
  0
VERTEX
  8
0
 10
1.0676
 20
0.730849
 30
0.0
 40
0
 41
0
  0
VERTEX
  8
0
 10
1.05903
 20
0.727756
 30
0.0
 40
0
 41
0
  0
VERTEX
  8
0
 10
1.05512
 20
0.718317
 30
0.0
 40
0
 41
0
  0
VERTEX
  8
0
 10
1.05903
 20
0.708985
 30
0.0
 40
0
 41
0
  0
VERTEX
  8
0
 10
1.0676
 20
0.705838
 30
0.0
 40
0
 41
0
  0
VERTEX
  8
0
 10
1.07617
 20
0.708985
 30
0.0
 40
0
 41
0
  0
VERTEX
  8
0
 10
1.08013
 20
0.718317
 30
0.0
 40
0
 41
0
  0
SEQEND
 8
0
  0
POLYLINE
  8
0
 62
     173
 66
     1
 10
0
 20
0
 30
0.0
 70
     1
 40
0
 41
0
  0
VERTEX
  8
0
 10
1.13883
 20
1.62463
 30
0.0
 40
0
 41
0
  0
VERTEX
  8
0
 10
1.13487
 20
1.63406
 30
0.0
 40
0
 41
0
  0
VERTEX
  8
0
 10
1.1263
 20
1.63715
 30
0.0
 40
0
 41
0
  0
VERTEX
  8
0
 10
1.11773
 20
1.63406
 30
0.0
 40
0
 41
0
  0
VERTEX
  8
0
 10
1.11382
 20
1.62463
 30
0.0
 40
0
 41
0
  0
VERTEX
  8
0
 10
1.11773
 20
1.61529
 30
0.0
 40
0
 41
0
  0
VERTEX
  8
0
 10
1.1263
 20
1.61214
 30
0.0
 40
0
 41
0
  0
VERTEX
  8
0
 10
1.13487
 20
1.61529
 30
0.0
 40
0
 41
0
  0
VERTEX
  8
0
 10
1.13883
 20
1.62463
 30
0.0
 40
0
 41
0
  0
SEQEND
 8
0
  0
POLYLINE
  8
0
 62
     173
 66
     1
 10
0
 20
0
 30
0.0
 70
     1
 40
0
 41
0
  0
VERTEX
  8
0
 10
1.13883
 20
1.32465
 30
0.0
 40
0
 41
0
  0
VERTEX
  8
0
 10
1.13487
 20
1.33404
 30
0.0
 40
0
 41
0
  0
VERTEX
  8
0
 10
1.1263
 20
1.33718
 30
0.0
 40
0
 41
0
  0
VERTEX
  8
0
 10
1.11773
 20
1.33404
 30
0.0
 40
0
 41
0
  0
VERTEX
  8
0
 10
1.11382
 20
1.32465
 30
0.0
 40
0
 41
0
  0
VERTEX
  8
0
 10
1.11773
 20
1.31532
 30
0.0
 40
0
 41
0
  0
VERTEX
  8
0
 10
1.1263
 20
1.31218
 30
0.0
 40
0
 41
0
  0
VERTEX
  8
0
 10
1.13487
 20
1.31532
 30
0.0
 40
0
 41
0
  0
VERTEX
  8
0
 10
1.13883
 20
1.32465
 30
0.0
 40
0
 41
0
  0
SEQEND
 8
0
  0
POLYLINE
  8
0
 62
     173
 66
     1
 10
0
 20
0
 30
0.0
 70
     1
 40
0
 41
0
  0
VERTEX
  8
0
 10
1.13883
 20
0.939615
 30
0.0
 40
0
 41
0
  0
VERTEX
  8
0
 10
1.13487
 20
0.949056
 30
0.0
 40
0
 41
0
  0
VERTEX
  8
0
 10
1.1263
 20
0.952149
 30
0.0
 40
0
 41
0
  0
VERTEX
  8
0
 10
1.11773
 20
0.949056
 30
0.0
 40
0
 41
0
  0
VERTEX
  8
0
 10
1.11382
 20
0.939615
 30
0.0
 40
0
 41
0
  0
VERTEX
  8
0
 10
1.11773
 20
0.930285
 30
0.0
 40
0
 41
0
  0
VERTEX
  8
0
 10
1.1263
 20
0.927137
 30
0.0
 40
0
 41
0
  0
VERTEX
  8
0
 10
1.13487
 20
0.930285
 30
0.0
 40
0
 41
0
  0
VERTEX
  8
0
 10
1.13883
 20
0.939615
 30
0.0
 40
0
 41
0
  0
SEQEND
 8
0
  0
POLYLINE
  8
0
 62
     173
 66
     1
 10
0
 20
0
 30
0.0
 70
     1
 40
0
 41
0
  0
VERTEX
  8
0
 10
1.13883
 20
0.529622
 30
0.0
 40
0
 41
0
  0
VERTEX
  8
0
 10
1.13487
 20
0.539063
 30
0.0
 40
0
 41
0
  0
VERTEX
  8
0
 10
1.1263
 20
0.542156
 30
0.0
 40
0
 41
0
  0
VERTEX
  8
0
 10
1.11773
 20
0.539063
 30
0.0
 40
0
 41
0
  0
VERTEX
  8
0
 10
1.11382
 20
0.529622
 30
0.0
 40
0
 41
0
  0
VERTEX
  8
0
 10
1.11773
 20
0.52029
 30
0.0
 40
0
 41
0
  0
VERTEX
  8
0
 10
1.1263
 20
0.517144
 30
0.0
 40
0
 41
0
  0
VERTEX
  8
0
 10
1.13487
 20
0.52029
 30
0.0
 40
0
 41
0
  0
VERTEX
  8
0
 10
1.13883
 20
0.529622
 30
0.0
 40
0
 41
0
  0
SEQEND
 8
0
  0
POLYLINE
  8
0
 62
     173
 66
     1
 10
0
 20
0
 30
0.0
 70
     1
 40
0
 41
0
  0
VERTEX
  8
0
 10
1.13883
 20
0.209636
 30
0.0
 40
0
 41
0
  0
VERTEX
  8
0
 10
1.13487
 20
0.219021
 30
0.0
 40
0
 41
0
  0
VERTEX
  8
0
 10
1.1263
 20
0.222168
 30
0.0
 40
0
 41
0
  0
VERTEX
  8
0
 10
1.11773
 20
0.219021
 30
0.0
 40
0
 41
0
  0
VERTEX
  8
0
 10
1.11382
 20
0.209636
 30
0.0
 40
0
 41
0
  0
VERTEX
  8
0
 10
1.11773
 20
0.200304
 30
0.0
 40
0
 41
0
  0
VERTEX
  8
0
 10
1.1263
 20
0.197157
 30
0.0
 40
0
 41
0
  0
VERTEX
  8
0
 10
1.13487
 20
0.200304
 30
0.0
 40
0
 41
0
  0
VERTEX
  8
0
 10
1.13883
 20
0.209636
 30
0.0
 40
0
 41
0
  0
SEQEND
 8
0
  0
POLYLINE
  8
0
 62
     173
 66
     1
 10
0
 20
0
 30
0.0
 70
     1
 40
0
 41
0
  0
VERTEX
  8
0
 10
0.0895182
 20
1.50662
 30
0.0
 40
0
 41
0
  0
VERTEX
  8
0
 10
0.0771485
 20
1.53629
 30
0.0
 40
0
 41
0
  0
VERTEX
  8
0
 10
0.0500217
 20
1.54617
 30
0.0
 40
0
 41
0
  0
VERTEX
  8
0
 10
0.0228407
 20
1.53629
 30
0.0
 40
0
 41
0
  0
VERTEX
  8
0
 10
0.0105252
 20
1.50662
 30
0.0
 40
0
 41
0
  0
VERTEX
  8
0
 10
0.0228407
 20
1.47706
 30
0.0
 40
0
 41
0
  0
VERTEX
  8
0
 10
0.0500217
 20
1.46718
 30
0.0
 40
0
 41
0
  0
VERTEX
  8
0
 10
0.0771485
 20
1.47706
 30
0.0
 40
0
 41
0
  0
VERTEX
  8
0
 10
0.0895182
 20
1.50662
 30
0.0
 40
0
 41
0
  0
SEQEND
 8
0
  0
POLYLINE
  8
0
 62
     173
 66
     1
 10
0
 20
0
 30
0.0
 70
     1
 40
0
 41
0
  0
VERTEX
  8
0
 10
0.0895182
 20
1.11296
 30
0.0
 40
0
 41
0
  0
VERTEX
  8
0
 10
0.0771485
 20
1.14263
 30
0.0
 40
0
 41
0
  0
VERTEX
  8
0
 10
0.0500217
 20
1.15251
 30
0.0
 40
0
 41
0
  0
VERTEX
  8
0
 10
0.0228407
 20
1.14263
 30
0.0
 40
0
 41
0
  0
VERTEX
  8
0
 10
0.0105252
 20
1.11296
 30
0.0
 40
0
 41
0
  0
VERTEX
  8
0
 10
0.0228407
 20
1.08333
 30
0.0
 40
0
 41
0
  0
VERTEX
  8
0
 10
0.0500217
 20
1.07346
 30
0.0
 40
0
 41
0
  0
VERTEX
  8
0
 10
0.0771485
 20
1.08333
 30
0.0
 40
0
 41
0
  0
VERTEX
  8
0
 10
0.0895182
 20
1.11296
 30
0.0
 40
0
 41
0
  0
SEQEND
 8
0
  0
POLYLINE
  8
0
 62
     173
 66
     1
 10
0
 20
0
 30
0.0
 70
     1
 40
0
 41
0
  0
VERTEX
  8
0
 10
0.0895182
 20
0.719239
 30
0.0
 40
0
 41
0
  0
VERTEX
  8
0
 10
0.0771485
 20
0.748915
 30
0.0
 40
0
 41
0
  0
VERTEX
  8
0
 10
0.0500217
 20
0.758789
 30
0.0
 40
0
 41
0
  0
VERTEX
  8
0
 10
0.0228407
 20
0.748915
 30
0.0
 40
0
 41
0
  0
VERTEX
  8
0
 10
0.0105252
 20
0.719239
 30
0.0
 40
0
 41
0
  0
VERTEX
  8
0
 10
0.0228407
 20
0.689615
 30
0.0
 40
0
 41
0
  0
VERTEX
  8
0
 10
0.0500217
 20
0.679742
 30
0.0
 40
0
 41
0
  0
VERTEX
  8
0
 10
0.0771485
 20
0.689615
 30
0.0
 40
0
 41
0
  0
VERTEX
  8
0
 10
0.0895182
 20
0.719239
 30
0.0
 40
0
 41
0
  0
SEQEND
 8
0
  0
POLYLINE
  8
0
 62
     173
 66
     1
 10
0
 20
0
 30
0.0
 70
     1
 40
0
 41
0
  0
VERTEX
  8
0
 10
0.0895182
 20
0.325521
 30
0.0
 40
0
 41
0
  0
VERTEX
  8
0
 10
0.0771485
 20
0.355197
 30
0.0
 40
0
 41
0
  0
VERTEX
  8
0
 10
0.0500217
 20
0.365072
 30
0.0
 40
0
 41
0
  0
VERTEX
  8
0
 10
0.0228407
 20
0.355197
 30
0.0
 40
0
 41
0
  0
VERTEX
  8
0
 10
0.0105252
 20
0.325521
 30
0.0
 40
0
 41
0
  0
VERTEX
  8
0
 10
0.0228407
 20
0.295953
 30
0.0
 40
0
 41
0
  0
VERTEX
  8
0
 10
0.0500217
 20
0.286079
 30
0.0
 40
0
 41
0
  0
VERTEX
  8
0
 10
0.0771485
 20
0.295953
 30
0.0
 40
0
 41
0
  0
VERTEX
  8
0
 10
0.0895182
 20
0.325521
 30
0.0
 40
0
 41
0
  0
SEQEND
 8
0
  0
POLYLINE
  8
0
 62
     173
 66
     1
 10
0
 20
0
 30
0.0
 70
     1
 40
0
 41
0
  0
VERTEX
  8
0
 10
1.23123
 20
1.50662
 30
0.0
 40
0
 41
0
  0
VERTEX
  8
0
 10
1.21886
 20
1.53629
 30
0.0
 40
0
 41
0
  0
VERTEX
  8
0
 10
1.19173
 20
1.54617
 30
0.0
 40
0
 41
0
  0
VERTEX
  8
0
 10
1.16455
 20
1.53629
 30
0.0
 40
0
 41
0
  0
VERTEX
  8
0
 10
1.15223
 20
1.50662
 30
0.0
 40
0
 41
0
  0
VERTEX
  8
0
 10
1.16455
 20
1.47706
 30
0.0
 40
0
 41
0
  0
VERTEX
  8
0
 10
1.19173
 20
1.46718
 30
0.0
 40
0
 41
0
  0
VERTEX
  8
0
 10
1.21886
 20
1.47706
 30
0.0
 40
0
 41
0
  0
VERTEX
  8
0
 10
1.23123
 20
1.50662
 30
0.0
 40
0
 41
0
  0
SEQEND
 8
0
  0
POLYLINE
  8
0
 62
     173
 66
     1
 10
0
 20
0
 30
0.0
 70
     1
 40
0
 41
0
  0
VERTEX
  8
0
 10
1.23123
 20
1.11296
 30
0.0
 40
0
 41
0
  0
VERTEX
  8
0
 10
1.21886
 20
1.14263
 30
0.0
 40
0
 41
0
  0
VERTEX
  8
0
 10
1.19173
 20
1.15251
 30
0.0
 40
0
 41
0
  0
VERTEX
  8
0
 10
1.16455
 20
1.14263
 30
0.0
 40
0
 41
0
  0
VERTEX
  8
0
 10
1.15223
 20
1.11296
 30
0.0
 40
0
 41
0
  0
VERTEX
  8
0
 10
1.16455
 20
1.08333
 30
0.0
 40
0
 41
0
  0
VERTEX
  8
0
 10
1.19173
 20
1.07346
 30
0.0
 40
0
 41
0
  0
VERTEX
  8
0
 10
1.21886
 20
1.08333
 30
0.0
 40
0
 41
0
  0
VERTEX
  8
0
 10
1.23123
 20
1.11296
 30
0.0
 40
0
 41
0
  0
SEQEND
 8
0
  0
POLYLINE
  8
0
 62
     173
 66
     1
 10
0
 20
0
 30
0.0
 70
     1
 40
0
 41
0
  0
VERTEX
  8
0
 10
1.23123
 20
0.719239
 30
0.0
 40
0
 41
0
  0
VERTEX
  8
0
 10
1.21886
 20
0.748915
 30
0.0
 40
0
 41
0
  0
VERTEX
  8
0
 10
1.19173
 20
0.758789
 30
0.0
 40
0
 41
0
  0
VERTEX
  8
0
 10
1.16455
 20
0.748915
 30
0.0
 40
0
 41
0
  0
VERTEX
  8
0
 10
1.15223
 20
0.719239
 30
0.0
 40
0
 41
0
  0
VERTEX
  8
0
 10
1.16455
 20
0.689615
 30
0.0
 40
0
 41
0
  0
VERTEX
  8
0
 10
1.19173
 20
0.679742
 30
0.0
 40
0
 41
0
  0
VERTEX
  8
0
 10
1.21886
 20
0.689615
 30
0.0
 40
0
 41
0
  0
VERTEX
  8
0
 10
1.23123
 20
0.719239
 30
0.0
 40
0
 41
0
  0
SEQEND
 8
0
  0
POLYLINE
  8
0
 62
     173
 66
     1
 10
0
 20
0
 30
0.0
 70
     1
 40
0
 41
0
  0
VERTEX
  8
0
 10
1.23123
 20
0.325521
 30
0.0
 40
0
 41
0
  0
VERTEX
  8
0
 10
1.21886
 20
0.355197
 30
0.0
 40
0
 41
0
  0
VERTEX
  8
0
 10
1.19173
 20
0.365072
 30
0.0
 40
0
 41
0
  0
VERTEX
  8
0
 10
1.16455
 20
0.355197
 30
0.0
 40
0
 41
0
  0
VERTEX
  8
0
 10
1.15223
 20
0.325521
 30
0.0
 40
0
 41
0
  0
VERTEX
  8
0
 10
1.16455
 20
0.295953
 30
0.0
 40
0
 41
0
  0
VERTEX
  8
0
 10
1.19173
 20
0.286079
 30
0.0
 40
0
 41
0
  0
VERTEX
  8
0
 10
1.21886
 20
0.295953
 30
0.0
 40
0
 41
0
  0
VERTEX
  8
0
 10
1.23123
 20
0.325521
 30
0.0
 40
0
 41
0
  0
SEQEND
 8
0
  0
ENDSEC
  0
EOF
