<?xml version="1.0" encoding="UTF-8"?>
<svg xmlns="http://www.w3.org/2000/svg" xmlns:xlink="http://www.w3.org/1999/xlink" width="92pt" height="126pt" viewBox="0 0 92 126" version="1.1">
<g id="surface1">
<path style="fill:none;stroke-width:0.006;stroke-linecap:round;stroke-linejoin:miter;stroke:rgb(100%,49.803922%,45.098039%);stroke-opacity:1;stroke-miterlimit:10;" d="M 1.251709 0.019643 L 1.251709 1.686201 " transform="matrix(72,0,0,-72,-2.87694,124.05492)"/>
<path style="fill:none;stroke-width:0.006;stroke-linecap:round;stroke-linejoin:miter;stroke:rgb(100%,49.803922%,45.098039%);stroke-opacity:1;stroke-miterlimit:10;" d="M 1.251709 1.686201 L 1.250027 1.687883 " transform="matrix(72,0,0,-72,-2.87694,124.05492)"/>
<path style="fill:none;stroke-width:0.006;stroke-linecap:round;stroke-linejoin:miter;stroke:rgb(100%,49.803922%,45.098039%);stroke-opacity:1;stroke-miterlimit:10;" d="M 0.109999 0.0179069 L 0.109999 1.682892 " transform="matrix(72,0,0,-72,-2.87694,124.05492)"/>
<path style="fill:none;stroke-width:0.006;stroke-linecap:round;stroke-linejoin:miter;stroke:rgb(100%,49.803922%,45.098039%);stroke-opacity:1;stroke-miterlimit:10;" d="M 0.109999 1.682892 L 0.11499 1.687883 " transform="matrix(72,0,0,-72,-2.87694,124.05492)"/>
<path style="fill:none;stroke-width:0.006;stroke-linecap:round;stroke-linejoin:miter;stroke:rgb(100%,49.803922%,45.098039%);stroke-opacity:1;stroke-miterlimit:10;" d="M 1.250027 1.687883 L 0.11499 1.687883 " transform="matrix(72,0,0,-72,-2.87694,124.05492)"/>
<path style="fill:none;stroke-width:0.006;stroke-linecap:round;stroke-linejoin:miter;stroke:rgb(100%,49.803922%,45.098039%);stroke-opacity:1;stroke-miterlimit:10;" d="M 1.251709 0.019643 L 1.250027 0.0179069 " transform="matrix(72,0,0,-72,-2.87694,124.05492)"/>
<path style="fill:none;stroke-width:0.006;stroke-linecap:round;stroke-linejoin:miter;stroke:rgb(100%,49.803922%,45.098039%);stroke-opacity:1;stroke-miterlimit:10;" d="M 0.109999 0.0179069 L 1.250027 0.0179069 " transform="matrix(72,0,0,-72,-2.87694,124.05492)"/>
<path style=" stroke:none;fill-rule:evenodd;fill:rgb(45.098039%,45.098039%,87.058824%);fill-opacity:1;" d="M 11.078125 9.511719 C 11.078125 8.308594 9.277344 8.308594 9.277344 9.511719 C 9.277344 10.710938 11.078125 10.710938 11.078125 9.511719 "/>
<path style=" stroke:none;fill-rule:evenodd;fill:rgb(45.098039%,45.098039%,87.058824%);fill-opacity:1;" d="M 11.078125 30.75 C 11.078125 29.550781 9.277344 29.550781 9.277344 30.75 C 9.277344 31.949219 11.078125 31.949219 11.078125 30.75 "/>
<path style=" stroke:none;fill-rule:evenodd;fill:rgb(45.098039%,45.098039%,87.058824%);fill-opacity:1;" d="M 11.078125 58.832031 C 11.078125 57.628906 9.277344 57.628906 9.277344 58.832031 C 9.277344 60.03125 11.078125 60.03125 11.078125 58.832031 "/>
<path style=" stroke:none;fill-rule:evenodd;fill:rgb(45.098039%,45.098039%,87.058824%);fill-opacity:1;" d="M 11.078125 88.351562 C 11.078125 87.148438 9.277344 87.148438 9.277344 88.351562 C 9.277344 89.550781 11.078125 89.550781 11.078125 88.351562 "/>
<path style=" stroke:none;fill-rule:evenodd;fill:rgb(45.098039%,45.098039%,87.058824%);fill-opacity:1;" d="M 11.078125 111.390625 C 11.078125 110.191406 9.277344 110.191406 9.277344 111.390625 C 9.277344 112.589844 11.078125 112.589844 11.078125 111.390625 "/>
<path style=" stroke:none;fill-rule:evenodd;fill:rgb(45.098039%,45.098039%,87.058824%);fill-opacity:1;" d="M 13.332031 65.402344 C 13.332031 64.203125 11.53125 64.203125 11.53125 65.402344 C 11.53125 66.605469 13.332031 66.605469 13.332031 65.402344 "/>
<path style=" stroke:none;fill-rule:evenodd;fill:rgb(45.098039%,45.098039%,87.058824%);fill-opacity:1;" d="M 20.078125 63.148438 C 20.078125 61.949219 18.277344 61.949219 18.277344 63.148438 C 18.277344 64.351562 20.078125 64.351562 20.078125 63.148438 "/>
<path style=" stroke:none;fill-rule:evenodd;fill:rgb(45.098039%,45.098039%,87.058824%);fill-opacity:1;" d="M 21.15625 51.988281 C 21.15625 50.789062 19.355469 50.789062 19.355469 51.988281 C 19.355469 53.191406 21.15625 53.191406 21.15625 51.988281 "/>
<path style=" stroke:none;fill-rule:evenodd;fill:rgb(45.098039%,45.098039%,87.058824%);fill-opacity:1;" d="M 21.609375 38.402344 C 21.609375 37.203125 19.808594 37.203125 19.808594 38.402344 C 19.808594 39.605469 21.609375 39.605469 21.609375 38.402344 "/>
<path style=" stroke:none;fill-rule:evenodd;fill:rgb(45.098039%,45.098039%,87.058824%);fill-opacity:1;" d="M 21.652344 82.230469 C 21.652344 81.03125 19.851562 81.03125 19.851562 82.230469 C 19.851562 83.429688 21.652344 83.429688 21.652344 82.230469 "/>
<path style=" stroke:none;fill-rule:evenodd;fill:rgb(45.098039%,45.098039%,87.058824%);fill-opacity:1;" d="M 23.675781 21.75 C 23.675781 20.550781 21.875 20.550781 21.875 21.75 C 21.875 22.949219 23.675781 22.949219 23.675781 21.75 "/>
<path style=" stroke:none;fill-rule:evenodd;fill:rgb(45.098039%,45.098039%,87.058824%);fill-opacity:1;" d="M 28.492188 88.292969 C 28.492188 87.09375 26.695312 87.09375 26.695312 88.292969 C 26.695312 89.492188 28.492188 89.492188 28.492188 88.292969 "/>
<path style=" stroke:none;fill-rule:evenodd;fill:rgb(45.098039%,45.098039%,87.058824%);fill-opacity:1;" d="M 28.492188 99.8125 C 28.492188 98.613281 26.695312 98.613281 26.695312 99.8125 C 26.695312 101.011719 28.492188 101.011719 28.492188 99.8125 "/>
<path style=" stroke:none;fill-rule:evenodd;fill:rgb(45.098039%,45.098039%,87.058824%);fill-opacity:1;" d="M 28.492188 112.414062 C 28.492188 111.210938 26.695312 111.210938 26.695312 112.414062 C 26.695312 113.613281 28.492188 113.613281 28.492188 112.414062 "/>
<path style=" stroke:none;fill-rule:evenodd;fill:rgb(45.098039%,45.098039%,87.058824%);fill-opacity:1;" d="M 29.796875 37.300781 C 29.796875 36.101562 27.996094 36.101562 27.996094 37.300781 C 27.996094 38.503906 29.796875 38.503906 29.796875 37.300781 "/>
<path style=" stroke:none;fill-rule:evenodd;fill:rgb(45.098039%,45.098039%,87.058824%);fill-opacity:1;" d="M 30.582031 28.589844 C 30.582031 27.390625 28.78125 27.390625 28.78125 28.589844 C 28.78125 29.789062 30.582031 29.789062 30.582031 28.589844 "/>
<path style=" stroke:none;fill-rule:evenodd;fill:rgb(45.098039%,45.098039%,87.058824%);fill-opacity:1;" d="M 30.78125 66.75 C 30.78125 65.550781 28.984375 65.550781 28.984375 66.75 C 28.984375 67.949219 30.78125 67.949219 30.78125 66.75 "/>
<path style=" stroke:none;fill-rule:evenodd;fill:rgb(45.098039%,45.098039%,87.058824%);fill-opacity:1;" d="M 33.398438 47.308594 C 33.398438 46.109375 31.597656 46.109375 31.597656 47.308594 C 31.597656 48.511719 33.398438 48.511719 33.398438 47.308594 "/>
<path style=" stroke:none;fill-rule:evenodd;fill:rgb(45.098039%,45.098039%,87.058824%);fill-opacity:1;" d="M 35.195312 54.511719 C 35.195312 53.308594 33.398438 53.308594 33.398438 54.511719 C 33.398438 55.710938 35.195312 55.710938 35.195312 54.511719 "/>
<path style=" stroke:none;fill-rule:evenodd;fill:rgb(45.098039%,45.098039%,87.058824%);fill-opacity:1;" d="M 36.277344 26.789062 C 36.277344 25.589844 34.476562 25.589844 34.476562 26.789062 C 34.476562 27.988281 36.277344 27.988281 36.277344 26.789062 "/>
<path style=" stroke:none;fill-rule:evenodd;fill:rgb(45.098039%,45.098039%,87.058824%);fill-opacity:1;" d="M 41.675781 52.351562 C 41.675781 51.148438 39.875 51.148438 39.875 52.351562 C 39.875 53.550781 41.675781 53.550781 41.675781 52.351562 "/>
<path style=" stroke:none;fill-rule:evenodd;fill:rgb(45.098039%,45.098039%,87.058824%);fill-opacity:1;" d="M 42.757812 36.511719 C 42.757812 35.308594 40.957031 35.308594 40.957031 36.511719 C 40.957031 37.710938 42.757812 37.710938 42.757812 36.511719 "/>
<path style=" stroke:none;fill-rule:evenodd;fill:rgb(45.098039%,45.098039%,87.058824%);fill-opacity:1;" d="M 45.277344 47.308594 C 45.277344 46.109375 43.476562 46.109375 43.476562 47.308594 C 43.476562 48.511719 45.277344 48.511719 45.277344 47.308594 "/>
<path style=" stroke:none;fill-rule:evenodd;fill:rgb(45.098039%,45.098039%,87.058824%);fill-opacity:1;" d="M 45.636719 115.710938 C 45.636719 114.511719 43.835938 114.511719 43.835938 115.710938 C 43.835938 116.910156 45.636719 116.910156 45.636719 115.710938 "/>
<path style=" stroke:none;fill-rule:evenodd;fill:rgb(45.098039%,45.098039%,87.058824%);fill-opacity:1;" d="M 47.796875 52.351562 C 47.796875 51.148438 45.996094 51.148438 45.996094 52.351562 C 45.996094 53.550781 47.796875 53.550781 47.796875 52.351562 "/>
<path style=" stroke:none;fill-rule:evenodd;fill:rgb(45.098039%,45.098039%,87.058824%);fill-opacity:1;" d="M 49.957031 43.351562 C 49.957031 42.148438 48.15625 42.148438 48.15625 43.351562 C 48.15625 44.550781 49.957031 44.550781 49.957031 43.351562 "/>
<path style=" stroke:none;fill-rule:evenodd;fill:rgb(45.098039%,45.098039%,87.058824%);fill-opacity:1;" d="M 50 83.308594 C 50 82.109375 48.199219 82.109375 48.199219 83.308594 C 48.199219 84.511719 50 84.511719 50 83.308594 "/>
<path style=" stroke:none;fill-rule:evenodd;fill:rgb(45.098039%,45.098039%,87.058824%);fill-opacity:1;" d="M 50.316406 16.351562 C 50.316406 15.148438 48.515625 15.148438 48.515625 16.351562 C 48.515625 17.550781 50.316406 17.550781 50.316406 16.351562 "/>
<path style=" stroke:none;fill-rule:evenodd;fill:rgb(45.098039%,45.098039%,87.058824%);fill-opacity:1;" d="M 51.035156 33.988281 C 51.035156 32.789062 49.238281 32.789062 49.238281 33.988281 C 49.238281 35.191406 51.035156 35.191406 51.035156 33.988281 "/>
<path style=" stroke:none;fill-rule:evenodd;fill:rgb(45.098039%,45.098039%,87.058824%);fill-opacity:1;" d="M 51.757812 68.910156 C 51.757812 67.710938 49.957031 67.710938 49.957031 68.910156 C 49.957031 70.109375 51.757812 70.109375 51.757812 68.910156 "/>
<path style=" stroke:none;fill-rule:evenodd;fill:rgb(45.098039%,45.098039%,87.058824%);fill-opacity:1;" d="M 56.171875 30.125 C 56.171875 28.921875 54.371094 28.921875 54.371094 30.125 C 54.371094 31.324219 56.171875 31.324219 56.171875 30.125 "/>
<path style=" stroke:none;fill-rule:evenodd;fill:rgb(45.098039%,45.098039%,87.058824%);fill-opacity:1;" d="M 59.050781 13.921875 C 59.050781 12.722656 57.25 12.722656 57.25 13.921875 C 57.25 15.125 59.050781 15.125 59.050781 13.921875 "/>
<path style=" stroke:none;fill-rule:evenodd;fill:rgb(45.098039%,45.098039%,87.058824%);fill-opacity:1;" d="M 63.996094 50.550781 C 63.996094 49.351562 62.195312 49.351562 62.195312 50.550781 C 62.195312 51.75 63.996094 51.75 63.996094 50.550781 "/>
<path style=" stroke:none;fill-rule:evenodd;fill:rgb(45.098039%,45.098039%,87.058824%);fill-opacity:1;" d="M 64.355469 87.628906 C 64.355469 86.429688 62.558594 86.429688 62.558594 87.628906 C 62.558594 88.832031 64.355469 88.832031 64.355469 87.628906 "/>
<path style=" stroke:none;fill-rule:evenodd;fill:rgb(45.098039%,45.098039%,87.058824%);fill-opacity:1;" d="M 66.609375 73.324219 C 66.609375 72.125 64.808594 72.125 64.808594 73.324219 C 64.808594 74.523438 66.609375 74.523438 66.609375 73.324219 "/>
<path style=" stroke:none;fill-rule:evenodd;fill:rgb(45.098039%,45.098039%,87.058824%);fill-opacity:1;" d="M 67.597656 16.351562 C 67.597656 15.148438 65.796875 15.148438 65.796875 16.351562 C 65.796875 17.550781 67.597656 17.550781 67.597656 16.351562 "/>
<path style=" stroke:none;fill-rule:evenodd;fill:rgb(45.098039%,45.098039%,87.058824%);fill-opacity:1;" d="M 70.117188 50.550781 C 70.117188 49.351562 68.316406 49.351562 68.316406 50.550781 C 68.316406 51.75 70.117188 51.75 70.117188 50.550781 "/>
<path style=" stroke:none;fill-rule:evenodd;fill:rgb(45.098039%,45.098039%,87.058824%);fill-opacity:1;" d="M 70.476562 25.710938 C 70.476562 24.511719 68.675781 24.511719 68.675781 25.710938 C 68.675781 26.910156 70.476562 26.910156 70.476562 25.710938 "/>
<path style=" stroke:none;fill-rule:evenodd;fill:rgb(45.098039%,45.098039%,87.058824%);fill-opacity:1;" d="M 71.332031 79.976562 C 71.332031 78.777344 69.535156 78.777344 69.535156 79.976562 C 69.535156 81.175781 71.332031 81.175781 71.332031 79.976562 "/>
<path style=" stroke:none;fill-rule:evenodd;fill:rgb(45.098039%,45.098039%,87.058824%);fill-opacity:1;" d="M 72.371094 74.765625 C 72.371094 73.5625 70.570312 73.5625 70.570312 74.765625 C 70.570312 75.964844 72.371094 75.964844 72.371094 74.765625 "/>
<path style=" stroke:none;fill-rule:evenodd;fill:rgb(45.098039%,45.098039%,87.058824%);fill-opacity:1;" d="M 72.996094 33.898438 C 72.996094 32.695312 71.195312 32.695312 71.195312 33.898438 C 71.195312 35.097656 72.996094 35.097656 72.996094 33.898438 "/>
<path style=" stroke:none;fill-rule:evenodd;fill:rgb(45.098039%,45.098039%,87.058824%);fill-opacity:1;" d="M 72.996094 70.351562 C 72.996094 69.148438 71.195312 69.148438 71.195312 70.351562 C 71.195312 71.550781 72.996094 71.550781 72.996094 70.351562 "/>
<path style=" stroke:none;fill-rule:evenodd;fill:rgb(45.098039%,45.098039%,87.058824%);fill-opacity:1;" d="M 75.609375 27.605469 C 75.609375 26.402344 73.808594 26.402344 73.808594 27.605469 C 73.808594 28.804688 75.609375 28.804688 75.609375 27.605469 "/>
<path style=" stroke:none;fill-rule:evenodd;fill:rgb(45.098039%,45.098039%,87.058824%);fill-opacity:1;" d="M 78.851562 84.484375 C 78.851562 83.285156 77.050781 83.285156 77.050781 84.484375 C 77.050781 85.683594 78.851562 85.683594 78.851562 84.484375 "/>
<path style=" stroke:none;fill-rule:evenodd;fill:rgb(45.098039%,45.098039%,87.058824%);fill-opacity:1;" d="M 79.210938 67.203125 C 79.210938 66.003906 77.410156 66.003906 77.410156 67.203125 C 77.410156 68.402344 79.210938 68.402344 79.210938 67.203125 "/>
<path style=" stroke:none;fill-rule:evenodd;fill:rgb(45.098039%,45.098039%,87.058824%);fill-opacity:1;" d="M 79.210938 74.765625 C 79.210938 73.5625 77.410156 73.5625 77.410156 74.765625 C 77.410156 75.964844 79.210938 75.964844 79.210938 74.765625 "/>
<path style=" stroke:none;fill-rule:evenodd;fill:rgb(45.098039%,45.098039%,87.058824%);fill-opacity:1;" d="M 83.4375 9.511719 C 83.4375 8.308594 81.636719 8.308594 81.636719 9.511719 C 81.636719 10.710938 83.4375 10.710938 83.4375 9.511719 "/>
<path style=" stroke:none;fill-rule:evenodd;fill:rgb(45.098039%,45.098039%,87.058824%);fill-opacity:1;" d="M 83.4375 31.109375 C 83.4375 29.910156 81.636719 29.910156 81.636719 31.109375 C 81.636719 32.308594 83.4375 32.308594 83.4375 31.109375 "/>
<path style=" stroke:none;fill-rule:evenodd;fill:rgb(45.098039%,45.098039%,87.058824%);fill-opacity:1;" d="M 83.4375 58.832031 C 83.4375 57.628906 81.636719 57.628906 81.636719 58.832031 C 81.636719 60.03125 83.4375 60.03125 83.4375 58.832031 "/>
<path style=" stroke:none;fill-rule:evenodd;fill:rgb(45.098039%,45.098039%,87.058824%);fill-opacity:1;" d="M 83.4375 88.351562 C 83.4375 87.148438 81.636719 87.148438 81.636719 88.351562 C 81.636719 89.550781 83.4375 89.550781 83.4375 88.351562 "/>
<path style=" stroke:none;fill-rule:evenodd;fill:rgb(45.098039%,45.098039%,87.058824%);fill-opacity:1;" d="M 83.4375 111.390625 C 83.4375 110.191406 81.636719 110.191406 81.636719 111.390625 C 81.636719 112.589844 83.4375 112.589844 83.4375 111.390625 "/>
<path style=" stroke:none;fill-rule:evenodd;fill:rgb(45.098039%,45.098039%,87.058824%);fill-opacity:1;" d="M 7.886719 18.007812 C 7.886719 14.214844 2.199219 14.214844 2.199219 18.007812 C 2.199219 21.796875 7.886719 21.796875 7.886719 18.007812 "/>
<path style=" stroke:none;fill-rule:evenodd;fill:rgb(45.098039%,45.098039%,87.058824%);fill-opacity:1;" d="M 7.886719 46.351562 C 7.886719 42.558594 2.199219 42.558594 2.199219 46.351562 C 2.199219 50.144531 7.886719 50.144531 7.886719 46.351562 "/>
<path style=" stroke:none;fill-rule:evenodd;fill:rgb(45.098039%,45.098039%,87.058824%);fill-opacity:1;" d="M 7.886719 74.699219 C 7.886719 70.90625 2.199219 70.90625 2.199219 74.699219 C 2.199219 78.492188 7.886719 78.492188 7.886719 74.699219 "/>
<path style=" stroke:none;fill-rule:evenodd;fill:rgb(45.098039%,45.098039%,87.058824%);fill-opacity:1;" d="M 7.886719 103.046875 C 7.886719 99.253906 2.199219 99.253906 2.199219 103.046875 C 2.199219 106.835938 7.886719 106.835938 7.886719 103.046875 "/>
<path style=" stroke:none;fill-rule:evenodd;fill:rgb(45.098039%,45.098039%,87.058824%);fill-opacity:1;" d="M 90.089844 18.007812 C 90.089844 14.214844 84.402344 14.214844 84.402344 18.007812 C 84.402344 21.796875 90.089844 21.796875 90.089844 18.007812 "/>
<path style=" stroke:none;fill-rule:evenodd;fill:rgb(45.098039%,45.098039%,87.058824%);fill-opacity:1;" d="M 90.089844 46.351562 C 90.089844 42.558594 84.402344 42.558594 84.402344 46.351562 C 84.402344 50.144531 90.089844 50.144531 90.089844 46.351562 "/>
<path style=" stroke:none;fill-rule:evenodd;fill:rgb(45.098039%,45.098039%,87.058824%);fill-opacity:1;" d="M 90.089844 74.699219 C 90.089844 70.90625 84.402344 70.90625 84.402344 74.699219 C 84.402344 78.492188 90.089844 78.492188 90.089844 74.699219 "/>
<path style=" stroke:none;fill-rule:evenodd;fill:rgb(45.098039%,45.098039%,87.058824%);fill-opacity:1;" d="M 90.089844 103.046875 C 90.089844 99.253906 84.402344 99.253906 84.402344 103.046875 C 84.402344 106.835938 90.089844 106.835938 90.089844 103.046875 "/>
</g>
</svg>
