M48
INCH
T38C0.079
T37C0.025
%
T37
X001813Y015909
X001813Y012959
X001813Y009059
X001813Y004959
X001813Y001759
X002126Y008146
X003063Y008459
X003213Y010009
X003276Y011896
X003282Y005809
X003563Y014209
X004232Y004967
X004232Y003367
X004232Y001617
X004413Y012049
X004522Y013259
X004550Y007959
X004913Y010659
X005163Y009659
X005313Y013509
X006063Y009959
X006213Y012159
X006563Y010659
X006613Y001159
X006913Y009959
X007213Y011209
X007219Y005659
X007263Y014959
X007363Y012509
X007463Y007659
X008076Y013046
X008476Y015296
X009163Y010209
X009213Y005059
X009526Y007046
X009663Y014959
X010013Y010209
X010063Y013659
X010182Y006122
X010326Y006846
X010413Y012522
X010413Y007459
X010776Y013396
X011226Y005496
X011276Y007896
X011276Y006846
X011863Y015909
X011863Y012909
X011863Y009059
X011863Y004959
X011863Y001759
T38
X001100Y014729
X001100Y010792
X001100Y006855
X001100Y002918
X012517Y014729
X012517Y010792
X012517Y006855
X012517Y002918
M30
