G04 start of page 12 for group -3984 idx -3984 *
G04 Title: (unknown), fab *
G04 Creator: pcb 1.99z *
G04 CreationDate: Mon 08 Dec 2014 11:05:11 PM GMT UTC *
G04 For: commonadmin *
G04 Format: Gerber/RS-274X *
G04 PCB-Dimensions (mil): 1377.95 1692.91 *
G04 PCB-Coordinate-Origin: lower left *
%MOIN*%
%FSLAX25Y25*%
%LNFAB*%
%ADD66C,0.0100*%
%ADD65C,0.0075*%
%ADD64C,0.0060*%
%ADD63R,0.0080X0.0080*%
G54D63*X11000Y148891D02*Y145691D01*
X9400Y147291D02*X12600D01*
X11000Y109521D02*Y106321D01*
X9400Y107921D02*X12600D01*
X11000Y70151D02*Y66951D01*
X9400Y68551D02*X12600D01*
X11000Y30781D02*Y27581D01*
X9400Y29181D02*X12600D01*
X125173Y30781D02*Y27581D01*
X123573Y29181D02*X126773D01*
X125173Y70151D02*Y66951D01*
X123573Y68551D02*X126773D01*
X125173Y109521D02*Y106321D01*
X123573Y107921D02*X126773D01*
X125173Y148891D02*Y145691D01*
X123573Y147291D02*X126773D01*
X15000Y212141D02*Y208941D01*
X13400Y210541D02*X16600D01*
G54D64*X135000Y212791D02*X136500Y209791D01*
X138000Y212791D01*
X136500Y209791D02*Y206791D01*
X139800Y210091D02*X142050D01*
X139800Y206791D02*X142800D01*
X139800Y212791D02*Y206791D01*
Y212791D02*X142800D01*
X147600D02*X148350Y212041D01*
X145350Y212791D02*X147600D01*
X144600Y212041D02*X145350Y212791D01*
X144600Y212041D02*Y210541D01*
X145350Y209791D01*
X147600D01*
X148350Y209041D01*
Y207541D01*
X147600Y206791D02*X148350Y207541D01*
X145350Y206791D02*X147600D01*
X144600Y207541D02*X145350Y206791D01*
X98000Y207541D02*X98750Y206791D01*
X98000Y208741D02*Y207541D01*
Y208741D02*X99050Y209791D01*
X99950D01*
X101000Y208741D01*
Y207541D01*
X100250Y206791D02*X101000Y207541D01*
X98750Y206791D02*X100250D01*
X98000Y210841D02*X99050Y209791D01*
X98000Y212041D02*Y210841D01*
Y212041D02*X98750Y212791D01*
X100250D01*
X101000Y212041D01*
Y210841D01*
X99950Y209791D02*X101000Y210841D01*
X45000Y207541D02*X45750Y206791D01*
X45000Y212041D02*Y207541D01*
Y212041D02*X45750Y212791D01*
X47250D01*
X48000Y212041D01*
Y207541D01*
X47250Y206791D02*X48000Y207541D01*
X45750Y206791D02*X47250D01*
X45000Y208291D02*X48000Y211291D01*
X49800Y206791D02*X50550D01*
X52350Y207541D02*X53100Y206791D01*
X52350Y212041D02*Y207541D01*
Y212041D02*X53100Y212791D01*
X54600D01*
X55350Y212041D01*
Y207541D01*
X54600Y206791D02*X55350Y207541D01*
X53100Y206791D02*X54600D01*
X52350Y208291D02*X55350Y211291D01*
X57900Y206791D02*X60900Y212791D01*
X57150D02*X60900D01*
X63450Y206791D02*X65700Y209791D01*
Y212041D02*Y209791D01*
X64950Y212791D02*X65700Y212041D01*
X63450Y212791D02*X64950D01*
X62700Y212041D02*X63450Y212791D01*
X62700Y212041D02*Y210541D01*
X63450Y209791D01*
X65700D01*
X62130Y121587D02*Y119987D01*
Y121587D02*X63517Y122387D01*
X62130Y121587D02*X60743Y122387D01*
X73630Y125087D02*Y123487D01*
Y125087D02*X75017Y125887D01*
X73630Y125087D02*X72243Y125887D01*
X104130Y125217D02*Y123617D01*
Y125217D02*X105517Y126017D01*
X104130Y125217D02*X102743Y126017D01*
X51630Y96587D02*Y94987D01*
Y96587D02*X53017Y97387D01*
X51630Y96587D02*X50243Y97387D01*
X69130Y99587D02*Y97987D01*
Y99587D02*X70517Y100387D01*
X69130Y99587D02*X67743Y100387D01*
X65630Y106587D02*Y104987D01*
Y106587D02*X67017Y107387D01*
X65630Y106587D02*X64243Y107387D01*
X60630Y99587D02*Y97987D01*
Y99587D02*X62017Y100387D01*
X60630Y99587D02*X59243Y100387D01*
X42320Y16172D02*Y14572D01*
Y16172D02*X43707Y16972D01*
X42320Y16172D02*X40933Y16972D01*
X42320Y33672D02*Y32072D01*
Y33672D02*X43707Y34472D01*
X42320Y33672D02*X40933Y34472D01*
X42320Y49672D02*Y48072D01*
Y49672D02*X43707Y50472D01*
X42320Y49672D02*X40933Y50472D01*
X72190Y56587D02*Y54987D01*
Y56587D02*X73577Y57387D01*
X72190Y56587D02*X70803Y57387D01*
X32820Y58087D02*Y56487D01*
Y58087D02*X34207Y58887D01*
X32820Y58087D02*X31433Y58887D01*
X44130Y120491D02*Y118891D01*
Y120491D02*X45517Y121291D01*
X44130Y120491D02*X42743Y121291D01*
X53130Y135087D02*Y133487D01*
Y135087D02*X54517Y135887D01*
X53130Y135087D02*X51743Y135887D01*
X100130Y102087D02*Y100487D01*
Y102087D02*X101517Y102887D01*
X100130Y102087D02*X98743Y102887D01*
X91630Y102087D02*Y100487D01*
Y102087D02*X93017Y102887D01*
X91630Y102087D02*X90243Y102887D01*
X104130Y74587D02*Y72987D01*
Y74587D02*X105517Y75387D01*
X104130Y74587D02*X102743Y75387D01*
X72630Y149587D02*Y147987D01*
Y149587D02*X74017Y150387D01*
X72630Y149587D02*X71243Y150387D01*
X96630Y149587D02*Y147987D01*
Y149587D02*X98017Y150387D01*
X96630Y149587D02*X95243Y150387D01*
X66130Y11587D02*Y9987D01*
Y11587D02*X67517Y12387D01*
X66130Y11587D02*X64743Y12387D01*
X74630Y76587D02*Y74987D01*
Y76587D02*X76017Y77387D01*
X74630Y76587D02*X73243Y77387D01*
X45500Y79587D02*Y77987D01*
Y79587D02*X46887Y80387D01*
X45500Y79587D02*X44113Y80387D01*
X45216Y132587D02*Y130987D01*
Y132587D02*X46602Y133387D01*
X45216Y132587D02*X43829Y133387D01*
X49130Y106587D02*Y104987D01*
Y106587D02*X50517Y107387D01*
X49130Y106587D02*X47743Y107387D01*
X72130Y112087D02*Y110487D01*
Y112087D02*X73517Y112887D01*
X72130Y112087D02*X70743Y112887D01*
X35630Y142087D02*Y140487D01*
Y142087D02*X37017Y142887D01*
X35630Y142087D02*X34243Y142887D01*
X100630Y136587D02*Y134987D01*
Y136587D02*X102017Y137387D01*
X100630Y136587D02*X99243Y137387D01*
X92130Y50587D02*Y48987D01*
Y50587D02*X93517Y51387D01*
X92130Y50587D02*X90743Y51387D01*
X32130Y100087D02*Y98487D01*
Y100087D02*X33517Y100887D01*
X32130Y100087D02*X30743Y100887D01*
X30630Y84587D02*Y82987D01*
Y84587D02*X32017Y85387D01*
X30630Y84587D02*X29243Y85387D01*
X32760Y118957D02*Y117357D01*
Y118957D02*X34147Y119757D01*
X32760Y118957D02*X31373Y119757D01*
X21260Y81457D02*Y79857D01*
Y81457D02*X22647Y82257D01*
X21260Y81457D02*X19873Y82257D01*
X101820Y61217D02*Y59617D01*
Y61217D02*X103207Y62017D01*
X101820Y61217D02*X100433Y62017D01*
X112260Y54957D02*Y53357D01*
Y54957D02*X113647Y55757D01*
X112260Y54957D02*X110873Y55757D01*
X103260Y68457D02*Y66857D01*
Y68457D02*X104647Y69257D01*
X103260Y68457D02*X101873Y69257D01*
X112760Y68457D02*Y66857D01*
Y68457D02*X114147Y69257D01*
X112760Y68457D02*X111373Y69257D01*
X95260Y70457D02*Y68857D01*
Y70457D02*X96647Y71257D01*
X95260Y70457D02*X93873Y71257D01*
X112760Y78957D02*Y77357D01*
Y78957D02*X114147Y79757D01*
X112760Y78957D02*X111373Y79757D01*
X107760Y133957D02*Y132357D01*
Y133957D02*X109147Y134757D01*
X107760Y133957D02*X106373Y134757D01*
X80760Y130457D02*Y128857D01*
Y130457D02*X82147Y131257D01*
X80760Y130457D02*X79373Y131257D01*
X84760Y152957D02*Y151357D01*
Y152957D02*X86147Y153757D01*
X84760Y152957D02*X83373Y153757D01*
X18130Y159087D02*Y157487D01*
Y159087D02*X19517Y159887D01*
X18130Y159087D02*X16743Y159887D01*
X18130Y129587D02*Y127987D01*
Y129587D02*X19517Y130387D01*
X18130Y129587D02*X16743Y130387D01*
X18130Y90587D02*Y88987D01*
Y90587D02*X19517Y91387D01*
X18130Y90587D02*X16743Y91387D01*
X18130Y49587D02*Y47987D01*
Y49587D02*X19517Y50387D01*
X18130Y49587D02*X16743Y50387D01*
X18130Y17587D02*Y15987D01*
Y17587D02*X19517Y18387D01*
X18130Y17587D02*X16743Y18387D01*
X118630Y159087D02*Y157487D01*
Y159087D02*X120017Y159887D01*
X118630Y159087D02*X117243Y159887D01*
X118630Y129087D02*Y127487D01*
Y129087D02*X120017Y129887D01*
X118630Y129087D02*X117243Y129887D01*
X118630Y90587D02*Y88987D01*
Y90587D02*X120017Y91387D01*
X118630Y90587D02*X117243Y91387D01*
X118630Y49587D02*Y47987D01*
Y49587D02*X120017Y50387D01*
X118630Y49587D02*X117243Y50387D01*
X118630Y17587D02*Y15987D01*
Y17587D02*X120017Y18387D01*
X118630Y17587D02*X117243Y18387D01*
X15000Y225541D02*Y223941D01*
Y225541D02*X16387Y226341D01*
X15000Y225541D02*X13613Y226341D01*
X135000Y227791D02*X136500Y224791D01*
X138000Y227791D01*
X136500Y224791D02*Y221791D01*
X139800Y225091D02*X142050D01*
X139800Y221791D02*X142800D01*
X139800Y227791D02*Y221791D01*
Y227791D02*X142800D01*
X147600D02*X148350Y227041D01*
X145350Y227791D02*X147600D01*
X144600Y227041D02*X145350Y227791D01*
X144600Y227041D02*Y225541D01*
X145350Y224791D01*
X147600D01*
X148350Y224041D01*
Y222541D01*
X147600Y221791D02*X148350Y222541D01*
X145350Y221791D02*X147600D01*
X144600Y222541D02*X145350Y221791D01*
X98000Y227791D02*X101000D01*
X98000D02*Y224791D01*
X98750Y225541D01*
X100250D01*
X101000Y224791D01*
Y222541D01*
X100250Y221791D02*X101000Y222541D01*
X98750Y221791D02*X100250D01*
X98000Y222541D02*X98750Y221791D01*
X102800Y226591D02*X104000Y227791D01*
Y221791D01*
X102800D02*X105050D01*
X45000Y222541D02*X45750Y221791D01*
X45000Y227041D02*Y222541D01*
Y227041D02*X45750Y227791D01*
X47250D01*
X48000Y227041D01*
Y222541D01*
X47250Y221791D02*X48000Y222541D01*
X45750Y221791D02*X47250D01*
X45000Y223291D02*X48000Y226291D01*
X49800Y221791D02*X50550D01*
X52350Y222541D02*X53100Y221791D01*
X52350Y227041D02*Y222541D01*
Y227041D02*X53100Y227791D01*
X54600D01*
X55350Y227041D01*
Y222541D01*
X54600Y221791D02*X55350Y222541D01*
X53100Y221791D02*X54600D01*
X52350Y223291D02*X55350Y226291D01*
X57150Y227041D02*X57900Y227791D01*
X60150D01*
X60900Y227041D01*
Y225541D01*
X57150Y221791D02*X60900Y225541D01*
X57150Y221791D02*X60900D01*
X62700Y227791D02*X65700D01*
X62700D02*Y224791D01*
X63450Y225541D01*
X64950D01*
X65700Y224791D01*
Y222541D01*
X64950Y221791D02*X65700Y222541D01*
X63450Y221791D02*X64950D01*
X62700Y222541D02*X63450Y221791D01*
X3000Y242791D02*X3750Y242041D01*
X750Y242791D02*X3000D01*
X0Y242041D02*X750Y242791D01*
X0Y242041D02*Y240541D01*
X750Y239791D01*
X3000D01*
X3750Y239041D01*
Y237541D01*
X3000Y236791D02*X3750Y237541D01*
X750Y236791D02*X3000D01*
X0Y237541D02*X750Y236791D01*
X5550Y239791D02*Y237541D01*
X6300Y236791D01*
X8550Y239791D02*Y235291D01*
X7800Y234541D02*X8550Y235291D01*
X6300Y234541D02*X7800D01*
X5550Y235291D02*X6300Y234541D01*
Y236791D02*X7800D01*
X8550Y237541D01*
X11100Y239041D02*Y236791D01*
Y239041D02*X11850Y239791D01*
X12600D01*
X13350Y239041D01*
Y236791D01*
Y239041D02*X14100Y239791D01*
X14850D01*
X15600Y239041D01*
Y236791D01*
X10350Y239791D02*X11100Y239041D01*
X17400Y242791D02*Y236791D01*
Y237541D02*X18150Y236791D01*
X19650D01*
X20400Y237541D01*
Y239041D02*Y237541D01*
X19650Y239791D02*X20400Y239041D01*
X18150Y239791D02*X19650D01*
X17400Y239041D02*X18150Y239791D01*
X22200Y239041D02*Y237541D01*
Y239041D02*X22950Y239791D01*
X24450D01*
X25200Y239041D01*
Y237541D01*
X24450Y236791D02*X25200Y237541D01*
X22950Y236791D02*X24450D01*
X22200Y237541D02*X22950Y236791D01*
X27000Y242791D02*Y237541D01*
X27750Y236791D01*
X0Y233541D02*X29250D01*
X41750Y242791D02*Y236791D01*
X43700Y242791D02*X44750Y241741D01*
Y237841D01*
X43700Y236791D02*X44750Y237841D01*
X41000Y236791D02*X43700D01*
X41000Y242791D02*X43700D01*
G54D65*X46550Y241291D02*Y241141D01*
G54D64*Y239041D02*Y236791D01*
X50300Y239791D02*X51050Y239041D01*
X48800Y239791D02*X50300D01*
X48050Y239041D02*X48800Y239791D01*
X48050Y239041D02*Y237541D01*
X48800Y236791D01*
X51050Y239791D02*Y237541D01*
X51800Y236791D01*
X48800D02*X50300D01*
X51050Y237541D01*
X54350Y239041D02*Y236791D01*
Y239041D02*X55100Y239791D01*
X55850D01*
X56600Y239041D01*
Y236791D01*
Y239041D02*X57350Y239791D01*
X58100D01*
X58850Y239041D01*
Y236791D01*
X53600Y239791D02*X54350Y239041D01*
X60650Y236791D02*X61400D01*
X65900Y237541D02*X66650Y236791D01*
X65900Y242041D02*X66650Y242791D01*
X65900Y242041D02*Y237541D01*
X68450Y242791D02*X69950D01*
X69200D02*Y236791D01*
X68450D02*X69950D01*
X72500Y239041D02*Y236791D01*
Y239041D02*X73250Y239791D01*
X74000D01*
X74750Y239041D01*
Y236791D01*
X71750Y239791D02*X72500Y239041D01*
X77300Y239791D02*X79550D01*
X76550Y239041D02*X77300Y239791D01*
X76550Y239041D02*Y237541D01*
X77300Y236791D01*
X79550D01*
X81350Y242791D02*Y236791D01*
Y239041D02*X82100Y239791D01*
X83600D01*
X84350Y239041D01*
Y236791D01*
X86150Y242791D02*X86900Y242041D01*
Y237541D01*
X86150Y236791D02*X86900Y237541D01*
X41000Y233541D02*X88700D01*
X96050Y236791D02*X98000D01*
X95000Y237841D02*X96050Y236791D01*
X95000Y241741D02*Y237841D01*
Y241741D02*X96050Y242791D01*
X98000D01*
X99800Y239041D02*Y237541D01*
Y239041D02*X100550Y239791D01*
X102050D01*
X102800Y239041D01*
Y237541D01*
X102050Y236791D02*X102800Y237541D01*
X100550Y236791D02*X102050D01*
X99800Y237541D02*X100550Y236791D01*
X104600Y239791D02*Y237541D01*
X105350Y236791D01*
X106850D01*
X107600Y237541D01*
Y239791D02*Y237541D01*
X110150Y239041D02*Y236791D01*
Y239041D02*X110900Y239791D01*
X111650D01*
X112400Y239041D01*
Y236791D01*
X109400Y239791D02*X110150Y239041D01*
X114950Y242791D02*Y237541D01*
X115700Y236791D01*
X114200Y240541D02*X115700D01*
X95000Y233541D02*X117200D01*
X130750Y242791D02*Y236791D01*
X130000Y242791D02*X133000D01*
X133750Y242041D01*
Y240541D01*
X133000Y239791D02*X133750Y240541D01*
X130750Y239791D02*X133000D01*
X135550Y242791D02*Y237541D01*
X136300Y236791D01*
X140050Y239791D02*X140800Y239041D01*
X138550Y239791D02*X140050D01*
X137800Y239041D02*X138550Y239791D01*
X137800Y239041D02*Y237541D01*
X138550Y236791D01*
X140800Y239791D02*Y237541D01*
X141550Y236791D01*
X138550D02*X140050D01*
X140800Y237541D01*
X144100Y242791D02*Y237541D01*
X144850Y236791D01*
X143350Y240541D02*X144850D01*
X147100Y236791D02*X149350D01*
X146350Y237541D02*X147100Y236791D01*
X146350Y239041D02*Y237541D01*
Y239041D02*X147100Y239791D01*
X148600D01*
X149350Y239041D01*
X146350Y238291D02*X149350D01*
Y239041D02*Y238291D01*
X154150Y242791D02*Y236791D01*
X153400D02*X154150Y237541D01*
X151900Y236791D02*X153400D01*
X151150Y237541D02*X151900Y236791D01*
X151150Y239041D02*Y237541D01*
Y239041D02*X151900Y239791D01*
X153400D01*
X154150Y239041D01*
X157450Y239791D02*Y239041D01*
Y237541D02*Y236791D01*
X155950Y242041D02*Y241291D01*
Y242041D02*X156700Y242791D01*
X158200D01*
X158950Y242041D01*
Y241291D01*
X157450Y239791D02*X158950Y241291D01*
X130000Y233541D02*X160750D01*
X0Y257791D02*X3000D01*
X1500D02*Y251791D01*
X4800Y257791D02*Y251791D01*
Y254041D02*X5550Y254791D01*
X7050D01*
X7800Y254041D01*
Y251791D01*
X10350D02*X12600D01*
X9600Y252541D02*X10350Y251791D01*
X9600Y254041D02*Y252541D01*
Y254041D02*X10350Y254791D01*
X11850D01*
X12600Y254041D01*
X9600Y253291D02*X12600D01*
Y254041D02*Y253291D01*
X15150Y254041D02*Y251791D01*
Y254041D02*X15900Y254791D01*
X17400D01*
X14400D02*X15150Y254041D01*
X19950Y251791D02*X22200D01*
X19200Y252541D02*X19950Y251791D01*
X19200Y254041D02*Y252541D01*
Y254041D02*X19950Y254791D01*
X21450D01*
X22200Y254041D01*
X19200Y253291D02*X22200D01*
Y254041D02*Y253291D01*
X28950Y254791D02*X29700Y254041D01*
X27450Y254791D02*X28950D01*
X26700Y254041D02*X27450Y254791D01*
X26700Y254041D02*Y252541D01*
X27450Y251791D01*
X29700Y254791D02*Y252541D01*
X30450Y251791D01*
X27450D02*X28950D01*
X29700Y252541D01*
X33000Y254041D02*Y251791D01*
Y254041D02*X33750Y254791D01*
X35250D01*
X32250D02*X33000Y254041D01*
X37800Y251791D02*X40050D01*
X37050Y252541D02*X37800Y251791D01*
X37050Y254041D02*Y252541D01*
Y254041D02*X37800Y254791D01*
X39300D01*
X40050Y254041D01*
X37050Y253291D02*X40050D01*
Y254041D02*Y253291D01*
X44550Y257041D02*X45300Y257791D01*
X47550D01*
X48300Y257041D01*
Y255541D01*
X44550Y251791D02*X48300Y255541D01*
X44550Y251791D02*X48300D01*
X55800Y257791D02*Y251791D01*
X55050D02*X55800Y252541D01*
X53550Y251791D02*X55050D01*
X52800Y252541D02*X53550Y251791D01*
X52800Y254041D02*Y252541D01*
Y254041D02*X53550Y254791D01*
X55050D01*
X55800Y254041D01*
G54D65*X57600Y256291D02*Y256141D01*
G54D64*Y254041D02*Y251791D01*
X59850Y257041D02*Y251791D01*
Y257041D02*X60600Y257791D01*
X61350D01*
X59100Y254791D02*X60600D01*
X63600Y257041D02*Y251791D01*
Y257041D02*X64350Y257791D01*
X65100D01*
X62850Y254791D02*X64350D01*
X67350Y251791D02*X69600D01*
X66600Y252541D02*X67350Y251791D01*
X66600Y254041D02*Y252541D01*
Y254041D02*X67350Y254791D01*
X68850D01*
X69600Y254041D01*
X66600Y253291D02*X69600D01*
Y254041D02*Y253291D01*
X72150Y254041D02*Y251791D01*
Y254041D02*X72900Y254791D01*
X74400D01*
X71400D02*X72150Y254041D01*
X76950Y251791D02*X79200D01*
X76200Y252541D02*X76950Y251791D01*
X76200Y254041D02*Y252541D01*
Y254041D02*X76950Y254791D01*
X78450D01*
X79200Y254041D01*
X76200Y253291D02*X79200D01*
Y254041D02*Y253291D01*
X81750Y254041D02*Y251791D01*
Y254041D02*X82500Y254791D01*
X83250D01*
X84000Y254041D01*
Y251791D01*
X81000Y254791D02*X81750Y254041D01*
X86550Y257791D02*Y252541D01*
X87300Y251791D01*
X85800Y255541D02*X87300D01*
X94500Y257791D02*Y251791D01*
X93750D02*X94500Y252541D01*
X92250Y251791D02*X93750D01*
X91500Y252541D02*X92250Y251791D01*
X91500Y254041D02*Y252541D01*
Y254041D02*X92250Y254791D01*
X93750D01*
X94500Y254041D01*
X97050D02*Y251791D01*
Y254041D02*X97800Y254791D01*
X99300D01*
X96300D02*X97050Y254041D01*
G54D65*X101100Y256291D02*Y256141D01*
G54D64*Y254041D02*Y251791D01*
X102600Y257791D02*Y252541D01*
X103350Y251791D01*
X104850Y257791D02*Y252541D01*
X105600Y251791D01*
X110550D02*X112800D01*
X113550Y252541D01*
X112800Y253291D02*X113550Y252541D01*
X110550Y253291D02*X112800D01*
X109800Y254041D02*X110550Y253291D01*
X109800Y254041D02*X110550Y254791D01*
X112800D01*
X113550Y254041D01*
X109800Y252541D02*X110550Y251791D01*
G54D65*X115350Y256291D02*Y256141D01*
G54D64*Y254041D02*Y251791D01*
X116850Y254791D02*X119850D01*
X116850Y251791D02*X119850Y254791D01*
X116850Y251791D02*X119850D01*
X122400D02*X124650D01*
X121650Y252541D02*X122400Y251791D01*
X121650Y254041D02*Y252541D01*
Y254041D02*X122400Y254791D01*
X123900D01*
X124650Y254041D01*
X121650Y253291D02*X124650D01*
Y254041D02*Y253291D01*
X127200Y251791D02*X129450D01*
X130200Y252541D01*
X129450Y253291D02*X130200Y252541D01*
X127200Y253291D02*X129450D01*
X126450Y254041D02*X127200Y253291D01*
X126450Y254041D02*X127200Y254791D01*
X129450D01*
X130200Y254041D01*
X126450Y252541D02*X127200Y251791D01*
X134700Y254791D02*Y252541D01*
X135450Y251791D01*
X136950D01*
X137700Y252541D01*
Y254791D02*Y252541D01*
X140250Y251791D02*X142500D01*
X143250Y252541D01*
X142500Y253291D02*X143250Y252541D01*
X140250Y253291D02*X142500D01*
X139500Y254041D02*X140250Y253291D01*
X139500Y254041D02*X140250Y254791D01*
X142500D01*
X143250Y254041D01*
X139500Y252541D02*X140250Y251791D01*
X145800D02*X148050D01*
X145050Y252541D02*X145800Y251791D01*
X145050Y254041D02*Y252541D01*
Y254041D02*X145800Y254791D01*
X147300D01*
X148050Y254041D01*
X145050Y253291D02*X148050D01*
Y254041D02*Y253291D01*
X152850Y257791D02*Y251791D01*
X152100D02*X152850Y252541D01*
X150600Y251791D02*X152100D01*
X149850Y252541D02*X150600Y251791D01*
X149850Y254041D02*Y252541D01*
Y254041D02*X150600Y254791D01*
X152100D01*
X152850Y254041D01*
G54D65*X157350Y256291D02*Y256141D01*
G54D64*Y254041D02*Y251791D01*
X159600Y254041D02*Y251791D01*
Y254041D02*X160350Y254791D01*
X161100D01*
X161850Y254041D01*
Y251791D01*
X158850Y254791D02*X159600Y254041D01*
X167100Y257791D02*Y252541D01*
X167850Y251791D01*
X166350Y255541D02*X167850D01*
X169350Y257791D02*Y251791D01*
Y254041D02*X170100Y254791D01*
X171600D01*
X172350Y254041D01*
Y251791D01*
G54D65*X174150Y256291D02*Y256141D01*
G54D64*Y254041D02*Y251791D01*
X176400D02*X178650D01*
X179400Y252541D01*
X178650Y253291D02*X179400Y252541D01*
X176400Y253291D02*X178650D01*
X175650Y254041D02*X176400Y253291D01*
X175650Y254041D02*X176400Y254791D01*
X178650D01*
X179400Y254041D01*
X175650Y252541D02*X176400Y251791D01*
X183900Y257791D02*Y252541D01*
X184650Y251791D01*
X188400Y254791D02*X189150Y254041D01*
X186900Y254791D02*X188400D01*
X186150Y254041D02*X186900Y254791D01*
X186150Y254041D02*Y252541D01*
X186900Y251791D01*
X189150Y254791D02*Y252541D01*
X189900Y251791D01*
X186900D02*X188400D01*
X189150Y252541D01*
X191700Y254791D02*Y252541D01*
X192450Y251791D01*
X194700Y254791D02*Y250291D01*
X193950Y249541D02*X194700Y250291D01*
X192450Y249541D02*X193950D01*
X191700Y250291D02*X192450Y249541D01*
Y251791D02*X193950D01*
X194700Y252541D01*
X196500Y254041D02*Y252541D01*
Y254041D02*X197250Y254791D01*
X198750D01*
X199500Y254041D01*
Y252541D01*
X198750Y251791D02*X199500Y252541D01*
X197250Y251791D02*X198750D01*
X196500Y252541D02*X197250Y251791D01*
X201300Y254791D02*Y252541D01*
X202050Y251791D01*
X203550D01*
X204300Y252541D01*
Y254791D02*Y252541D01*
X206850Y257791D02*Y252541D01*
X207600Y251791D01*
X206100Y255541D02*X207600D01*
X209100Y250291D02*X210600Y251791D01*
X215100Y257791D02*X218100D01*
X215100D02*Y254791D01*
X215850Y255541D01*
X217350D01*
X218100Y254791D01*
Y252541D01*
X217350Y251791D02*X218100Y252541D01*
X215850Y251791D02*X217350D01*
X215100Y252541D02*X215850Y251791D01*
X220650D02*X222900Y254791D01*
Y257041D02*Y254791D01*
X222150Y257791D02*X222900Y257041D01*
X220650Y257791D02*X222150D01*
X219900Y257041D02*X220650Y257791D01*
X219900Y257041D02*Y255541D01*
X220650Y254791D01*
X222900D01*
X227400Y257791D02*Y251791D01*
Y254041D02*X228150Y254791D01*
X229650D01*
X230400Y254041D01*
Y251791D01*
X232200Y254041D02*Y252541D01*
Y254041D02*X232950Y254791D01*
X234450D01*
X235200Y254041D01*
Y252541D01*
X234450Y251791D02*X235200Y252541D01*
X232950Y251791D02*X234450D01*
X232200Y252541D02*X232950Y251791D01*
X237000Y257791D02*Y252541D01*
X237750Y251791D01*
X240000D02*X242250D01*
X239250Y252541D02*X240000Y251791D01*
X239250Y254041D02*Y252541D01*
Y254041D02*X240000Y254791D01*
X241500D01*
X242250Y254041D01*
X239250Y253291D02*X242250D01*
Y254041D02*Y253291D01*
X244800Y251791D02*X247050D01*
X247800Y252541D01*
X247050Y253291D02*X247800Y252541D01*
X244800Y253291D02*X247050D01*
X244050Y254041D02*X244800Y253291D01*
X244050Y254041D02*X244800Y254791D01*
X247050D01*
X247800Y254041D01*
X244050Y252541D02*X244800Y251791D01*
X253050Y257791D02*Y252541D01*
X253800Y251791D01*
X252300Y255541D02*X253800D01*
X255300Y254041D02*Y252541D01*
Y254041D02*X256050Y254791D01*
X257550D01*
X258300Y254041D01*
Y252541D01*
X257550Y251791D02*X258300Y252541D01*
X256050Y251791D02*X257550D01*
X255300Y252541D02*X256050Y251791D01*
X260850Y257791D02*Y252541D01*
X261600Y251791D01*
X260100Y255541D02*X261600D01*
X265350Y254791D02*X266100Y254041D01*
X263850Y254791D02*X265350D01*
X263100Y254041D02*X263850Y254791D01*
X263100Y254041D02*Y252541D01*
X263850Y251791D01*
X266100Y254791D02*Y252541D01*
X266850Y251791D01*
X263850D02*X265350D01*
X266100Y252541D01*
X268650Y257791D02*Y252541D01*
X269400Y251791D01*
G54D66*X125173Y1965D02*X125000Y1791D01*
X11000D02*X125000D01*
X125173Y1965D02*Y168618D01*
X125000Y168791D01*
X11000Y1791D02*Y168291D01*
X11500Y168791D01*
X125000D02*X11500D01*
G54D64*X0Y-9500D02*X3000D01*
X3750Y-8750D01*
Y-6950D02*Y-8750D01*
X3000Y-6200D02*X3750Y-6950D01*
X750Y-6200D02*X3000D01*
X750Y-3500D02*Y-9500D01*
X0Y-3500D02*X3000D01*
X3750Y-4250D01*
Y-5450D01*
X3000Y-6200D02*X3750Y-5450D01*
X5550Y-7250D02*Y-8750D01*
Y-7250D02*X6300Y-6500D01*
X7800D01*
X8550Y-7250D01*
Y-8750D01*
X7800Y-9500D02*X8550Y-8750D01*
X6300Y-9500D02*X7800D01*
X5550Y-8750D02*X6300Y-9500D01*
X12600Y-6500D02*X13350Y-7250D01*
X11100Y-6500D02*X12600D01*
X10350Y-7250D02*X11100Y-6500D01*
X10350Y-7250D02*Y-8750D01*
X11100Y-9500D01*
X13350Y-6500D02*Y-8750D01*
X14100Y-9500D01*
X11100D02*X12600D01*
X13350Y-8750D01*
X16650Y-7250D02*Y-9500D01*
Y-7250D02*X17400Y-6500D01*
X18900D01*
X15900D02*X16650Y-7250D01*
X23700Y-3500D02*Y-9500D01*
X22950D02*X23700Y-8750D01*
X21450Y-9500D02*X22950D01*
X20700Y-8750D02*X21450Y-9500D01*
X20700Y-7250D02*Y-8750D01*
Y-7250D02*X21450Y-6500D01*
X22950D01*
X23700Y-7250D01*
X28200D02*Y-8750D01*
Y-7250D02*X28950Y-6500D01*
X30450D01*
X31200Y-7250D01*
Y-8750D01*
X30450Y-9500D02*X31200Y-8750D01*
X28950Y-9500D02*X30450D01*
X28200Y-8750D02*X28950Y-9500D01*
X33000Y-6500D02*Y-8750D01*
X33750Y-9500D01*
X35250D01*
X36000Y-8750D01*
Y-6500D02*Y-8750D01*
X38550Y-3500D02*Y-8750D01*
X39300Y-9500D01*
X37800Y-5750D02*X39300D01*
X40800Y-3500D02*Y-8750D01*
X41550Y-9500D01*
G54D65*X43050Y-5000D02*Y-5150D01*
G54D64*Y-7250D02*Y-9500D01*
X45300Y-7250D02*Y-9500D01*
Y-7250D02*X46050Y-6500D01*
X46800D01*
X47550Y-7250D01*
Y-9500D01*
X44550Y-6500D02*X45300Y-7250D01*
X50100Y-9500D02*X52350D01*
X49350Y-8750D02*X50100Y-9500D01*
X49350Y-7250D02*Y-8750D01*
Y-7250D02*X50100Y-6500D01*
X51600D01*
X52350Y-7250D01*
X49350Y-8000D02*X52350D01*
Y-7250D02*Y-8000D01*
G54D65*X56850Y-5000D02*Y-5150D01*
G54D64*Y-7250D02*Y-9500D01*
X59100D02*X61350D01*
X62100Y-8750D01*
X61350Y-8000D02*X62100Y-8750D01*
X59100Y-8000D02*X61350D01*
X58350Y-7250D02*X59100Y-8000D01*
X58350Y-7250D02*X59100Y-6500D01*
X61350D01*
X62100Y-7250D01*
X58350Y-8750D02*X59100Y-9500D01*
X67350Y-3500D02*Y-8750D01*
X68100Y-9500D01*
X66600Y-5750D02*X68100D01*
X69600Y-3500D02*Y-9500D01*
Y-7250D02*X70350Y-6500D01*
X71850D01*
X72600Y-7250D01*
Y-9500D01*
X75150D02*X77400D01*
X74400Y-8750D02*X75150Y-9500D01*
X74400Y-7250D02*Y-8750D01*
Y-7250D02*X75150Y-6500D01*
X76650D01*
X77400Y-7250D01*
X74400Y-8000D02*X77400D01*
Y-7250D02*Y-8000D01*
X82650Y-6500D02*X84900D01*
X81900Y-7250D02*X82650Y-6500D01*
X81900Y-7250D02*Y-8750D01*
X82650Y-9500D01*
X84900D01*
X87450D02*X89700D01*
X86700Y-8750D02*X87450Y-9500D01*
X86700Y-7250D02*Y-8750D01*
Y-7250D02*X87450Y-6500D01*
X88950D01*
X89700Y-7250D01*
X86700Y-8000D02*X89700D01*
Y-7250D02*Y-8000D01*
X92250Y-7250D02*Y-9500D01*
Y-7250D02*X93000Y-6500D01*
X93750D01*
X94500Y-7250D01*
Y-9500D01*
X91500Y-6500D02*X92250Y-7250D01*
X97050Y-3500D02*Y-8750D01*
X97800Y-9500D01*
X96300Y-5750D02*X97800D01*
X100050Y-9500D02*X102300D01*
X99300Y-8750D02*X100050Y-9500D01*
X99300Y-7250D02*Y-8750D01*
Y-7250D02*X100050Y-6500D01*
X101550D01*
X102300Y-7250D01*
X99300Y-8000D02*X102300D01*
Y-7250D02*Y-8000D01*
X104850Y-7250D02*Y-9500D01*
Y-7250D02*X105600Y-6500D01*
X107100D01*
X104100D02*X104850Y-7250D01*
X108900Y-3500D02*Y-8750D01*
X109650Y-9500D01*
G54D65*X111150Y-5000D02*Y-5150D01*
G54D64*Y-7250D02*Y-9500D01*
X113400Y-7250D02*Y-9500D01*
Y-7250D02*X114150Y-6500D01*
X114900D01*
X115650Y-7250D01*
Y-9500D01*
X112650Y-6500D02*X113400Y-7250D01*
X118200Y-9500D02*X120450D01*
X117450Y-8750D02*X118200Y-9500D01*
X117450Y-7250D02*Y-8750D01*
Y-7250D02*X118200Y-6500D01*
X119700D01*
X120450Y-7250D01*
X117450Y-8000D02*X120450D01*
Y-7250D02*Y-8000D01*
X124950Y-7250D02*Y-8750D01*
Y-7250D02*X125700Y-6500D01*
X127200D01*
X127950Y-7250D01*
Y-8750D01*
X127200Y-9500D02*X127950Y-8750D01*
X125700Y-9500D02*X127200D01*
X124950Y-8750D02*X125700Y-9500D01*
X130500Y-4250D02*Y-9500D01*
Y-4250D02*X131250Y-3500D01*
X132000D01*
X129750Y-6500D02*X131250D01*
X136950Y-3500D02*Y-8750D01*
X137700Y-9500D01*
X136200Y-5750D02*X137700D01*
X139200Y-3500D02*Y-9500D01*
Y-7250D02*X139950Y-6500D01*
X141450D01*
X142200Y-7250D01*
Y-9500D01*
G54D65*X144000Y-5000D02*Y-5150D01*
G54D64*Y-7250D02*Y-9500D01*
X146250D02*X148500D01*
X149250Y-8750D01*
X148500Y-8000D02*X149250Y-8750D01*
X146250Y-8000D02*X148500D01*
X145500Y-7250D02*X146250Y-8000D01*
X145500Y-7250D02*X146250Y-6500D01*
X148500D01*
X149250Y-7250D01*
X145500Y-8750D02*X146250Y-9500D01*
X154500Y-7250D02*Y-11750D01*
X153750Y-6500D02*X154500Y-7250D01*
X155250Y-6500D01*
X156750D01*
X157500Y-7250D01*
Y-8750D01*
X156750Y-9500D02*X157500Y-8750D01*
X155250Y-9500D02*X156750D01*
X154500Y-8750D02*X155250Y-9500D01*
X161550Y-6500D02*X162300Y-7250D01*
X160050Y-6500D02*X161550D01*
X159300Y-7250D02*X160050Y-6500D01*
X159300Y-7250D02*Y-8750D01*
X160050Y-9500D01*
X162300Y-6500D02*Y-8750D01*
X163050Y-9500D01*
X160050D02*X161550D01*
X162300Y-8750D01*
X165600Y-3500D02*Y-8750D01*
X166350Y-9500D01*
X164850Y-5750D02*X166350D01*
X167850Y-3500D02*Y-9500D01*
Y-7250D02*X168600Y-6500D01*
X170100D01*
X170850Y-7250D01*
Y-9500D01*
X200750Y197791D02*Y191791D01*
X202700Y197791D02*X203750Y196741D01*
Y192841D01*
X202700Y191791D02*X203750Y192841D01*
X200000Y191791D02*X202700D01*
X200000Y197791D02*X202700D01*
X207800Y194791D02*X208550Y194041D01*
X206300Y194791D02*X207800D01*
X205550Y194041D02*X206300Y194791D01*
X205550Y194041D02*Y192541D01*
X206300Y191791D01*
X208550Y194791D02*Y192541D01*
X209300Y191791D01*
X206300D02*X207800D01*
X208550Y192541D01*
X211850Y197791D02*Y192541D01*
X212600Y191791D01*
X211100Y195541D02*X212600D01*
X214850Y191791D02*X217100D01*
X214100Y192541D02*X214850Y191791D01*
X214100Y194041D02*Y192541D01*
Y194041D02*X214850Y194791D01*
X216350D01*
X217100Y194041D01*
X214100Y193291D02*X217100D01*
Y194041D02*Y193291D01*
X218900Y195541D02*X219650D01*
X218900Y194041D02*X219650D01*
X224150Y197791D02*Y191791D01*
Y197791D02*X226400Y194791D01*
X228650Y197791D01*
Y191791D01*
X230450Y194041D02*Y192541D01*
Y194041D02*X231200Y194791D01*
X232700D01*
X233450Y194041D01*
Y192541D01*
X232700Y191791D02*X233450Y192541D01*
X231200Y191791D02*X232700D01*
X230450Y192541D02*X231200Y191791D01*
X236000Y194041D02*Y191791D01*
Y194041D02*X236750Y194791D01*
X237500D01*
X238250Y194041D01*
Y191791D01*
X235250Y194791D02*X236000Y194041D01*
X242750Y192541D02*X243500Y191791D01*
X242750Y197041D02*Y192541D01*
Y197041D02*X243500Y197791D01*
X245000D01*
X245750Y197041D01*
Y192541D01*
X245000Y191791D02*X245750Y192541D01*
X243500Y191791D02*X245000D01*
X242750Y193291D02*X245750Y196291D01*
X247550Y192541D02*X248300Y191791D01*
X247550Y193741D02*Y192541D01*
Y193741D02*X248600Y194791D01*
X249500D01*
X250550Y193741D01*
Y192541D01*
X249800Y191791D02*X250550Y192541D01*
X248300Y191791D02*X249800D01*
X247550Y195841D02*X248600Y194791D01*
X247550Y197041D02*Y195841D01*
Y197041D02*X248300Y197791D01*
X249800D01*
X250550Y197041D01*
Y195841D01*
X249500Y194791D02*X250550Y195841D01*
X255800Y197791D02*Y191791D01*
X257750Y197791D02*X258800Y196741D01*
Y192841D01*
X257750Y191791D02*X258800Y192841D01*
X255050Y191791D02*X257750D01*
X255050Y197791D02*X257750D01*
X261350Y191791D02*X263600D01*
X260600Y192541D02*X261350Y191791D01*
X260600Y194041D02*Y192541D01*
Y194041D02*X261350Y194791D01*
X262850D01*
X263600Y194041D01*
X260600Y193291D02*X263600D01*
Y194041D02*Y193291D01*
X266150Y194791D02*X268400D01*
X265400Y194041D02*X266150Y194791D01*
X265400Y194041D02*Y192541D01*
X266150Y191791D01*
X268400D01*
X272900Y197041D02*X273650Y197791D01*
X275900D01*
X276650Y197041D01*
Y195541D01*
X272900Y191791D02*X276650Y195541D01*
X272900Y191791D02*X276650D01*
X278450Y192541D02*X279200Y191791D01*
X278450Y197041D02*Y192541D01*
Y197041D02*X279200Y197791D01*
X280700D01*
X281450Y197041D01*
Y192541D01*
X280700Y191791D02*X281450Y192541D01*
X279200Y191791D02*X280700D01*
X278450Y193291D02*X281450Y196291D01*
X283250Y196591D02*X284450Y197791D01*
Y191791D01*
X283250D02*X285500D01*
X287300Y194041D02*X290300Y197791D01*
X287300Y194041D02*X291050D01*
X290300Y197791D02*Y191791D01*
X295550Y196591D02*X296750Y197791D01*
Y191791D01*
X295550D02*X297800D01*
X299600Y196591D02*X300800Y197791D01*
Y191791D01*
X299600D02*X301850D01*
X303650Y195541D02*X304400D01*
X303650Y194041D02*X304400D01*
X306200Y192541D02*X306950Y191791D01*
X306200Y197041D02*Y192541D01*
Y197041D02*X306950Y197791D01*
X308450D01*
X309200Y197041D01*
Y192541D01*
X308450Y191791D02*X309200Y192541D01*
X306950Y191791D02*X308450D01*
X306200Y193291D02*X309200Y196291D01*
X311000Y197791D02*X314000D01*
X311000D02*Y194791D01*
X311750Y195541D01*
X313250D01*
X314000Y194791D01*
Y192541D01*
X313250Y191791D02*X314000Y192541D01*
X311750Y191791D02*X313250D01*
X311000Y192541D02*X311750Y191791D01*
X315800Y195541D02*X316550D01*
X315800Y194041D02*X316550D01*
X318350Y196591D02*X319550Y197791D01*
Y191791D01*
X318350D02*X320600D01*
X322400Y196591D02*X323600Y197791D01*
Y191791D01*
X322400D02*X324650D01*
X329900Y197791D02*Y191791D01*
X329150Y197791D02*X332150D01*
X332900Y197041D01*
Y195541D01*
X332150Y194791D02*X332900Y195541D01*
X329900Y194791D02*X332150D01*
X334700Y197791D02*Y191791D01*
Y197791D02*X336950Y194791D01*
X339200Y197791D01*
Y191791D01*
X346700Y197791D02*X347450Y197041D01*
X344450Y197791D02*X346700D01*
X343700Y197041D02*X344450Y197791D01*
X343700Y197041D02*Y192541D01*
X344450Y191791D01*
X346700D01*
X347450Y192541D01*
Y194041D02*Y192541D01*
X346700Y194791D02*X347450Y194041D01*
X345200Y194791D02*X346700D01*
X349250Y197791D02*Y191791D01*
Y197791D02*X351500Y194791D01*
X353750Y197791D01*
Y191791D01*
X355550Y197791D02*X358550D01*
X357050D02*Y191791D01*
X363050Y197791D02*Y192541D01*
X363800Y191791D01*
X365300D01*
X366050Y192541D01*
Y197791D02*Y192541D01*
X367850Y197791D02*X370850D01*
X369350D02*Y191791D01*
X373700D02*X375650D01*
X372650Y192841D02*X373700Y191791D01*
X372650Y196741D02*Y192841D01*
Y196741D02*X373700Y197791D01*
X375650D01*
X200000Y211291D02*Y206791D01*
Y211291D02*X201050Y212791D01*
X202700D01*
X203750Y211291D01*
Y206791D01*
X200000Y209791D02*X203750D01*
X205550D02*Y207541D01*
X206300Y206791D01*
X207800D01*
X208550Y207541D01*
Y209791D02*Y207541D01*
X211100Y212791D02*Y207541D01*
X211850Y206791D01*
X210350Y210541D02*X211850D01*
X213350Y212791D02*Y206791D01*
Y209041D02*X214100Y209791D01*
X215600D01*
X216350Y209041D01*
Y206791D01*
X218150Y209041D02*Y207541D01*
Y209041D02*X218900Y209791D01*
X220400D01*
X221150Y209041D01*
Y207541D01*
X220400Y206791D02*X221150Y207541D01*
X218900Y206791D02*X220400D01*
X218150Y207541D02*X218900Y206791D01*
X223700Y209041D02*Y206791D01*
Y209041D02*X224450Y209791D01*
X225950D01*
X222950D02*X223700Y209041D01*
X227750Y210541D02*X228500D01*
X227750Y209041D02*X228500D01*
X200000Y227791D02*X203000D01*
X201500D02*Y221791D01*
G54D65*X204800Y226291D02*Y226141D01*
G54D64*Y224041D02*Y221791D01*
X207050Y227791D02*Y222541D01*
X207800Y221791D01*
X206300Y225541D02*X207800D01*
X209300Y227791D02*Y222541D01*
X210050Y221791D01*
X212300D02*X214550D01*
X211550Y222541D02*X212300Y221791D01*
X211550Y224041D02*Y222541D01*
Y224041D02*X212300Y224791D01*
X213800D01*
X214550Y224041D01*
X211550Y223291D02*X214550D01*
Y224041D02*Y223291D01*
X216350Y225541D02*X217100D01*
X216350Y224041D02*X217100D01*
X221600Y222541D02*X222350Y221791D01*
X221600Y227041D02*X222350Y227791D01*
X221600Y227041D02*Y222541D01*
X224150Y224791D02*Y222541D01*
X224900Y221791D01*
X226400D01*
X227150Y222541D01*
Y224791D02*Y222541D01*
X229700Y224041D02*Y221791D01*
Y224041D02*X230450Y224791D01*
X231200D01*
X231950Y224041D01*
Y221791D01*
X228950Y224791D02*X229700Y224041D01*
X233750Y227791D02*Y221791D01*
Y224041D02*X236000Y221791D01*
X233750Y224041D02*X235250Y225541D01*
X238550Y224041D02*Y221791D01*
Y224041D02*X239300Y224791D01*
X240050D01*
X240800Y224041D01*
Y221791D01*
X237800Y224791D02*X238550Y224041D01*
X242600D02*Y222541D01*
Y224041D02*X243350Y224791D01*
X244850D01*
X245600Y224041D01*
Y222541D01*
X244850Y221791D02*X245600Y222541D01*
X243350Y221791D02*X244850D01*
X242600Y222541D02*X243350Y221791D01*
X247400Y224791D02*Y222541D01*
X248150Y221791D01*
X248900D01*
X249650Y222541D01*
Y224791D02*Y222541D01*
X250400Y221791D01*
X251150D01*
X251900Y222541D01*
Y224791D02*Y222541D01*
X254450Y224041D02*Y221791D01*
Y224041D02*X255200Y224791D01*
X255950D01*
X256700Y224041D01*
Y221791D01*
X253700Y224791D02*X254450Y224041D01*
X258500Y227791D02*X259250Y227041D01*
Y222541D01*
X258500Y221791D02*X259250Y222541D01*
X263750Y224791D02*X266750D01*
X271250Y227791D02*Y221791D01*
Y227791D02*X274250D01*
X271250Y225091D02*X273500D01*
X278300Y224791D02*X279050Y224041D01*
X276800Y224791D02*X278300D01*
X276050Y224041D02*X276800Y224791D01*
X276050Y224041D02*Y222541D01*
X276800Y221791D01*
X279050Y224791D02*Y222541D01*
X279800Y221791D01*
X276800D02*X278300D01*
X279050Y222541D01*
X281600Y227791D02*Y221791D01*
Y222541D02*X282350Y221791D01*
X283850D01*
X284600Y222541D01*
Y224041D02*Y222541D01*
X283850Y224791D02*X284600Y224041D01*
X282350Y224791D02*X283850D01*
X281600Y224041D02*X282350Y224791D01*
X287150Y224041D02*Y221791D01*
Y224041D02*X287900Y224791D01*
X289400D01*
X286400D02*X287150Y224041D01*
G54D65*X291200Y226291D02*Y226141D01*
G54D64*Y224041D02*Y221791D01*
X293450Y224791D02*X295700D01*
X292700Y224041D02*X293450Y224791D01*
X292700Y224041D02*Y222541D01*
X293450Y221791D01*
X295700D01*
X299750Y224791D02*X300500Y224041D01*
X298250Y224791D02*X299750D01*
X297500Y224041D02*X298250Y224791D01*
X297500Y224041D02*Y222541D01*
X298250Y221791D01*
X300500Y224791D02*Y222541D01*
X301250Y221791D01*
X298250D02*X299750D01*
X300500Y222541D01*
X303800Y227791D02*Y222541D01*
X304550Y221791D01*
X303050Y225541D02*X304550D01*
G54D65*X306050Y226291D02*Y226141D01*
G54D64*Y224041D02*Y221791D01*
X307550Y224041D02*Y222541D01*
Y224041D02*X308300Y224791D01*
X309800D01*
X310550Y224041D01*
Y222541D01*
X309800Y221791D02*X310550Y222541D01*
X308300Y221791D02*X309800D01*
X307550Y222541D02*X308300Y221791D01*
X313100Y224041D02*Y221791D01*
Y224041D02*X313850Y224791D01*
X314600D01*
X315350Y224041D01*
Y221791D01*
X312350Y224791D02*X313100Y224041D01*
X320600Y227791D02*Y221791D01*
X322550Y227791D02*X323600Y226741D01*
Y222841D01*
X322550Y221791D02*X323600Y222841D01*
X319850Y221791D02*X322550D01*
X319850Y227791D02*X322550D01*
X326150Y224041D02*Y221791D01*
Y224041D02*X326900Y224791D01*
X328400D01*
X325400D02*X326150Y224041D01*
X332450Y224791D02*X333200Y224041D01*
X330950Y224791D02*X332450D01*
X330200Y224041D02*X330950Y224791D01*
X330200Y224041D02*Y222541D01*
X330950Y221791D01*
X333200Y224791D02*Y222541D01*
X333950Y221791D01*
X330950D02*X332450D01*
X333200Y222541D01*
X335750Y224791D02*Y222541D01*
X336500Y221791D01*
X337250D01*
X338000Y222541D01*
Y224791D02*Y222541D01*
X338750Y221791D01*
X339500D01*
X340250Y222541D01*
Y224791D02*Y222541D01*
G54D65*X342050Y226291D02*Y226141D01*
G54D64*Y224041D02*Y221791D01*
X344300Y224041D02*Y221791D01*
Y224041D02*X345050Y224791D01*
X345800D01*
X346550Y224041D01*
Y221791D01*
X343550Y224791D02*X344300Y224041D01*
X350600Y224791D02*X351350Y224041D01*
X349100Y224791D02*X350600D01*
X348350Y224041D02*X349100Y224791D01*
X348350Y224041D02*Y222541D01*
X349100Y221791D01*
X350600D01*
X351350Y222541D01*
X348350Y220291D02*X349100Y219541D01*
X350600D01*
X351350Y220291D01*
Y224791D02*Y220291D01*
M02*
