G04 start of page 3 for group 1 idx 1 *
G04 Title: (unknown), bottom *
G04 Creator: pcb 1.99z *
G04 CreationDate: Mon 08 Dec 2014 11:05:10 PM GMT UTC *
G04 For: commonadmin *
G04 Format: Gerber/RS-274X *
G04 PCB-Dimensions (mil): 1377.95 1692.91 *
G04 PCB-Coordinate-Origin: lower left *
%MOIN*%
%FSLAX25Y25*%
%LNBOTTOM*%
%ADD35C,0.0787*%
%ADD34C,0.0250*%
%ADD33C,0.1181*%
%ADD32C,0.0400*%
%ADD31C,0.0060*%
%ADD30C,0.0150*%
%ADD29C,0.0001*%
G54D29*G36*
X90490Y167087D02*X111130D01*
Y133061D01*
X110727Y133465D01*
X110732Y133486D01*
X110760Y133957D01*
X110732Y134427D01*
X110622Y134887D01*
X110441Y135323D01*
X110194Y135725D01*
X109888Y136085D01*
X109529Y136391D01*
X109126Y136638D01*
X108690Y136819D01*
X108231Y136929D01*
X107760Y136966D01*
X107289Y136929D01*
X106830Y136819D01*
X106394Y136638D01*
X105991Y136391D01*
X105632Y136085D01*
X105325Y135725D01*
X105079Y135323D01*
X104898Y134887D01*
X104788Y134427D01*
X104751Y133957D01*
X104788Y133486D01*
X104898Y133027D01*
X105079Y132591D01*
X105325Y132188D01*
X105632Y131829D01*
X105991Y131522D01*
X106394Y131275D01*
X106830Y131095D01*
X107289Y130984D01*
X107760Y130947D01*
X108231Y130984D01*
X108252Y130990D01*
X108380Y130862D01*
Y111311D01*
X102941Y105873D01*
X102889Y105828D01*
X102710Y105618D01*
X102566Y105384D01*
X102460Y105129D01*
X102396Y104861D01*
X102396Y104861D01*
X102375Y104587D01*
X102380Y104518D01*
Y104071D01*
X102258Y104214D01*
X101899Y104521D01*
X101496Y104768D01*
X101060Y104949D01*
X100601Y105059D01*
X100130Y105096D01*
X99659Y105059D01*
X99200Y104949D01*
X98764Y104768D01*
X98361Y104521D01*
X98002Y104214D01*
X97695Y103855D01*
X97684Y103837D01*
X94076D01*
X94064Y103855D01*
X93758Y104214D01*
X93399Y104521D01*
X92996Y104768D01*
X92560Y104949D01*
X92101Y105059D01*
X91630Y105096D01*
X91159Y105059D01*
X90700Y104949D01*
X90490Y104862D01*
Y132057D01*
X96965D01*
X97000Y132054D01*
X97141Y132065D01*
X97141Y132065D01*
X97279Y132098D01*
X97410Y132152D01*
X97531Y132226D01*
X97638Y132318D01*
X97661Y132345D01*
X99540Y134224D01*
X99824Y134106D01*
X100222Y134011D01*
X100630Y133979D01*
X101038Y134011D01*
X101436Y134106D01*
X101814Y134263D01*
X102163Y134477D01*
X102474Y134742D01*
X102740Y135054D01*
X102954Y135403D01*
X103110Y135781D01*
X103206Y136179D01*
X103230Y136587D01*
X103206Y136995D01*
X103110Y137393D01*
X102954Y137771D01*
X102740Y138120D01*
X102474Y138431D01*
X102163Y138697D01*
X101814Y138910D01*
X101436Y139067D01*
X101038Y139163D01*
X100630Y139195D01*
X100222Y139163D01*
X99824Y139067D01*
X99446Y138910D01*
X99097Y138697D01*
X98786Y138431D01*
X98520Y138120D01*
X98306Y137771D01*
X98150Y137393D01*
X98054Y136995D01*
X98022Y136587D01*
X98054Y136179D01*
X98150Y135781D01*
X98267Y135497D01*
X96627Y133857D01*
X90490D01*
Y167087D01*
G37*
G36*
X94076Y100337D02*X97684D01*
X97695Y100318D01*
X98002Y99959D01*
X98361Y99652D01*
X98764Y99405D01*
X99200Y99225D01*
X99659Y99114D01*
X100130Y99077D01*
X100601Y99114D01*
X101060Y99225D01*
X101496Y99405D01*
X101899Y99652D01*
X102258Y99959D01*
X102380Y100102D01*
Y77033D01*
X102361Y77021D01*
X102002Y76714D01*
X101695Y76355D01*
X101449Y75953D01*
X101268Y75517D01*
X101158Y75057D01*
X101121Y74587D01*
X101158Y74116D01*
X101268Y73657D01*
X101449Y73220D01*
X101695Y72818D01*
X102002Y72459D01*
X102122Y72357D01*
X101295D01*
X101260Y72359D01*
X101119Y72348D01*
X100981Y72315D01*
X100850Y72261D01*
X100729Y72187D01*
X100729Y72187D01*
X100621Y72095D01*
X100599Y72068D01*
X99887Y71357D01*
X97701D01*
X97584Y71641D01*
X97370Y71990D01*
X97104Y72301D01*
X96793Y72567D01*
X96444Y72780D01*
X96066Y72937D01*
X95668Y73033D01*
X95260Y73065D01*
X94852Y73033D01*
X94454Y72937D01*
X94076Y72780D01*
X93727Y72567D01*
X93416Y72301D01*
X93150Y71990D01*
X92936Y71641D01*
X92779Y71263D01*
X92684Y70865D01*
X92652Y70457D01*
X92684Y70049D01*
X92779Y69651D01*
X92936Y69273D01*
X93150Y68924D01*
X93416Y68613D01*
X93727Y68347D01*
X94076Y68133D01*
X94454Y67976D01*
X94852Y67881D01*
X95260Y67849D01*
X95668Y67881D01*
X96066Y67976D01*
X96444Y68133D01*
X96793Y68347D01*
X97104Y68613D01*
X97370Y68924D01*
X97584Y69273D01*
X97701Y69557D01*
X100225D01*
X100260Y69554D01*
X100401Y69565D01*
X100401Y69565D01*
X100539Y69598D01*
X100670Y69652D01*
X100790Y69726D01*
X100898Y69818D01*
X100921Y69845D01*
X101633Y70557D01*
X101715D01*
X101416Y70301D01*
X101150Y69990D01*
X100936Y69641D01*
X100779Y69263D01*
X100684Y68865D01*
X100652Y68457D01*
X100684Y68049D01*
X100779Y67651D01*
X100936Y67273D01*
X101150Y66924D01*
X101416Y66613D01*
X101727Y66347D01*
X102076Y66133D01*
X102454Y65976D01*
X102852Y65881D01*
X103260Y65849D01*
X103668Y65881D01*
X104066Y65976D01*
X104444Y66133D01*
X104793Y66347D01*
X105104Y66613D01*
X105370Y66924D01*
X105584Y67273D01*
X105701Y67557D01*
X110318D01*
X110436Y67273D01*
X110650Y66924D01*
X110916Y66613D01*
X111130Y66430D01*
Y57359D01*
X106661Y61828D01*
X106638Y61855D01*
X106531Y61947D01*
X106410Y62021D01*
X106279Y62075D01*
X106141Y62108D01*
X106141Y62108D01*
X106000Y62119D01*
X105965Y62117D01*
X104261D01*
X104144Y62401D01*
X103930Y62749D01*
X103664Y63061D01*
X103353Y63326D01*
X103004Y63540D01*
X102626Y63697D01*
X102228Y63792D01*
X101820Y63825D01*
X101412Y63792D01*
X101014Y63697D01*
X100636Y63540D01*
X100287Y63326D01*
X99976Y63061D01*
X99710Y62749D01*
X99496Y62401D01*
X99340Y62022D01*
X99244Y61625D01*
X99212Y61217D01*
X99244Y60809D01*
X99340Y60411D01*
X99496Y60033D01*
X99710Y59684D01*
X99976Y59372D01*
X100287Y59107D01*
X100636Y58893D01*
X101014Y58736D01*
X101412Y58641D01*
X101820Y58609D01*
X102228Y58641D01*
X102626Y58736D01*
X103004Y58893D01*
X103353Y59107D01*
X103664Y59372D01*
X103930Y59684D01*
X104144Y60033D01*
X104261Y60317D01*
X105627D01*
X109897Y56047D01*
X109779Y55763D01*
X109684Y55365D01*
X109652Y54957D01*
X109684Y54549D01*
X109779Y54151D01*
X109936Y53773D01*
X110150Y53424D01*
X110416Y53113D01*
X110727Y52847D01*
X111076Y52633D01*
X111130Y52611D01*
Y3587D01*
X90490D01*
Y99312D01*
X90700Y99225D01*
X91159Y99114D01*
X91630Y99077D01*
X92101Y99114D01*
X92560Y99225D01*
X92996Y99405D01*
X93399Y99652D01*
X93758Y99959D01*
X94064Y100318D01*
X94076Y100337D01*
G37*
G36*
X90490Y3587D02*X73753D01*
Y122488D01*
X74038Y122511D01*
X74436Y122606D01*
X74814Y122763D01*
X75163Y122977D01*
X75474Y123242D01*
X75740Y123554D01*
X75954Y123903D01*
X76110Y124281D01*
X76206Y124679D01*
X76230Y125087D01*
X76206Y125495D01*
X76110Y125893D01*
X75954Y126271D01*
X75740Y126620D01*
X75474Y126931D01*
X75163Y127197D01*
X74814Y127410D01*
X74436Y127567D01*
X74038Y127663D01*
X73753Y127685D01*
Y146805D01*
X73996Y146905D01*
X74399Y147152D01*
X74758Y147459D01*
X75064Y147818D01*
X75076Y147837D01*
X76130D01*
X76405Y147853D01*
X76672Y147917D01*
X76927Y148023D01*
X77162Y148166D01*
X77371Y148345D01*
X77550Y148555D01*
X77694Y148790D01*
X77799Y149044D01*
X77864Y149312D01*
X77885Y149587D01*
X77864Y149861D01*
X77799Y150129D01*
X77694Y150384D01*
X77550Y150618D01*
X77371Y150828D01*
X77162Y151007D01*
X76927Y151151D01*
X76672Y151256D01*
X76405Y151320D01*
X76130Y151337D01*
X75076D01*
X75064Y151355D01*
X74758Y151714D01*
X74399Y152021D01*
X73996Y152268D01*
X73753Y152369D01*
Y167087D01*
X90490D01*
Y133857D01*
X83295D01*
X83260Y133859D01*
X83119Y133848D01*
X82981Y133815D01*
X82850Y133761D01*
X82729Y133687D01*
X82729Y133687D01*
X82621Y133595D01*
X82599Y133568D01*
X82152Y133122D01*
X82126Y133138D01*
X81690Y133319D01*
X81231Y133429D01*
X80760Y133466D01*
X80289Y133429D01*
X79830Y133319D01*
X79394Y133138D01*
X78991Y132891D01*
X78632Y132585D01*
X78325Y132225D01*
X78079Y131823D01*
X77898Y131387D01*
X77788Y130927D01*
X77751Y130457D01*
X77788Y129986D01*
X77898Y129527D01*
X78079Y129091D01*
X78325Y128688D01*
X78632Y128329D01*
X78991Y128022D01*
X79394Y127775D01*
X79830Y127595D01*
X80289Y127484D01*
X80760Y127447D01*
X81231Y127484D01*
X81690Y127595D01*
X82126Y127775D01*
X82529Y128022D01*
X82888Y128329D01*
X83194Y128688D01*
X83441Y129091D01*
X83622Y129527D01*
X83732Y129986D01*
X83760Y130457D01*
X83732Y130927D01*
X83622Y131387D01*
X83441Y131823D01*
X83425Y131849D01*
X83633Y132057D01*
X90490D01*
Y104862D01*
X90264Y104768D01*
X89861Y104521D01*
X89502Y104214D01*
X89195Y103855D01*
X88949Y103453D01*
X88768Y103017D01*
X88658Y102557D01*
X88621Y102087D01*
X88658Y101616D01*
X88768Y101157D01*
X88949Y100720D01*
X89195Y100318D01*
X89502Y99959D01*
X89861Y99652D01*
X90264Y99405D01*
X90490Y99312D01*
Y3587D01*
G37*
G36*
X60376Y167087D02*X73753D01*
Y152369D01*
X73560Y152449D01*
X73101Y152559D01*
X72630Y152596D01*
X72159Y152559D01*
X71700Y152449D01*
X71264Y152268D01*
X70861Y152021D01*
X70502Y151714D01*
X70195Y151355D01*
X69949Y150953D01*
X69768Y150517D01*
X69658Y150057D01*
X69621Y149587D01*
X69658Y149116D01*
X69768Y148657D01*
X69949Y148220D01*
X70195Y147818D01*
X70502Y147459D01*
X70861Y147152D01*
X71264Y146905D01*
X71700Y146725D01*
X72159Y146614D01*
X72630Y146577D01*
X73101Y146614D01*
X73560Y146725D01*
X73753Y146805D01*
Y127685D01*
X73630Y127695D01*
X73222Y127663D01*
X72824Y127567D01*
X72446Y127410D01*
X72097Y127197D01*
X71786Y126931D01*
X71520Y126620D01*
X71306Y126271D01*
X71150Y125893D01*
X71054Y125495D01*
X71022Y125087D01*
X71054Y124679D01*
X71150Y124281D01*
X71267Y123997D01*
X69757Y122487D01*
X64571D01*
X64454Y122771D01*
X64240Y123120D01*
X63974Y123431D01*
X63663Y123697D01*
X63314Y123910D01*
X62936Y124067D01*
X62538Y124163D01*
X62130Y124195D01*
X61722Y124163D01*
X61324Y124067D01*
X60946Y123910D01*
X60597Y123697D01*
X60376Y123508D01*
Y167087D01*
G37*
G36*
X73753Y3587D02*X60376D01*
Y95687D01*
X66095D01*
X66130Y95684D01*
X66271Y95695D01*
X66271Y95695D01*
X66409Y95728D01*
X66540Y95782D01*
X66661Y95856D01*
X66768Y95948D01*
X66791Y95975D01*
X68040Y97224D01*
X68324Y97106D01*
X68722Y97011D01*
X69130Y96979D01*
X69538Y97011D01*
X69936Y97106D01*
X70314Y97263D01*
X70663Y97477D01*
X70974Y97742D01*
X71240Y98054D01*
X71454Y98403D01*
X71610Y98781D01*
X71706Y99179D01*
X71730Y99587D01*
X71706Y99995D01*
X71610Y100393D01*
X71454Y100771D01*
X71240Y101120D01*
X70974Y101431D01*
X70663Y101697D01*
X70314Y101910D01*
X69936Y102067D01*
X69538Y102163D01*
X69130Y102195D01*
X68722Y102163D01*
X68324Y102067D01*
X67946Y101910D01*
X67597Y101697D01*
X67286Y101431D01*
X67020Y101120D01*
X66806Y100771D01*
X66650Y100393D01*
X66554Y99995D01*
X66522Y99587D01*
X66554Y99179D01*
X66650Y98781D01*
X66767Y98497D01*
X65757Y97487D01*
X62175D01*
X62474Y97742D01*
X62740Y98054D01*
X62954Y98403D01*
X63110Y98781D01*
X63206Y99179D01*
X63230Y99587D01*
X63206Y99995D01*
X63110Y100393D01*
X62993Y100677D01*
X66241Y103925D01*
X66268Y103948D01*
X66360Y104056D01*
X66360Y104056D01*
X66383Y104094D01*
X66436Y104106D01*
X66814Y104263D01*
X67163Y104477D01*
X67474Y104742D01*
X67740Y105054D01*
X67954Y105403D01*
X68110Y105781D01*
X68206Y106179D01*
X68230Y106587D01*
X68206Y106995D01*
X68110Y107393D01*
X67954Y107771D01*
X67740Y108120D01*
X67474Y108431D01*
X67163Y108697D01*
X66814Y108910D01*
X66436Y109067D01*
X66038Y109163D01*
X65630Y109195D01*
X65222Y109163D01*
X64824Y109067D01*
X64446Y108910D01*
X64097Y108697D01*
X63786Y108431D01*
X63520Y108120D01*
X63306Y107771D01*
X63150Y107393D01*
X63054Y106995D01*
X63022Y106587D01*
X63054Y106179D01*
X63150Y105781D01*
X63306Y105403D01*
X63520Y105054D01*
X63786Y104742D01*
X64097Y104477D01*
X64190Y104420D01*
X61720Y101949D01*
X61436Y102067D01*
X61038Y102163D01*
X60630Y102195D01*
X60376Y102175D01*
Y119665D01*
X60597Y119477D01*
X60946Y119263D01*
X61324Y119106D01*
X61722Y119011D01*
X62130Y118979D01*
X62538Y119011D01*
X62936Y119106D01*
X63314Y119263D01*
X63663Y119477D01*
X63974Y119742D01*
X64240Y120054D01*
X64454Y120403D01*
X64571Y120687D01*
X70095D01*
X70130Y120684D01*
X70271Y120695D01*
X70271Y120695D01*
X70409Y120728D01*
X70540Y120782D01*
X70661Y120856D01*
X70768Y120948D01*
X70791Y120975D01*
X72540Y122724D01*
X72824Y122606D01*
X73222Y122511D01*
X73630Y122479D01*
X73753Y122488D01*
Y3587D01*
G37*
G36*
X60376D02*X48425D01*
Y123514D01*
X53741Y128830D01*
X53768Y128853D01*
X53860Y128961D01*
X53934Y129081D01*
X53989Y129212D01*
X54022Y129350D01*
X54033Y129491D01*
X54030Y129527D01*
Y132645D01*
X54314Y132763D01*
X54663Y132977D01*
X54974Y133242D01*
X55240Y133554D01*
X55454Y133903D01*
X55610Y134281D01*
X55706Y134679D01*
X55730Y135087D01*
X55706Y135495D01*
X55610Y135893D01*
X55454Y136271D01*
X55240Y136620D01*
X54974Y136931D01*
X54663Y137197D01*
X54314Y137410D01*
X53936Y137567D01*
X53538Y137663D01*
X53130Y137695D01*
X52722Y137663D01*
X52324Y137567D01*
X51946Y137410D01*
X51597Y137197D01*
X51286Y136931D01*
X51020Y136620D01*
X50806Y136271D01*
X50650Y135893D01*
X50554Y135495D01*
X50522Y135087D01*
X50554Y134679D01*
X50650Y134281D01*
X50806Y133903D01*
X51020Y133554D01*
X51286Y133242D01*
X51597Y132977D01*
X51946Y132763D01*
X52230Y132645D01*
Y129864D01*
X48425Y126060D01*
Y167087D01*
X60376D01*
Y123508D01*
X60286Y123431D01*
X60020Y123120D01*
X59806Y122771D01*
X59650Y122393D01*
X59554Y121995D01*
X59522Y121587D01*
X59554Y121179D01*
X59650Y120781D01*
X59806Y120403D01*
X60020Y120054D01*
X60286Y119742D01*
X60376Y119665D01*
Y102175D01*
X60222Y102163D01*
X59824Y102067D01*
X59446Y101910D01*
X59097Y101697D01*
X58786Y101431D01*
X58520Y101120D01*
X58306Y100771D01*
X58150Y100393D01*
X58054Y99995D01*
X58022Y99587D01*
X58054Y99179D01*
X58150Y98781D01*
X58306Y98403D01*
X58520Y98054D01*
X58786Y97742D01*
X59085Y97487D01*
X54071D01*
X53954Y97771D01*
X53740Y98120D01*
X53474Y98431D01*
X53163Y98697D01*
X52814Y98910D01*
X52436Y99067D01*
X52038Y99163D01*
X51630Y99195D01*
X51222Y99163D01*
X50824Y99067D01*
X50446Y98910D01*
X50097Y98697D01*
X49786Y98431D01*
X49520Y98120D01*
X49306Y97771D01*
X49150Y97393D01*
X49054Y96995D01*
X49022Y96587D01*
X49054Y96179D01*
X49150Y95781D01*
X49306Y95403D01*
X49520Y95054D01*
X49786Y94742D01*
X50097Y94477D01*
X50446Y94263D01*
X50824Y94106D01*
X51222Y94011D01*
X51630Y93979D01*
X52038Y94011D01*
X52436Y94106D01*
X52814Y94263D01*
X53163Y94477D01*
X53474Y94742D01*
X53740Y95054D01*
X53954Y95403D01*
X54071Y95687D01*
X60376D01*
Y3587D01*
G37*
G36*
X48425D02*X31376D01*
Y82092D01*
X31436Y82106D01*
X31814Y82263D01*
X32163Y82477D01*
X32474Y82742D01*
X32740Y83054D01*
X32954Y83403D01*
X33110Y83781D01*
X33206Y84179D01*
X33230Y84587D01*
X33206Y84995D01*
X33110Y85393D01*
X32963Y85747D01*
X32989Y85808D01*
X33022Y85945D01*
X33033Y86087D01*
X33030Y86122D01*
Y97645D01*
X33314Y97763D01*
X33663Y97977D01*
X33974Y98242D01*
X34240Y98554D01*
X34454Y98903D01*
X34610Y99281D01*
X34706Y99679D01*
X34730Y100087D01*
X34706Y100495D01*
X34610Y100893D01*
X34454Y101271D01*
X34240Y101620D01*
X33974Y101931D01*
X33663Y102197D01*
X33314Y102410D01*
X32936Y102567D01*
X32538Y102663D01*
X32130Y102695D01*
X31722Y102663D01*
X31376Y102579D01*
Y116286D01*
X31394Y116275D01*
X31830Y116095D01*
X32289Y115984D01*
X32760Y115947D01*
X33231Y115984D01*
X33690Y116095D01*
X34126Y116275D01*
X34529Y116522D01*
X34888Y116829D01*
X35194Y117188D01*
X35441Y117591D01*
X35622Y118027D01*
X35732Y118486D01*
X35760Y118957D01*
X35732Y119427D01*
X35622Y119887D01*
X35441Y120323D01*
X35194Y120725D01*
X34888Y121085D01*
X34529Y121391D01*
X34126Y121638D01*
X33690Y121819D01*
X33231Y121929D01*
X32760Y121966D01*
X32289Y121929D01*
X31830Y121819D01*
X31394Y121638D01*
X31376Y121627D01*
Y167087D01*
X48425D01*
Y126060D01*
X45522Y123157D01*
X45496Y123173D01*
X45060Y123353D01*
X44601Y123464D01*
X44130Y123501D01*
X43659Y123464D01*
X43200Y123353D01*
X42764Y123173D01*
X42361Y122926D01*
X42002Y122619D01*
X41695Y122260D01*
X41449Y121858D01*
X41268Y121421D01*
X41158Y120962D01*
X41121Y120491D01*
X41158Y120021D01*
X41268Y119561D01*
X41449Y119125D01*
X41695Y118723D01*
X42002Y118363D01*
X42361Y118057D01*
X42764Y117810D01*
X43200Y117629D01*
X43659Y117519D01*
X44130Y117482D01*
X44601Y117519D01*
X45060Y117629D01*
X45496Y117810D01*
X45899Y118057D01*
X46258Y118363D01*
X46564Y118723D01*
X46811Y119125D01*
X46992Y119561D01*
X47102Y120021D01*
X47130Y120491D01*
X47102Y120962D01*
X46992Y121421D01*
X46811Y121858D01*
X46795Y121884D01*
X48425Y123514D01*
Y3587D01*
G37*
G36*
X31376Y121627D02*X30991Y121391D01*
X30632Y121085D01*
X30325Y120725D01*
X30079Y120323D01*
X29898Y119887D01*
X29891Y119857D01*
X27795D01*
X27760Y119859D01*
X27619Y119848D01*
X27481Y119815D01*
X27350Y119761D01*
X27229Y119687D01*
X27121Y119595D01*
X27099Y119568D01*
X25630Y118100D01*
Y167087D01*
X31376D01*
Y121627D01*
G37*
G36*
Y3587D02*X25630D01*
Y115554D01*
X28133Y118057D01*
X29891D01*
X29898Y118027D01*
X30079Y117591D01*
X30325Y117188D01*
X30632Y116829D01*
X30991Y116522D01*
X31376Y116286D01*
Y102579D01*
X31324Y102567D01*
X30946Y102410D01*
X30597Y102197D01*
X30286Y101931D01*
X30020Y101620D01*
X29806Y101271D01*
X29650Y100893D01*
X29554Y100495D01*
X29522Y100087D01*
X29554Y99679D01*
X29650Y99281D01*
X29806Y98903D01*
X30020Y98554D01*
X30286Y98242D01*
X30597Y97977D01*
X30946Y97763D01*
X31230Y97645D01*
Y87116D01*
X31038Y87163D01*
X30630Y87195D01*
X30222Y87163D01*
X29824Y87067D01*
X29446Y86910D01*
X29097Y86697D01*
X28786Y86431D01*
X28520Y86120D01*
X28306Y85771D01*
X28150Y85393D01*
X28054Y84995D01*
X28022Y84587D01*
X28054Y84179D01*
X28150Y83781D01*
X28306Y83403D01*
X28520Y83054D01*
X28786Y82742D01*
X29097Y82477D01*
X29446Y82263D01*
X29824Y82106D01*
X30222Y82011D01*
X30630Y81979D01*
X31038Y82011D01*
X31376Y82092D01*
Y3587D01*
G37*
G36*
X105880Y77033D02*Y103862D01*
X111130Y109112D01*
Y80984D01*
X110916Y80801D01*
X110650Y80490D01*
X110436Y80141D01*
X110279Y79763D01*
X110184Y79365D01*
X110152Y78957D01*
X110184Y78549D01*
X110279Y78151D01*
X110436Y77773D01*
X110650Y77424D01*
X110916Y77113D01*
X111130Y76930D01*
Y74100D01*
X109387Y72357D01*
X106138D01*
X106258Y72459D01*
X106564Y72818D01*
X106811Y73220D01*
X106992Y73657D01*
X107102Y74116D01*
X107130Y74587D01*
X107102Y75057D01*
X106992Y75517D01*
X106811Y75953D01*
X106564Y76355D01*
X106258Y76714D01*
X105899Y77021D01*
X105880Y77033D01*
G37*
G36*
X104804Y70557D02*X109725D01*
X109760Y70554D01*
X109901Y70565D01*
X109901Y70565D01*
X110039Y70598D01*
X110170Y70652D01*
X110290Y70726D01*
X110398Y70818D01*
X110421Y70845D01*
X111130Y71554D01*
Y70484D01*
X110916Y70301D01*
X110650Y69990D01*
X110436Y69641D01*
X110318Y69357D01*
X105701D01*
X105584Y69641D01*
X105370Y69990D01*
X105104Y70301D01*
X104804Y70557D01*
G37*
G36*
X101990Y72473D02*X102002Y72459D01*
X102122Y72357D01*
X101990D01*
Y72473D01*
G37*
G36*
Y99730D02*X102258Y99959D01*
X102380Y100102D01*
Y77033D01*
X102361Y77021D01*
X102002Y76714D01*
X101990Y76701D01*
Y99730D01*
G37*
G36*
X125163Y167087D02*X135130D01*
Y3587D01*
X125163D01*
Y22255D01*
X125173Y22254D01*
X126257Y22340D01*
X127314Y22593D01*
X128318Y23009D01*
X129245Y23577D01*
X130071Y24283D01*
X130777Y25110D01*
X131345Y26036D01*
X131761Y27041D01*
X132015Y28098D01*
X132079Y29181D01*
X132015Y30265D01*
X131761Y31322D01*
X131345Y32326D01*
X130777Y33253D01*
X130071Y34079D01*
X129245Y34785D01*
X128318Y35353D01*
X127314Y35769D01*
X126257Y36023D01*
X125173Y36108D01*
X125163Y36107D01*
Y61625D01*
X125173Y61624D01*
X126257Y61710D01*
X127314Y61963D01*
X128318Y62379D01*
X129245Y62947D01*
X130071Y63653D01*
X130777Y64480D01*
X131345Y65406D01*
X131761Y66411D01*
X132015Y67468D01*
X132079Y68551D01*
X132015Y69635D01*
X131761Y70692D01*
X131345Y71696D01*
X130777Y72623D01*
X130071Y73449D01*
X129245Y74155D01*
X128318Y74723D01*
X127314Y75139D01*
X126257Y75393D01*
X125173Y75478D01*
X125163Y75477D01*
Y100995D01*
X125173Y100994D01*
X126257Y101080D01*
X127314Y101333D01*
X128318Y101749D01*
X129245Y102317D01*
X130071Y103023D01*
X130777Y103850D01*
X131345Y104777D01*
X131761Y105781D01*
X132015Y106838D01*
X132079Y107921D01*
X132015Y109005D01*
X131761Y110062D01*
X131345Y111066D01*
X130777Y111993D01*
X130071Y112819D01*
X129245Y113525D01*
X128318Y114093D01*
X127314Y114509D01*
X126257Y114763D01*
X125173Y114848D01*
X125163Y114847D01*
Y140365D01*
X125173Y140365D01*
X126257Y140450D01*
X127314Y140704D01*
X128318Y141120D01*
X129245Y141687D01*
X130071Y142393D01*
X130777Y143220D01*
X131345Y144147D01*
X131761Y145151D01*
X132015Y146208D01*
X132079Y147291D01*
X132015Y148375D01*
X131761Y149432D01*
X131345Y150436D01*
X130777Y151363D01*
X130071Y152189D01*
X129245Y152895D01*
X128318Y153463D01*
X127314Y153879D01*
X126257Y154133D01*
X125173Y154218D01*
X125163Y154217D01*
Y167087D01*
G37*
G36*
X101990D02*X125163D01*
Y154217D01*
X124090Y154133D01*
X123033Y153879D01*
X122029Y153463D01*
X121102Y152895D01*
X120275Y152189D01*
X119569Y151363D01*
X119001Y150436D01*
X118585Y149432D01*
X118332Y148375D01*
X118246Y147291D01*
X118332Y146208D01*
X118585Y145151D01*
X119001Y144147D01*
X119569Y143220D01*
X120275Y142393D01*
X121102Y141687D01*
X122029Y141120D01*
X123033Y140704D01*
X124090Y140450D01*
X125163Y140365D01*
Y114847D01*
X124090Y114763D01*
X123033Y114509D01*
X122029Y114093D01*
X121102Y113525D01*
X120275Y112819D01*
X119569Y111993D01*
X119001Y111066D01*
X118585Y110062D01*
X118332Y109005D01*
X118246Y107921D01*
X118332Y106838D01*
X118585Y105781D01*
X119001Y104777D01*
X119569Y103850D01*
X120275Y103023D01*
X121102Y102317D01*
X122029Y101749D01*
X123033Y101333D01*
X124090Y101080D01*
X125163Y100995D01*
Y75477D01*
X124090Y75393D01*
X123033Y75139D01*
X122029Y74723D01*
X121102Y74155D01*
X120275Y73449D01*
X119569Y72623D01*
X119001Y71696D01*
X118585Y70692D01*
X118332Y69635D01*
X118246Y68551D01*
X118332Y67468D01*
X118585Y66411D01*
X119001Y65406D01*
X119569Y64480D01*
X120275Y63653D01*
X121102Y62947D01*
X122029Y62379D01*
X123033Y61963D01*
X124090Y61710D01*
X125163Y61625D01*
Y36107D01*
X124090Y36023D01*
X123033Y35769D01*
X122029Y35353D01*
X121102Y34785D01*
X120275Y34079D01*
X119569Y33253D01*
X119001Y32326D01*
X118585Y31322D01*
X118332Y30265D01*
X118246Y29181D01*
X118332Y28098D01*
X118585Y27041D01*
X119001Y26036D01*
X119569Y25110D01*
X120275Y24283D01*
X121102Y23577D01*
X122029Y23009D01*
X123033Y22593D01*
X124090Y22340D01*
X125163Y22255D01*
Y3587D01*
X101990D01*
Y58622D01*
X102228Y58641D01*
X102626Y58736D01*
X103004Y58893D01*
X103353Y59107D01*
X103664Y59372D01*
X103930Y59684D01*
X104144Y60033D01*
X104261Y60317D01*
X105627D01*
X109897Y56047D01*
X109779Y55763D01*
X109684Y55365D01*
X109652Y54957D01*
X109684Y54549D01*
X109779Y54151D01*
X109936Y53773D01*
X110150Y53424D01*
X110416Y53113D01*
X110727Y52847D01*
X111076Y52633D01*
X111454Y52476D01*
X111852Y52381D01*
X112260Y52349D01*
X112668Y52381D01*
X113066Y52476D01*
X113444Y52633D01*
X113793Y52847D01*
X114104Y53113D01*
X114370Y53424D01*
X114584Y53773D01*
X114740Y54151D01*
X114836Y54549D01*
X114860Y54957D01*
X114836Y55365D01*
X114740Y55763D01*
X114584Y56141D01*
X114370Y56490D01*
X114104Y56801D01*
X113793Y57067D01*
X113444Y57280D01*
X113066Y57437D01*
X112668Y57533D01*
X112260Y57565D01*
X111852Y57533D01*
X111454Y57437D01*
X111170Y57319D01*
X106661Y61828D01*
X106638Y61855D01*
X106531Y61947D01*
X106410Y62021D01*
X106279Y62075D01*
X106141Y62108D01*
X106141Y62108D01*
X106000Y62119D01*
X105965Y62117D01*
X104261D01*
X104144Y62401D01*
X103930Y62749D01*
X103664Y63061D01*
X103353Y63326D01*
X103004Y63540D01*
X102626Y63697D01*
X102228Y63792D01*
X101990Y63811D01*
Y66185D01*
X102076Y66133D01*
X102454Y65976D01*
X102852Y65881D01*
X103260Y65849D01*
X103668Y65881D01*
X104066Y65976D01*
X104444Y66133D01*
X104793Y66347D01*
X105104Y66613D01*
X105370Y66924D01*
X105584Y67273D01*
X105701Y67557D01*
X110318D01*
X110436Y67273D01*
X110650Y66924D01*
X110916Y66613D01*
X111227Y66347D01*
X111576Y66133D01*
X111954Y65976D01*
X112352Y65881D01*
X112760Y65849D01*
X113168Y65881D01*
X113566Y65976D01*
X113944Y66133D01*
X114293Y66347D01*
X114604Y66613D01*
X114870Y66924D01*
X115084Y67273D01*
X115240Y67651D01*
X115336Y68049D01*
X115360Y68457D01*
X115336Y68865D01*
X115240Y69263D01*
X115084Y69641D01*
X114870Y69990D01*
X114604Y70301D01*
X114293Y70567D01*
X113944Y70780D01*
X113566Y70937D01*
X113168Y71033D01*
X112760Y71065D01*
X112352Y71033D01*
X111954Y70937D01*
X111576Y70780D01*
X111227Y70567D01*
X110916Y70301D01*
X110650Y69990D01*
X110436Y69641D01*
X110318Y69357D01*
X105701D01*
X105584Y69641D01*
X105370Y69990D01*
X105104Y70301D01*
X104804Y70557D01*
X109725D01*
X109760Y70554D01*
X109901Y70565D01*
X109901Y70565D01*
X110039Y70598D01*
X110170Y70652D01*
X110290Y70726D01*
X110398Y70818D01*
X110421Y70845D01*
X113371Y73795D01*
X113398Y73818D01*
X113490Y73926D01*
X113490Y73926D01*
X113564Y74047D01*
X113618Y74178D01*
X113652Y74315D01*
X113663Y74457D01*
X113660Y74492D01*
Y76515D01*
X113944Y76633D01*
X114293Y76847D01*
X114604Y77113D01*
X114870Y77424D01*
X115084Y77773D01*
X115240Y78151D01*
X115336Y78549D01*
X115360Y78957D01*
X115336Y79365D01*
X115240Y79763D01*
X115084Y80141D01*
X114870Y80490D01*
X114604Y80801D01*
X114293Y81067D01*
X113944Y81280D01*
X113566Y81437D01*
X113168Y81533D01*
X112760Y81565D01*
X112352Y81533D01*
X111954Y81437D01*
X111576Y81280D01*
X111227Y81067D01*
X110916Y80801D01*
X110650Y80490D01*
X110436Y80141D01*
X110279Y79763D01*
X110184Y79365D01*
X110152Y78957D01*
X110184Y78549D01*
X110279Y78151D01*
X110436Y77773D01*
X110650Y77424D01*
X110916Y77113D01*
X111227Y76847D01*
X111576Y76633D01*
X111860Y76515D01*
Y74829D01*
X109387Y72357D01*
X106138D01*
X106258Y72459D01*
X106564Y72818D01*
X106811Y73220D01*
X106992Y73657D01*
X107102Y74116D01*
X107130Y74587D01*
X107102Y75057D01*
X106992Y75517D01*
X106811Y75953D01*
X106564Y76355D01*
X106258Y76714D01*
X105899Y77021D01*
X105880Y77033D01*
Y103862D01*
X111319Y109301D01*
X111371Y109345D01*
X111550Y109555D01*
X111694Y109790D01*
X111799Y110044D01*
X111864Y110312D01*
X111885Y110587D01*
X111880Y110655D01*
Y131518D01*
X111885Y131587D01*
X111864Y131861D01*
X111864Y131861D01*
X111799Y132129D01*
X111694Y132384D01*
X111550Y132618D01*
X111371Y132828D01*
X111319Y132873D01*
X110727Y133465D01*
X110732Y133486D01*
X110760Y133957D01*
X110732Y134427D01*
X110622Y134887D01*
X110441Y135323D01*
X110194Y135725D01*
X109888Y136085D01*
X109529Y136391D01*
X109126Y136638D01*
X108690Y136819D01*
X108231Y136929D01*
X107760Y136966D01*
X107289Y136929D01*
X106830Y136819D01*
X106394Y136638D01*
X105991Y136391D01*
X105632Y136085D01*
X105325Y135725D01*
X105079Y135323D01*
X104898Y134887D01*
X104788Y134427D01*
X104751Y133957D01*
X104788Y133486D01*
X104898Y133027D01*
X105079Y132591D01*
X105325Y132188D01*
X105632Y131829D01*
X105991Y131522D01*
X106394Y131275D01*
X106830Y131095D01*
X107289Y130984D01*
X107760Y130947D01*
X108231Y130984D01*
X108252Y130990D01*
X108380Y130862D01*
Y111311D01*
X102941Y105873D01*
X102889Y105828D01*
X102710Y105618D01*
X102566Y105384D01*
X102460Y105129D01*
X102396Y104861D01*
X102396Y104861D01*
X102375Y104587D01*
X102380Y104518D01*
Y104071D01*
X102258Y104214D01*
X101990Y104443D01*
Y134371D01*
X102163Y134477D01*
X102474Y134742D01*
X102740Y135054D01*
X102954Y135403D01*
X103110Y135781D01*
X103206Y136179D01*
X103230Y136587D01*
X103206Y136995D01*
X103110Y137393D01*
X102954Y137771D01*
X102740Y138120D01*
X102474Y138431D01*
X102163Y138697D01*
X101990Y138802D01*
Y167087D01*
G37*
G36*
X73753D02*X101990D01*
Y138802D01*
X101814Y138910D01*
X101436Y139067D01*
X101038Y139163D01*
X100630Y139195D01*
X100222Y139163D01*
X99824Y139067D01*
X99446Y138910D01*
X99097Y138697D01*
X98786Y138431D01*
X98520Y138120D01*
X98306Y137771D01*
X98150Y137393D01*
X98054Y136995D01*
X98022Y136587D01*
X98054Y136179D01*
X98150Y135781D01*
X98267Y135497D01*
X96627Y133857D01*
X83295D01*
X83260Y133859D01*
X83119Y133848D01*
X82981Y133815D01*
X82850Y133761D01*
X82729Y133687D01*
X82729Y133687D01*
X82621Y133595D01*
X82599Y133568D01*
X82152Y133122D01*
X82126Y133138D01*
X81690Y133319D01*
X81231Y133429D01*
X80760Y133466D01*
X80289Y133429D01*
X79830Y133319D01*
X79394Y133138D01*
X78991Y132891D01*
X78632Y132585D01*
X78325Y132225D01*
X78079Y131823D01*
X77898Y131387D01*
X77788Y130927D01*
X77751Y130457D01*
X77788Y129986D01*
X77898Y129527D01*
X78079Y129091D01*
X78325Y128688D01*
X78632Y128329D01*
X78991Y128022D01*
X79394Y127775D01*
X79830Y127595D01*
X80289Y127484D01*
X80760Y127447D01*
X81231Y127484D01*
X81690Y127595D01*
X82126Y127775D01*
X82529Y128022D01*
X82888Y128329D01*
X83194Y128688D01*
X83441Y129091D01*
X83622Y129527D01*
X83732Y129986D01*
X83760Y130457D01*
X83732Y130927D01*
X83622Y131387D01*
X83441Y131823D01*
X83425Y131849D01*
X83633Y132057D01*
X96965D01*
X97000Y132054D01*
X97141Y132065D01*
X97141Y132065D01*
X97279Y132098D01*
X97410Y132152D01*
X97531Y132226D01*
X97638Y132318D01*
X97661Y132345D01*
X99540Y134224D01*
X99824Y134106D01*
X100222Y134011D01*
X100630Y133979D01*
X101038Y134011D01*
X101436Y134106D01*
X101814Y134263D01*
X101990Y134371D01*
Y104443D01*
X101899Y104521D01*
X101496Y104768D01*
X101060Y104949D01*
X100601Y105059D01*
X100130Y105096D01*
X99659Y105059D01*
X99200Y104949D01*
X98764Y104768D01*
X98361Y104521D01*
X98002Y104214D01*
X97695Y103855D01*
X97684Y103837D01*
X94076D01*
X94064Y103855D01*
X93758Y104214D01*
X93399Y104521D01*
X92996Y104768D01*
X92560Y104949D01*
X92101Y105059D01*
X91630Y105096D01*
X91159Y105059D01*
X90700Y104949D01*
X90264Y104768D01*
X89861Y104521D01*
X89502Y104214D01*
X89195Y103855D01*
X88949Y103453D01*
X88768Y103017D01*
X88658Y102557D01*
X88621Y102087D01*
X88658Y101616D01*
X88768Y101157D01*
X88949Y100720D01*
X89195Y100318D01*
X89502Y99959D01*
X89861Y99652D01*
X90264Y99405D01*
X90700Y99225D01*
X91159Y99114D01*
X91630Y99077D01*
X92101Y99114D01*
X92560Y99225D01*
X92996Y99405D01*
X93399Y99652D01*
X93758Y99959D01*
X94064Y100318D01*
X94076Y100337D01*
X97684D01*
X97695Y100318D01*
X98002Y99959D01*
X98361Y99652D01*
X98764Y99405D01*
X99200Y99225D01*
X99659Y99114D01*
X100130Y99077D01*
X100601Y99114D01*
X101060Y99225D01*
X101496Y99405D01*
X101899Y99652D01*
X101990Y99730D01*
Y76701D01*
X101695Y76355D01*
X101449Y75953D01*
X101268Y75517D01*
X101158Y75057D01*
X101121Y74587D01*
X101158Y74116D01*
X101268Y73657D01*
X101449Y73220D01*
X101695Y72818D01*
X101990Y72473D01*
Y72357D01*
X101295D01*
X101260Y72359D01*
X101119Y72348D01*
X100981Y72315D01*
X100850Y72261D01*
X100729Y72187D01*
X100729Y72187D01*
X100621Y72095D01*
X100599Y72068D01*
X99887Y71357D01*
X97701D01*
X97584Y71641D01*
X97370Y71990D01*
X97104Y72301D01*
X96793Y72567D01*
X96444Y72780D01*
X96066Y72937D01*
X95668Y73033D01*
X95260Y73065D01*
X94852Y73033D01*
X94454Y72937D01*
X94076Y72780D01*
X93727Y72567D01*
X93416Y72301D01*
X93150Y71990D01*
X92936Y71641D01*
X92779Y71263D01*
X92684Y70865D01*
X92652Y70457D01*
X92684Y70049D01*
X92779Y69651D01*
X92936Y69273D01*
X93150Y68924D01*
X93416Y68613D01*
X93727Y68347D01*
X94076Y68133D01*
X94454Y67976D01*
X94852Y67881D01*
X95260Y67849D01*
X95668Y67881D01*
X96066Y67976D01*
X96444Y68133D01*
X96793Y68347D01*
X97104Y68613D01*
X97370Y68924D01*
X97584Y69273D01*
X97701Y69557D01*
X100225D01*
X100260Y69554D01*
X100401Y69565D01*
X100401Y69565D01*
X100539Y69598D01*
X100670Y69652D01*
X100790Y69726D01*
X100898Y69818D01*
X100921Y69845D01*
X101633Y70557D01*
X101715D01*
X101416Y70301D01*
X101150Y69990D01*
X100936Y69641D01*
X100779Y69263D01*
X100684Y68865D01*
X100652Y68457D01*
X100684Y68049D01*
X100779Y67651D01*
X100936Y67273D01*
X101150Y66924D01*
X101416Y66613D01*
X101727Y66347D01*
X101990Y66185D01*
Y63811D01*
X101820Y63825D01*
X101412Y63792D01*
X101014Y63697D01*
X100636Y63540D01*
X100287Y63326D01*
X99976Y63061D01*
X99710Y62749D01*
X99496Y62401D01*
X99340Y62022D01*
X99244Y61625D01*
X99212Y61217D01*
X99244Y60809D01*
X99340Y60411D01*
X99496Y60033D01*
X99710Y59684D01*
X99976Y59372D01*
X100287Y59107D01*
X100636Y58893D01*
X101014Y58736D01*
X101412Y58641D01*
X101820Y58609D01*
X101990Y58622D01*
Y3587D01*
X73753D01*
Y122488D01*
X74038Y122511D01*
X74436Y122606D01*
X74814Y122763D01*
X75163Y122977D01*
X75474Y123242D01*
X75740Y123554D01*
X75954Y123903D01*
X76110Y124281D01*
X76206Y124679D01*
X76230Y125087D01*
X76206Y125495D01*
X76110Y125893D01*
X75954Y126271D01*
X75740Y126620D01*
X75474Y126931D01*
X75163Y127197D01*
X74814Y127410D01*
X74436Y127567D01*
X74038Y127663D01*
X73753Y127685D01*
Y146805D01*
X73996Y146905D01*
X74399Y147152D01*
X74758Y147459D01*
X75064Y147818D01*
X75076Y147837D01*
X76130D01*
X76405Y147853D01*
X76672Y147917D01*
X76927Y148023D01*
X77162Y148166D01*
X77371Y148345D01*
X77550Y148555D01*
X77694Y148790D01*
X77799Y149044D01*
X77864Y149312D01*
X77885Y149587D01*
X77864Y149861D01*
X77799Y150129D01*
X77694Y150384D01*
X77550Y150618D01*
X77371Y150828D01*
X77162Y151007D01*
X76927Y151151D01*
X76672Y151256D01*
X76405Y151320D01*
X76130Y151337D01*
X75076D01*
X75064Y151355D01*
X74758Y151714D01*
X74399Y152021D01*
X73996Y152268D01*
X73753Y152369D01*
Y167087D01*
G37*
G36*
Y3587D02*X60376D01*
Y95687D01*
X66095D01*
X66130Y95684D01*
X66271Y95695D01*
X66271Y95695D01*
X66409Y95728D01*
X66540Y95782D01*
X66661Y95856D01*
X66768Y95948D01*
X66791Y95975D01*
X68040Y97224D01*
X68324Y97106D01*
X68722Y97011D01*
X69130Y96979D01*
X69538Y97011D01*
X69936Y97106D01*
X70314Y97263D01*
X70663Y97477D01*
X70974Y97742D01*
X71240Y98054D01*
X71454Y98403D01*
X71610Y98781D01*
X71706Y99179D01*
X71730Y99587D01*
X71706Y99995D01*
X71610Y100393D01*
X71454Y100771D01*
X71240Y101120D01*
X70974Y101431D01*
X70663Y101697D01*
X70314Y101910D01*
X69936Y102067D01*
X69538Y102163D01*
X69130Y102195D01*
X68722Y102163D01*
X68324Y102067D01*
X67946Y101910D01*
X67597Y101697D01*
X67286Y101431D01*
X67020Y101120D01*
X66806Y100771D01*
X66650Y100393D01*
X66554Y99995D01*
X66522Y99587D01*
X66554Y99179D01*
X66650Y98781D01*
X66767Y98497D01*
X65757Y97487D01*
X62175D01*
X62474Y97742D01*
X62740Y98054D01*
X62954Y98403D01*
X63110Y98781D01*
X63206Y99179D01*
X63230Y99587D01*
X63206Y99995D01*
X63110Y100393D01*
X62993Y100677D01*
X66241Y103925D01*
X66268Y103948D01*
X66360Y104056D01*
X66360Y104056D01*
X66383Y104094D01*
X66436Y104106D01*
X66814Y104263D01*
X67163Y104477D01*
X67474Y104742D01*
X67740Y105054D01*
X67954Y105403D01*
X68110Y105781D01*
X68206Y106179D01*
X68230Y106587D01*
X68206Y106995D01*
X68110Y107393D01*
X67954Y107771D01*
X67740Y108120D01*
X67474Y108431D01*
X67163Y108697D01*
X66814Y108910D01*
X66436Y109067D01*
X66038Y109163D01*
X65630Y109195D01*
X65222Y109163D01*
X64824Y109067D01*
X64446Y108910D01*
X64097Y108697D01*
X63786Y108431D01*
X63520Y108120D01*
X63306Y107771D01*
X63150Y107393D01*
X63054Y106995D01*
X63022Y106587D01*
X63054Y106179D01*
X63150Y105781D01*
X63306Y105403D01*
X63520Y105054D01*
X63786Y104742D01*
X64097Y104477D01*
X64190Y104420D01*
X61720Y101949D01*
X61436Y102067D01*
X61038Y102163D01*
X60630Y102195D01*
X60376Y102175D01*
Y119665D01*
X60597Y119477D01*
X60946Y119263D01*
X61324Y119106D01*
X61722Y119011D01*
X62130Y118979D01*
X62538Y119011D01*
X62936Y119106D01*
X63314Y119263D01*
X63663Y119477D01*
X63974Y119742D01*
X64240Y120054D01*
X64454Y120403D01*
X64571Y120687D01*
X70095D01*
X70130Y120684D01*
X70271Y120695D01*
X70271Y120695D01*
X70409Y120728D01*
X70540Y120782D01*
X70661Y120856D01*
X70768Y120948D01*
X70791Y120975D01*
X72540Y122724D01*
X72824Y122606D01*
X73222Y122511D01*
X73630Y122479D01*
X73753Y122488D01*
Y3587D01*
G37*
G36*
X60376Y167087D02*X73753D01*
Y152369D01*
X73560Y152449D01*
X73101Y152559D01*
X72630Y152596D01*
X72159Y152559D01*
X71700Y152449D01*
X71264Y152268D01*
X70861Y152021D01*
X70502Y151714D01*
X70195Y151355D01*
X69949Y150953D01*
X69768Y150517D01*
X69658Y150057D01*
X69621Y149587D01*
X69658Y149116D01*
X69768Y148657D01*
X69949Y148220D01*
X70195Y147818D01*
X70502Y147459D01*
X70861Y147152D01*
X71264Y146905D01*
X71700Y146725D01*
X72159Y146614D01*
X72630Y146577D01*
X73101Y146614D01*
X73560Y146725D01*
X73753Y146805D01*
Y127685D01*
X73630Y127695D01*
X73222Y127663D01*
X72824Y127567D01*
X72446Y127410D01*
X72097Y127197D01*
X71786Y126931D01*
X71520Y126620D01*
X71306Y126271D01*
X71150Y125893D01*
X71054Y125495D01*
X71022Y125087D01*
X71054Y124679D01*
X71150Y124281D01*
X71267Y123997D01*
X69757Y122487D01*
X64571D01*
X64454Y122771D01*
X64240Y123120D01*
X63974Y123431D01*
X63663Y123697D01*
X63314Y123910D01*
X62936Y124067D01*
X62538Y124163D01*
X62130Y124195D01*
X61722Y124163D01*
X61324Y124067D01*
X60946Y123910D01*
X60597Y123697D01*
X60376Y123508D01*
Y167087D01*
G37*
G36*
X48425D02*X60376D01*
Y123508D01*
X60286Y123431D01*
X60020Y123120D01*
X59806Y122771D01*
X59650Y122393D01*
X59554Y121995D01*
X59522Y121587D01*
X59554Y121179D01*
X59650Y120781D01*
X59806Y120403D01*
X60020Y120054D01*
X60286Y119742D01*
X60376Y119665D01*
Y102175D01*
X60222Y102163D01*
X59824Y102067D01*
X59446Y101910D01*
X59097Y101697D01*
X58786Y101431D01*
X58520Y101120D01*
X58306Y100771D01*
X58150Y100393D01*
X58054Y99995D01*
X58022Y99587D01*
X58054Y99179D01*
X58150Y98781D01*
X58306Y98403D01*
X58520Y98054D01*
X58786Y97742D01*
X59085Y97487D01*
X54071D01*
X53954Y97771D01*
X53740Y98120D01*
X53474Y98431D01*
X53163Y98697D01*
X52814Y98910D01*
X52436Y99067D01*
X52038Y99163D01*
X51630Y99195D01*
X51222Y99163D01*
X50824Y99067D01*
X50446Y98910D01*
X50097Y98697D01*
X49786Y98431D01*
X49520Y98120D01*
X49306Y97771D01*
X49150Y97393D01*
X49054Y96995D01*
X49022Y96587D01*
X49054Y96179D01*
X49150Y95781D01*
X49306Y95403D01*
X49520Y95054D01*
X49786Y94742D01*
X50097Y94477D01*
X50446Y94263D01*
X50824Y94106D01*
X51222Y94011D01*
X51630Y93979D01*
X52038Y94011D01*
X52436Y94106D01*
X52814Y94263D01*
X53163Y94477D01*
X53474Y94742D01*
X53740Y95054D01*
X53954Y95403D01*
X54071Y95687D01*
X60376D01*
Y3587D01*
X48425D01*
Y123514D01*
X53741Y128830D01*
X53768Y128853D01*
X53860Y128961D01*
X53934Y129081D01*
X53989Y129212D01*
X54022Y129350D01*
X54033Y129491D01*
X54030Y129527D01*
Y132645D01*
X54314Y132763D01*
X54663Y132977D01*
X54974Y133242D01*
X55240Y133554D01*
X55454Y133903D01*
X55610Y134281D01*
X55706Y134679D01*
X55730Y135087D01*
X55706Y135495D01*
X55610Y135893D01*
X55454Y136271D01*
X55240Y136620D01*
X54974Y136931D01*
X54663Y137197D01*
X54314Y137410D01*
X53936Y137567D01*
X53538Y137663D01*
X53130Y137695D01*
X52722Y137663D01*
X52324Y137567D01*
X51946Y137410D01*
X51597Y137197D01*
X51286Y136931D01*
X51020Y136620D01*
X50806Y136271D01*
X50650Y135893D01*
X50554Y135495D01*
X50522Y135087D01*
X50554Y134679D01*
X50650Y134281D01*
X50806Y133903D01*
X51020Y133554D01*
X51286Y133242D01*
X51597Y132977D01*
X51946Y132763D01*
X52230Y132645D01*
Y129864D01*
X48425Y126060D01*
Y167087D01*
G37*
G36*
X31376D02*X48425D01*
Y126060D01*
X45522Y123157D01*
X45496Y123173D01*
X45060Y123353D01*
X44601Y123464D01*
X44130Y123501D01*
X43659Y123464D01*
X43200Y123353D01*
X42764Y123173D01*
X42361Y122926D01*
X42002Y122619D01*
X41695Y122260D01*
X41449Y121858D01*
X41268Y121421D01*
X41158Y120962D01*
X41121Y120491D01*
X41158Y120021D01*
X41268Y119561D01*
X41449Y119125D01*
X41695Y118723D01*
X42002Y118363D01*
X42361Y118057D01*
X42764Y117810D01*
X43200Y117629D01*
X43659Y117519D01*
X44130Y117482D01*
X44601Y117519D01*
X45060Y117629D01*
X45496Y117810D01*
X45899Y118057D01*
X46258Y118363D01*
X46564Y118723D01*
X46811Y119125D01*
X46992Y119561D01*
X47102Y120021D01*
X47130Y120491D01*
X47102Y120962D01*
X46992Y121421D01*
X46811Y121858D01*
X46795Y121884D01*
X48425Y123514D01*
Y3587D01*
X31376D01*
Y82092D01*
X31436Y82106D01*
X31814Y82263D01*
X32163Y82477D01*
X32474Y82742D01*
X32740Y83054D01*
X32954Y83403D01*
X33110Y83781D01*
X33206Y84179D01*
X33230Y84587D01*
X33206Y84995D01*
X33110Y85393D01*
X32963Y85747D01*
X32989Y85808D01*
X33022Y85945D01*
X33033Y86087D01*
X33030Y86122D01*
Y97645D01*
X33314Y97763D01*
X33663Y97977D01*
X33974Y98242D01*
X34240Y98554D01*
X34454Y98903D01*
X34610Y99281D01*
X34706Y99679D01*
X34730Y100087D01*
X34706Y100495D01*
X34610Y100893D01*
X34454Y101271D01*
X34240Y101620D01*
X33974Y101931D01*
X33663Y102197D01*
X33314Y102410D01*
X32936Y102567D01*
X32538Y102663D01*
X32130Y102695D01*
X31722Y102663D01*
X31376Y102579D01*
Y116286D01*
X31394Y116275D01*
X31830Y116095D01*
X32289Y115984D01*
X32760Y115947D01*
X33231Y115984D01*
X33690Y116095D01*
X34126Y116275D01*
X34529Y116522D01*
X34888Y116829D01*
X35194Y117188D01*
X35441Y117591D01*
X35622Y118027D01*
X35732Y118486D01*
X35760Y118957D01*
X35732Y119427D01*
X35622Y119887D01*
X35441Y120323D01*
X35194Y120725D01*
X34888Y121085D01*
X34529Y121391D01*
X34126Y121638D01*
X33690Y121819D01*
X33231Y121929D01*
X32760Y121966D01*
X32289Y121929D01*
X31830Y121819D01*
X31394Y121638D01*
X31376Y121627D01*
Y167087D01*
G37*
G36*
Y3587D02*X27206D01*
Y117130D01*
X28133Y118057D01*
X29891D01*
X29898Y118027D01*
X30079Y117591D01*
X30325Y117188D01*
X30632Y116829D01*
X30991Y116522D01*
X31376Y116286D01*
Y102579D01*
X31324Y102567D01*
X30946Y102410D01*
X30597Y102197D01*
X30286Y101931D01*
X30020Y101620D01*
X29806Y101271D01*
X29650Y100893D01*
X29554Y100495D01*
X29522Y100087D01*
X29554Y99679D01*
X29650Y99281D01*
X29806Y98903D01*
X30020Y98554D01*
X30286Y98242D01*
X30597Y97977D01*
X30946Y97763D01*
X31230Y97645D01*
Y87116D01*
X31038Y87163D01*
X30630Y87195D01*
X30222Y87163D01*
X29824Y87067D01*
X29446Y86910D01*
X29097Y86697D01*
X28786Y86431D01*
X28520Y86120D01*
X28306Y85771D01*
X28150Y85393D01*
X28054Y84995D01*
X28022Y84587D01*
X28054Y84179D01*
X28150Y83781D01*
X28306Y83403D01*
X28520Y83054D01*
X28786Y82742D01*
X29097Y82477D01*
X29446Y82263D01*
X29824Y82106D01*
X30222Y82011D01*
X30630Y81979D01*
X31038Y82011D01*
X31376Y82092D01*
Y3587D01*
G37*
G36*
X27206Y167087D02*X31376D01*
Y121627D01*
X30991Y121391D01*
X30632Y121085D01*
X30325Y120725D01*
X30079Y120323D01*
X29898Y119887D01*
X29891Y119857D01*
X27795D01*
X27760Y119859D01*
X27619Y119848D01*
X27481Y119815D01*
X27350Y119761D01*
X27229Y119687D01*
X27206Y119667D01*
Y167087D01*
G37*
G36*
X10989D02*X27206D01*
Y119667D01*
X27121Y119595D01*
X27099Y119568D01*
X23648Y116118D01*
X23621Y116095D01*
X23529Y115987D01*
X23455Y115867D01*
X23401Y115736D01*
X23368Y115598D01*
X23368Y115598D01*
X23357Y115457D01*
X23360Y115422D01*
Y84829D01*
X22350Y83819D01*
X22066Y83937D01*
X21668Y84033D01*
X21260Y84065D01*
X20852Y84033D01*
X20454Y83937D01*
X20076Y83780D01*
X19727Y83567D01*
X19416Y83301D01*
X19150Y82990D01*
X18936Y82641D01*
X18779Y82263D01*
X18684Y81865D01*
X18652Y81457D01*
X18684Y81049D01*
X18779Y80651D01*
X18936Y80273D01*
X19150Y79924D01*
X19416Y79613D01*
X19727Y79347D01*
X20076Y79133D01*
X20454Y78976D01*
X20852Y78881D01*
X21260Y78849D01*
X21668Y78881D01*
X22066Y78976D01*
X22444Y79133D01*
X22793Y79347D01*
X23104Y79613D01*
X23370Y79924D01*
X23584Y80273D01*
X23740Y80651D01*
X23836Y81049D01*
X23860Y81457D01*
X23836Y81865D01*
X23740Y82263D01*
X23623Y82547D01*
X24871Y83795D01*
X24898Y83818D01*
X24990Y83926D01*
X25064Y84047D01*
X25118Y84178D01*
X25152Y84315D01*
X25163Y84457D01*
X25160Y84492D01*
Y115084D01*
X27206Y117130D01*
Y3587D01*
X10989D01*
Y22255D01*
X11000Y22254D01*
X12084Y22340D01*
X13141Y22593D01*
X14145Y23009D01*
X15071Y23577D01*
X15898Y24283D01*
X16604Y25110D01*
X17172Y26036D01*
X17588Y27041D01*
X17842Y28098D01*
X17906Y29181D01*
X17842Y30265D01*
X17588Y31322D01*
X17172Y32326D01*
X16604Y33253D01*
X15898Y34079D01*
X15071Y34785D01*
X14145Y35353D01*
X13141Y35769D01*
X12084Y36023D01*
X11000Y36108D01*
X10989Y36107D01*
Y61625D01*
X11000Y61624D01*
X12084Y61710D01*
X13141Y61963D01*
X14145Y62379D01*
X15071Y62947D01*
X15898Y63653D01*
X16604Y64480D01*
X17172Y65406D01*
X17588Y66411D01*
X17842Y67468D01*
X17906Y68551D01*
X17842Y69635D01*
X17588Y70692D01*
X17172Y71696D01*
X16604Y72623D01*
X15898Y73449D01*
X15071Y74155D01*
X14145Y74723D01*
X13141Y75139D01*
X12084Y75393D01*
X11000Y75478D01*
X10989Y75477D01*
Y100995D01*
X11000Y100994D01*
X12084Y101080D01*
X13141Y101333D01*
X14145Y101749D01*
X15071Y102317D01*
X15898Y103023D01*
X16604Y103850D01*
X17172Y104777D01*
X17588Y105781D01*
X17842Y106838D01*
X17906Y107921D01*
X17842Y109005D01*
X17588Y110062D01*
X17172Y111066D01*
X16604Y111993D01*
X15898Y112819D01*
X15071Y113525D01*
X14145Y114093D01*
X13141Y114509D01*
X12084Y114763D01*
X11000Y114848D01*
X10989Y114847D01*
Y140365D01*
X11000Y140365D01*
X12084Y140450D01*
X13141Y140704D01*
X14145Y141120D01*
X15071Y141687D01*
X15898Y142393D01*
X16604Y143220D01*
X17172Y144147D01*
X17588Y145151D01*
X17842Y146208D01*
X17906Y147291D01*
X17842Y148375D01*
X17588Y149432D01*
X17172Y150436D01*
X16604Y151363D01*
X15898Y152189D01*
X15071Y152895D01*
X14145Y153463D01*
X13141Y153879D01*
X12084Y154133D01*
X11000Y154218D01*
X10989Y154217D01*
Y167087D01*
G37*
G36*
X1130D02*X10989D01*
Y154217D01*
X9916Y154133D01*
X8859Y153879D01*
X7855Y153463D01*
X6929Y152895D01*
X6102Y152189D01*
X5396Y151363D01*
X4828Y150436D01*
X4412Y149432D01*
X4158Y148375D01*
X4073Y147291D01*
X4158Y146208D01*
X4412Y145151D01*
X4828Y144147D01*
X5396Y143220D01*
X6102Y142393D01*
X6929Y141687D01*
X7855Y141120D01*
X8859Y140704D01*
X9916Y140450D01*
X10989Y140365D01*
Y114847D01*
X9916Y114763D01*
X8859Y114509D01*
X7855Y114093D01*
X6929Y113525D01*
X6102Y112819D01*
X5396Y111993D01*
X4828Y111066D01*
X4412Y110062D01*
X4158Y109005D01*
X4073Y107921D01*
X4158Y106838D01*
X4412Y105781D01*
X4828Y104777D01*
X5396Y103850D01*
X6102Y103023D01*
X6929Y102317D01*
X7855Y101749D01*
X8859Y101333D01*
X9916Y101080D01*
X10989Y100995D01*
Y75477D01*
X9916Y75393D01*
X8859Y75139D01*
X7855Y74723D01*
X6929Y74155D01*
X6102Y73449D01*
X5396Y72623D01*
X4828Y71696D01*
X4412Y70692D01*
X4158Y69635D01*
X4073Y68551D01*
X4158Y67468D01*
X4412Y66411D01*
X4828Y65406D01*
X5396Y64480D01*
X6102Y63653D01*
X6929Y62947D01*
X7855Y62379D01*
X8859Y61963D01*
X9916Y61710D01*
X10989Y61625D01*
Y36107D01*
X9916Y36023D01*
X8859Y35769D01*
X7855Y35353D01*
X6929Y34785D01*
X6102Y34079D01*
X5396Y33253D01*
X4828Y32326D01*
X4412Y31322D01*
X4158Y30265D01*
X4073Y29181D01*
X4158Y28098D01*
X4412Y27041D01*
X4828Y26036D01*
X5396Y25110D01*
X6102Y24283D01*
X6929Y23577D01*
X7855Y23009D01*
X8859Y22593D01*
X9916Y22340D01*
X10989Y22255D01*
Y3587D01*
X1130D01*
Y167087D01*
G37*
G54D30*X91630Y102087D02*X100130D01*
G54D31*X83260Y132957D02*X97000D01*
X100630Y136587D01*
G54D30*X104130Y74587D02*Y104587D01*
G54D31*X101820Y61217D02*X106000D01*
X112260Y54957D01*
X103260Y68457D02*X112760D01*
X95260Y70457D02*X100260D01*
X101260Y71457D01*
X109760D01*
X112760Y74457D01*
Y78957D01*
G54D30*X104130Y104587D02*X110130Y110587D01*
Y131587D01*
X107760Y133957D01*
G54D31*X66130Y96587D02*X69130Y99587D01*
X51630Y96587D02*X66130D01*
X65630Y104587D02*X60630Y99587D01*
X65630Y106587D02*Y104587D01*
X70130Y121587D02*X73630Y125087D01*
X62130Y121587D02*X70130D01*
X53130Y135087D02*Y129491D01*
X44130Y120491D01*
X32130Y100087D02*Y86087D01*
X30630Y84587D01*
X32760Y118957D02*X27760D01*
X24260Y115457D01*
Y84457D01*
X21260Y81457D01*
G54D30*X76130Y149587D02*X72580D01*
G54D31*X80760Y130457D02*X83260Y132957D01*
G54D32*X62130Y121587D03*
X73630Y125087D03*
X44130Y120491D03*
X53130Y135087D03*
X45216Y132587D03*
X35630Y142087D03*
X69130Y99587D03*
X65630Y106587D03*
X60630Y99587D03*
X72130Y112087D03*
X72630Y149587D03*
X51630Y96587D03*
X49130Y106587D03*
X32130Y100087D03*
X32760Y118957D03*
X18130Y159087D03*
Y129587D03*
Y90587D03*
G54D33*X11000Y147291D03*
Y107921D03*
G54D32*X104130Y125217D03*
X100130Y102087D03*
X91630D03*
X96630Y149587D03*
X84760Y152957D03*
X118630Y159087D03*
X100630Y136587D03*
X107760Y133957D03*
X80760Y130457D03*
X118630Y129087D03*
G54D33*X125173Y107921D03*
Y147291D03*
G54D32*X42320Y16172D03*
X66130Y11587D03*
X42320Y33672D03*
X45500Y79587D03*
X42320Y49672D03*
X32820Y58087D03*
X30630Y84587D03*
X21260Y81457D03*
G54D33*X11000Y68551D03*
G54D32*X18130Y49587D03*
Y17587D03*
G54D33*X11000Y29181D03*
G54D32*X72190Y56587D03*
X92130Y50587D03*
X112260Y54957D03*
X104130Y74587D03*
X101820Y61217D03*
X103260Y68457D03*
X112760D03*
X95260Y70457D03*
G54D33*X125173Y68551D03*
G54D32*X74630Y76587D03*
X112760Y78957D03*
X118630Y90587D03*
Y49587D03*
Y17587D03*
G54D33*X125173Y29181D03*
G54D34*G54D35*G54D34*G54D35*G54D34*G54D35*G54D34*G54D35*G54D34*G54D35*G54D34*G54D35*M02*
